<svg width="87" height="66" viewBox="0 0 87 66" fill="none" xmlns="http://www.w3.org/2000/svg">
<path d="M4.25165 46.1328L0.831177 47.9109C0.831177 47.9109 0.358872 49.0128 3.02366 50.7709C5.68845 52.5289 17.3469 62.8718 21.7518 64.6299C26.1566 66.3879 39.3762 66.4681 52.0787 64.7902C64.7862 63.1123 82.5299 57.8832 84.9908 54.8479C87.4518 51.8076 85.9106 48.8525 85.9106 48.8525L67.4659 43.7336L4.25165 46.1328Z" fill="url(#paint0_linear)"/>
<path d="M32.7487 2.31657L20.2649 4.90606C8.78046 7.28519 0.54248 17.4729 0.54248 29.2834V46.9991C0.54248 47.9557 1.97928 48.7822 4.44521 49.4684C5.60857 49.7939 7.00062 50.0844 8.57663 50.3449L19.5937 49.1178V44.8504V30.9863C19.5937 23.5885 20.2947 22.5116 26.6187 18.7551L32.694 3.89932C35.145 2.65716 34.2551 2.53195 34.2551 2.27149C34.2551 1.95094 33.2806 2.23643 32.7487 2.31657Z" fill="url(#paint1_linear)"/>
<path d="M51.0843 4.05972L36.9053 2.25659C36.9848 2.55711 37.0445 2.87266 37.0445 3.19823C37.0445 3.53882 37.9344 3.06299 38.5907 3.18821L52.9537 10.7063C59.2776 14.5379 63.1604 21.52 63.1604 29.0631V43.2477V47.6003V50.32C64.6569 50.0545 65.9694 49.764 67.0731 49.4384C69.4346 48.7472 70.8117 47.9258 70.8117 46.9692V46.8439V28.9128C70.8068 16.8719 62.5688 6.48893 51.0843 4.05972Z" fill="url(#paint2_linear)"/>
<path d="M47.8675 5.96796L38.5905 3.18814C37.5663 2.67224 36.9349 2.02612 35.3391 2.02612C33.6686 2.02612 33.6487 2.11628 31.844 3.03788L20.6827 10.9767C12.9817 17.6432 13.3943 24.1345 13.3943 31.6675V45.777V50.1246L7.72168 50.3249C21.5329 52.674 53.8534 52.3134 67.4011 49.9242V47.2095L67.5403 41.7951V27.6305C67.5403 23.7889 65.5317 19.6717 62.7277 16.0454C58.9692 11.187 53.7241 7.721 47.8675 5.96796Z" fill="url(#paint3_linear)"/>
<path d="M45.4862 4.12496C45.2078 4.49561 46.2021 5.08663 47.7085 5.44726C49.2149 5.80788 50.6616 5.79286 50.9351 5.42221C51.2135 5.05157 50.2192 4.46055 48.7128 4.09992C47.2113 3.73929 45.7646 3.74931 45.4862 4.12496Z" fill="url(#paint4_linear)"/>
<path d="M37.3722 9.20376C37.1734 10.1103 35.6173 10.8366 33.8921 10.8266C32.167 10.8166 30.934 10.0703 31.1329 9.16369C31.3317 8.25712 32.8878 7.53086 34.613 7.54087C36.3381 7.55089 37.5711 8.29719 37.3722 9.20376Z" fill="url(#paint5_linear)"/>
<path d="M30.7649 3.07806C30.7649 3.07806 33.2755 4.53559 35.9254 4.21503C38.5703 3.89448 38.5405 2.51709 38.5405 2.51709C38.5405 2.51709 37.407 -0.613342 33.7478 0.10791C30.0838 0.83417 30.7649 3.07806 30.7649 3.07806Z" fill="url(#paint6_linear)"/>
<path d="M20.9804 7.32038C21.2489 7.9665 20.2844 8.99328 18.8178 9.61436C17.3511 10.2354 15.9491 10.2204 15.6757 9.57429C15.4072 8.92817 16.3717 7.90138 17.8384 7.28031C19.305 6.65422 20.7119 6.67426 20.9804 7.32038Z" fill="url(#paint7_linear)"/>
<path d="M0.830566 47.911C0.830566 47.911 33.5737 51.933 51.4318 49.7892C69.2898 47.6455 70.7813 44.4299 70.7813 44.4299C70.7813 44.4299 80.3964 46.6638 84.861 48.0011C89.3255 49.3385 84.861 54.1668 71.9248 57.0218C58.9886 59.8817 31.7392 63.6333 24.1873 61.3092C16.6304 58.9852 0.830566 47.911 0.830566 47.911Z" fill="url(#paint8_linear)"/>
<path d="M62.3398 37.1673L63.3789 38.0288L64.3683 36.6213L66.8889 33.0652L65.8747 32.384L64.413 32.3589L65.467 30.4556L67.4954 29.1884L68.2412 29.0482L67.4507 28.3921L64.4776 28.0314L65.109 26.6941L69.0018 25.472L69.6929 25.1665L68.44 24.315L62.4343 23.6138L62.8817 29.8897L62.5437 33.9267L62.8121 35.9852L62.3398 37.1673Z" fill="url(#paint9_linear)"/>
<path d="M63.5236 24.4451C63.5236 24.4451 65.3581 29.7793 63.3794 38.0286C63.3794 38.0286 64.1152 38.0086 64.3737 37.668C64.6322 37.3274 66.8894 33.07 66.8894 33.07L64.8808 33.06C64.8808 33.06 64.6472 32.2186 65.4227 32.2035C66.1983 32.1885 67.1827 32.1184 67.1827 32.1184L68.2416 29.0481C68.2416 29.0481 64.8808 28.7075 64.677 28.7225C64.4732 28.7375 64.5626 27.9461 65.0051 27.881C65.4476 27.8159 68.4902 28.1765 68.4902 28.1765L69.6934 25.1663L63.5236 24.4451Z" fill="url(#paint10_linear)"/>
<path d="M58.8151 40.0921C58.8648 40.3225 59.0736 40.3976 59.2575 40.3626C59.6503 40.2874 60.0381 40.1822 60.4209 40.052C60.6993 39.9268 60.9877 39.8417 61.2711 39.7365C61.455 39.6664 61.629 39.5812 61.7881 39.461C64.0104 34.0516 64.1993 27.6555 62.2405 22.1009C62.2356 22.0859 62.2256 22.0758 62.2206 22.0658C62.2206 21.9206 62.161 21.7753 62.0466 21.7102C61.2711 21.2795 60.5005 20.8537 59.7249 20.423C59.5509 20.3278 59.3421 20.3829 59.2426 20.5782C59.2377 20.5933 59.2327 20.6133 59.2277 20.6283C59.1283 20.7435 59.0835 20.9188 59.173 21.0991C62.0218 26.8391 61.9223 33.9364 58.9443 39.5862C58.9294 39.6163 58.9245 39.6463 58.9145 39.6814C58.82 39.7815 58.7852 39.9569 58.8151 40.0921Z" fill="url(#paint11_linear)"/>
<path d="M61.0374 30.6759C60.053 40.7283 52.4812 48.2013 44.119 47.3749C35.7617 46.5434 29.7858 37.7181 30.7702 27.6657C31.7545 17.6132 39.3214 9.18861 47.6737 10.0751C57.4827 11.122 62.0218 20.6234 61.0374 30.6759Z" fill="url(#paint12_linear)"/>
<path d="M62.2103 31.202C61.2259 41.2544 53.8281 48.7474 45.6846 47.941C37.5411 47.1346 31.7392 38.3243 32.7236 28.2719C33.708 18.2194 41.1058 10.7264 49.2493 11.5328C57.3928 12.3442 63.1947 21.1495 62.2103 31.202Z" fill="url(#paint13_linear)"/>
<path d="M57.4473 17.4631C58.9487 20.844 59.6398 25.0062 59.2073 29.4189C58.198 39.7518 51.4316 47.5353 44.1035 46.804C44.0786 46.799 44.0488 46.794 44.0239 46.794C44.6255 46.9693 45.2469 47.0945 45.8833 47.1597C53.1518 47.8809 59.8039 40.6884 60.7435 31.0918C61.2655 25.8276 59.9431 20.9291 57.4473 17.4631Z" fill="url(#paint14_linear)"/>
<path d="M59.2125 29.4237C59.645 25.0111 58.9539 20.8438 57.4525 17.468C55.4042 14.623 52.5654 12.7448 49.2891 12.4192C42.0206 11.698 35.3686 18.8904 34.4289 28.4871C33.5738 37.2423 37.7649 44.9657 44.0242 46.8039C44.049 46.8089 44.0788 46.8139 44.1037 46.8139C51.4368 47.5401 58.1983 39.7516 59.2125 29.4237Z" fill="url(#paint15_linear)"/>
<path d="M45.1982 35.6345C45.2032 35.8699 45.2529 41.0539 45.3275 41.8102C45.4021 42.5665 47.9128 43.6785 49.6379 43.1776C51.3631 42.6767 51.6315 41.68 51.6067 40.3377C51.5768 38.9954 51.5122 35.7347 51.5122 35.7347L45.1982 35.6345Z" fill="url(#paint16_linear)"/>
<path d="M44.5219 35.5493C44.4622 32.6844 43.3336 30.3002 41.9863 28.3819C40.639 26.4636 39.8386 23.5535 40.6937 20.8989C41.5488 18.2443 43.4878 16.1206 47.7584 15.765C52.3571 15.3843 55.0368 18.2493 56.0709 21.6652C57.105 25.0812 54.6192 28.5722 53.1725 30.0348C51.7257 31.4973 52.3074 34.9833 51.7059 36.2005C51.1043 37.4176 49.1753 37.6279 47.6938 37.5428C46.2122 37.4626 44.5467 36.6963 44.5219 35.5493Z" fill="url(#paint17_linear)"/>
<path d="M51.383 36.8467C49.7722 38.2892 47.4604 38.8151 45.3823 38.2491C44.7857 38.0888 44.552 39.0255 45.1486 39.1857C47.5698 39.8419 50.2097 39.1907 52.0791 37.5128C52.5414 37.1021 51.8454 36.436 51.383 36.8467Z" fill="url(#paint18_linear)"/>
<path d="M51.5268 38.6047C49.8116 40.0923 47.3358 40.483 45.2278 39.6916C44.6511 39.4762 44.4174 40.4129 44.9941 40.6282C47.4352 41.5448 50.2591 40.9738 52.2229 39.2709C52.6902 38.8702 51.9942 38.204 51.5268 38.6047Z" fill="url(#paint19_linear)"/>
<path d="M51.9645 40.5179C51.7557 40.3175 51.4872 40.3676 51.2834 40.5329C50.2692 41.3593 48.9418 41.74 47.6491 41.6549C47.3906 41.6398 47.1719 41.9053 47.1768 42.1507C47.1818 42.4312 47.4055 42.6065 47.669 42.6265C49.2351 42.7317 50.7664 42.1958 51.9745 41.2041C52.1833 41.0338 52.1385 40.6832 51.9645 40.5179Z" fill="url(#paint20_linear)"/>
<path d="M33.082 39.8521C32.7887 39.8671 32.5003 39.8571 32.207 39.8371C29.3881 33.8867 29.7809 26.6993 33.2063 21.1246C33.2461 21.0595 33.261 20.9994 33.266 20.9393C33.2361 20.8691 33.2013 20.804 33.1566 20.7439C33.1516 20.7339 33.1467 20.7289 33.1417 20.7189C33.1268 20.7039 33.1168 20.6838 33.1019 20.6688C33.0721 20.6337 33.0472 20.5987 33.0174 20.5636C32.9677 20.5085 32.918 20.4534 32.8682 20.3983C32.8334 20.3783 32.7986 20.3533 32.7638 20.3332C32.6396 20.2481 32.5302 20.1479 32.391 20.0928C32.3114 20.0627 32.2319 20.0277 32.1623 19.9776C32.1275 19.9526 32.0877 19.9225 32.0529 19.8975C31.0785 20.228 30.1289 20.6287 29.2042 21.0995C29.1992 21.1246 29.1942 21.1496 29.1793 21.1747C29.1793 21.1747 29.1793 21.1797 29.1743 21.1797C29.1047 21.365 29.055 21.5654 28.9804 21.7507C28.2247 24.801 27.479 27.9164 27.479 31.0969C27.479 34.2223 28.3888 37.1073 29.6715 39.8771C29.6963 39.9322 29.7312 39.9723 29.761 40.0023C29.8107 40.1025 29.8952 40.1827 29.9996 40.2227C30.984 40.5884 32.038 40.7486 33.082 40.6935C33.2908 40.6835 33.4748 40.5082 33.4748 40.2728C33.4748 40.0524 33.2958 39.8421 33.082 39.8521Z" fill="url(#paint21_linear)"/>
<path d="M33.5487 40.1175C33.5388 40.0875 33.5338 40.0574 33.5189 40.0224C30.3421 34.3175 30.2376 27.145 33.2753 21.35C33.3698 21.1646 33.3201 20.9943 33.2157 20.8741C33.2107 20.8591 33.2107 20.8391 33.2007 20.824C33.0963 20.6237 32.8726 20.5686 32.6887 20.6638C31.8634 21.0995 31.0381 21.5303 30.2128 21.966C30.0885 22.0311 30.0239 22.1814 30.0239 22.3267C30.0189 22.3417 30.009 22.3467 30.004 22.3617C27.9109 27.9714 28.1148 34.4377 30.4862 39.8971C30.6553 40.0173 30.8442 40.1075 31.0381 40.1726C31.3413 40.2828 31.6496 40.3629 31.9429 40.4932C32.3506 40.6184 32.7632 40.7286 33.1858 40.8037C33.3797 40.8388 33.6034 40.7636 33.6581 40.5282C33.688 40.398 33.6482 40.2227 33.5487 40.1175Z" fill="url(#paint22_linear)"/>
<path d="M27.5233 37.8836L25.1518 37.2726L19.5736 33.1003L26.0268 32.7547L23.4565 30.596L20.4984 32.5143L18.7782 31.9584L16.5161 29.1284L26.3152 28.3671L25.1369 26.7794L17.3165 27.8262L17.0431 28.6676L15.4721 28.1768L12.8271 24.9963L26.2605 24.27L27.6028 24.7859L26.698 26.2284L26.2505 31.197L26.8223 36.2358L27.5233 37.8836Z" fill="url(#paint23_linear)"/>
<path d="M27.6028 24.7861C27.6028 24.7861 25.6241 30.466 27.8165 37.3279C27.8165 37.3279 28.1496 38.2144 27.5232 37.8889C26.9018 37.5633 21.2838 33.4411 21.2838 33.4411L25.7583 33.356C25.7583 33.356 26.166 32.5145 24.4309 32.5296C22.6958 32.5446 20.5033 32.5145 20.5033 32.5145L17.7192 29.5193C17.7192 29.5193 25.1567 29.0485 25.6141 29.0585C26.0715 29.0636 25.7682 28.2872 24.7689 28.2371C23.7746 28.187 17.048 28.6679 17.048 28.6679L13.9507 25.7428L27.6028 24.7861Z" fill="url(#paint24_linear)"/>
<defs>
<linearGradient id="paint0_linear" x1="87.6989" y1="40.3352" x2="30.5013" y2="55.0966" gradientUnits="userSpaceOnUse">
<stop offset="0.00564817" stop-color="#ABABAB"/>
<stop offset="1" stop-color="#333333"/>
</linearGradient>
<linearGradient id="paint1_linear" x1="4.37869" y1="25.738" x2="39.1587" y2="26.7415" gradientUnits="userSpaceOnUse">
<stop offset="0.00564817" stop-color="#4A4A4A"/>
<stop offset="1"/>
</linearGradient>
<linearGradient id="paint2_linear" x1="46.7929" y1="10.6651" x2="53.3484" y2="18.4278" gradientUnits="userSpaceOnUse">
<stop offset="0.00564817" stop-color="#4A4A4A"/>
<stop offset="1"/>
</linearGradient>
<linearGradient id="paint3_linear" x1="56.7761" y1="23.4325" x2="29.2394" y2="34.774" gradientUnits="userSpaceOnUse">
<stop offset="0.00564817" stop-color="#4A4A4A"/>
<stop offset="1"/>
</linearGradient>
<linearGradient id="paint4_linear" x1="48.4021" y1="4.22934" x2="48.105" y2="5.06932" gradientUnits="userSpaceOnUse">
<stop offset="0.00564817" stop-color="#4A4A4A"/>
<stop offset="1"/>
</linearGradient>
<linearGradient id="paint5_linear" x1="34.5033" y1="8.01063" x2="34.165" y2="9.82192" gradientUnits="userSpaceOnUse">
<stop offset="0.00564817" stop-color="#4A4A4A"/>
<stop offset="1"/>
</linearGradient>
<linearGradient id="paint6_linear" x1="34.6271" y1="1.06848" x2="34.6271" y2="2.32896" gradientUnits="userSpaceOnUse">
<stop offset="0.00564817" stop-color="#ABABAB"/>
<stop offset="1" stop-color="#C4C4C4"/>
</linearGradient>
<linearGradient id="paint7_linear" x1="18.0473" y1="7.63532" x2="18.491" y2="8.88909" gradientUnits="userSpaceOnUse">
<stop offset="0.00564817" stop-color="#4A4A4A"/>
<stop offset="1"/>
</linearGradient>
<linearGradient id="paint8_linear" x1="43.9128" y1="52.0185" x2="44.3768" y2="58.6962" gradientUnits="userSpaceOnUse">
<stop offset="0.00564817" stop-color="#ABABAB"/>
<stop offset="1" stop-color="#C4C4C4"/>
</linearGradient>
<linearGradient id="paint9_linear" x1="62.9536" y1="37.9277" x2="66.2916" y2="23.6095" gradientUnits="userSpaceOnUse">
<stop offset="0.00564817" stop-color="#ABABAB"/>
<stop offset="1" stop-color="#333333"/>
</linearGradient>
<linearGradient id="paint10_linear" x1="67.1785" y1="35.5291" x2="60.4314" y2="26.4947" gradientUnits="userSpaceOnUse">
<stop offset="0.00564817" stop-color="#ABABAB"/>
<stop offset="1" stop-color="#C4C4C4"/>
</linearGradient>
<linearGradient id="paint11_linear" x1="62.1932" y1="30.3719" x2="63.2986" y2="30.3719" gradientUnits="userSpaceOnUse">
<stop offset="0.00564817" stop-color="#ABABAB"/>
<stop offset="1" stop-color="#C4C4C4"/>
</linearGradient>
<linearGradient id="paint12_linear" x1="41.2261" y1="49.5174" x2="51.0539" y2="7.3638" gradientUnits="userSpaceOnUse">
<stop offset="0.00564817" stop-color="#ABABAB"/>
<stop offset="1" stop-color="#333333"/>
</linearGradient>
<linearGradient id="paint13_linear" x1="49.6872" y1="50.442" x2="46.4554" y2="20.7801" gradientUnits="userSpaceOnUse">
<stop offset="0.00564817" stop-color="#ABABAB"/>
<stop offset="1" stop-color="#C4C4C4"/>
</linearGradient>
<linearGradient id="paint14_linear" x1="53.855" y1="8.48155" x2="52.1492" y2="43.7815" gradientUnits="userSpaceOnUse">
<stop offset="0.00564817" stop-color="#ABABAB"/>
<stop offset="1" stop-color="#333333"/>
</linearGradient>
<linearGradient id="paint15_linear" x1="46.0201" y1="40.7318" x2="48.9221" y2="-1.39582" gradientUnits="userSpaceOnUse">
<stop offset="0.00564817" stop-color="#ABABAB"/>
<stop offset="1" stop-color="#333333"/>
</linearGradient>
<linearGradient id="paint16_linear" x1="47.9937" y1="31.4056" x2="48.4525" y2="39.3249" gradientUnits="userSpaceOnUse">
<stop offset="0.00564817" stop-color="#ABABAB"/>
<stop offset="1" stop-color="#333333"/>
</linearGradient>
<linearGradient id="paint17_linear" x1="50.1505" y1="26.5454" x2="45.4632" y2="26.8088" gradientUnits="userSpaceOnUse">
<stop offset="0.0291" stop-color="white"/>
<stop offset="1" stop-color="#E8E8E8"/>
</linearGradient>
<linearGradient id="paint18_linear" x1="48.4561" y1="36.9055" x2="48.5985" y2="39.3622" gradientUnits="userSpaceOnUse">
<stop offset="0.00564817" stop-color="#ABABAB"/>
<stop offset="1" stop-color="#333333"/>
</linearGradient>
<linearGradient id="paint19_linear" x1="48.4707" y1="38.6767" x2="48.606" y2="41.0115" gradientUnits="userSpaceOnUse">
<stop offset="0.00564817" stop-color="#ABABAB"/>
<stop offset="1" stop-color="#333333"/>
</linearGradient>
<linearGradient id="paint20_linear" x1="49.5933" y1="40.505" x2="49.7117" y2="42.5477" gradientUnits="userSpaceOnUse">
<stop offset="0.00564817" stop-color="#ABABAB"/>
<stop offset="1" stop-color="#333333"/>
</linearGradient>
<linearGradient id="paint21_linear" x1="29.137" y1="40.0847" x2="33.8133" y2="20.026" gradientUnits="userSpaceOnUse">
<stop offset="0.00564817" stop-color="#ABABAB"/>
<stop offset="1" stop-color="#333333"/>
</linearGradient>
<linearGradient id="paint22_linear" x1="30.5523" y1="41.2233" x2="32.4286" y2="20.5789" gradientUnits="userSpaceOnUse">
<stop offset="0.00564817" stop-color="#ABABAB"/>
<stop offset="1" stop-color="#C4C4C4"/>
</linearGradient>
<linearGradient id="paint23_linear" x1="19.0894" y1="35.7254" x2="22.3339" y2="23.0817" gradientUnits="userSpaceOnUse">
<stop offset="0.00564817" stop-color="#ABABAB"/>
<stop offset="1" stop-color="#333333"/>
</linearGradient>
<linearGradient id="paint24_linear" x1="20.1247" y1="35.6906" x2="23.7902" y2="23.47" gradientUnits="userSpaceOnUse">
<stop offset="0.00564817" stop-color="#ABABAB"/>
<stop offset="1" stop-color="#C4C4C4"/>
</linearGradient>
</defs>
</svg>
