<svg width="87" height="66" viewBox="0 0 87 66" fill="none" xmlns="http://www.w3.org/2000/svg">
<path d="M4.16767 46.1328L0.747192 47.9109C0.747192 47.9109 0.274888 49.0128 2.93968 50.7709C5.60447 52.5289 17.2629 62.8718 21.6678 64.6299C26.0727 66.3879 39.2922 66.4681 51.9947 64.7902C64.7022 63.1123 82.4459 57.8832 84.9069 54.8479C87.3678 51.8076 85.8266 48.8525 85.8266 48.8525L67.3819 43.7336L4.16767 46.1328Z" fill="url(#paint0_linear)"/>
<path d="M32.6647 2.31657L20.1809 4.90606C8.69648 7.28519 0.458496 17.4729 0.458496 29.2834V46.9991C0.458496 47.9557 1.8953 48.7822 4.36122 49.4684C5.52458 49.7939 6.91664 50.0844 8.49265 50.3449L19.5098 49.1178V44.8504V30.9863C19.5098 23.5885 20.2108 22.5116 26.5347 18.7551L32.61 3.89932C35.061 2.65716 34.1711 2.53195 34.1711 2.27149C34.1711 1.95094 33.1967 2.23643 32.6647 2.31657Z" fill="url(#paint1_linear)"/>
<path d="M51.0004 4.05948L36.8213 2.25635C36.9008 2.55687 36.9605 2.87242 36.9605 3.19798C36.9605 3.53857 37.8504 3.06275 38.5067 3.18796L52.8697 10.706C59.1936 14.5377 63.0765 21.5198 63.0765 29.0629V43.2475V47.6V50.3197C64.5729 50.0543 65.8854 49.7638 66.9891 49.4382C69.3507 48.747 70.7278 47.9256 70.7278 46.9689V46.8437V28.9126C70.7228 16.8717 62.4848 6.48869 51.0004 4.05948Z" fill="url(#paint2_linear)"/>
<path d="M47.7836 5.96796L38.5065 3.18814C37.4824 2.67224 36.851 2.02612 35.2551 2.02612C33.5846 2.02612 33.5647 2.11628 31.76 3.03788L20.5987 10.9767C12.8977 17.6432 13.3103 24.1345 13.3103 31.6675V45.777V50.1246L7.6377 50.3249C21.4489 52.674 53.7694 52.3134 67.3171 49.9242V47.2095L67.4563 41.7951V27.6305C67.4563 23.7889 65.4478 19.6717 62.6438 16.0454C58.8852 11.187 53.6402 7.721 47.7836 5.96796Z" fill="url(#paint3_linear)"/>
<path d="M30.6809 3.07806C30.6809 3.07806 33.1916 4.53559 35.8414 4.21503C38.4863 3.89448 38.4565 2.51709 38.4565 2.51709C38.4565 2.51709 37.323 -0.613342 33.6639 0.10791C29.9998 0.83417 30.6809 3.07806 30.6809 3.07806Z" fill="url(#paint4_linear)"/>
<path d="M20.6835 6.88971C20.952 7.53583 19.9875 8.56261 18.5209 9.18369C17.0543 9.80477 15.6523 9.78974 15.3788 9.14362C15.1104 8.4975 16.0748 7.47072 17.5415 6.84964C19.0081 6.22356 20.4151 6.24359 20.6835 6.88971Z" fill="url(#paint5_linear)"/>
<path d="M48.5238 4.14465C48.2454 4.51529 49.2397 5.10632 50.7461 5.46694C52.2525 5.82757 53.6992 5.81254 53.9727 5.4419C54.2511 5.07125 53.2568 4.48023 51.7504 4.1196C50.2489 3.76399 48.8022 3.774 48.5238 4.14465Z" fill="url(#paint6_linear)"/>
<path d="M40.4103 9.22353C40.2115 10.1301 38.6554 10.8564 36.9302 10.8463C35.205 10.8363 33.9721 10.09 34.1709 9.18346C34.3698 8.27689 35.9259 7.55063 37.6511 7.56065C39.3713 7.57067 40.6092 8.31696 40.4103 9.22353Z" fill="url(#paint7_linear)"/>
<path d="M0.746582 47.911C0.746582 47.911 33.4897 51.933 51.3478 49.7892C69.2059 47.6455 70.6974 44.4299 70.6974 44.4299C70.6974 44.4299 80.3125 46.6638 84.777 48.0011C89.2416 49.3385 84.777 54.1668 71.8409 57.0218C58.9047 59.8817 31.6552 63.6333 24.1033 61.3092C16.5464 58.9852 0.746582 47.911 0.746582 47.911Z" fill="url(#paint8_linear)"/>
<path d="M58.4624 38.7601L64.14 33.7764L67.7544 32.2989L69.2111 31.2721L67.8339 30.8213C67.8339 30.8213 63.7124 31.823 61.3459 31.5125C58.9795 31.2019 59.1833 35.84 59.1833 35.84L58.4624 38.7601Z" fill="url(#paint9_linear)"/>
<path d="M69.2112 31.2773C69.2112 31.2773 65.8454 32.6898 61.1223 32.3993C56.3993 32.1088 57.6969 42.1763 57.6969 42.1763L61.7935 40.303C61.7935 40.303 61.6642 34.5681 66.7601 34.4128C66.8248 34.4078 69.2112 31.2773 69.2112 31.2773Z" fill="url(#paint10_linear)"/>
<path d="M59.0887 18.3096L62.5042 20.6086C62.5042 20.6086 63.7968 26.4687 67.804 27.8762L69.1662 29.9097C69.1662 29.9097 67.8338 30.9866 62.012 31.0567C56.1902 31.1268 59.0887 18.3096 59.0887 18.3096Z" fill="url(#paint11_linear)"/>
<path d="M60.953 30.6759C59.9686 40.7283 52.3968 48.2013 44.0345 47.3749C35.6772 46.5434 29.7013 37.7181 30.6857 27.6657C31.6701 17.6132 39.2369 9.18861 47.5892 10.0751C57.3982 11.122 61.9373 20.6234 60.953 30.6759Z" fill="url(#paint12_linear)"/>
<path d="M62.1263 31.202C61.142 41.2544 53.7442 48.7474 45.6006 47.941C37.4571 47.1346 31.6552 38.3243 32.6396 28.2719C33.624 18.2194 41.0218 10.7264 49.1653 11.5328C57.3088 12.3442 63.1107 21.1495 62.1263 31.202Z" fill="url(#paint13_linear)"/>
<path d="M57.8356 17.7786C59.3321 21.1995 59.9833 25.3968 59.4862 29.8245C58.3178 40.1874 51.283 47.8958 43.7808 47.0343C43.751 47.0293 43.7261 47.0243 43.6963 47.0243C44.3128 47.2146 44.9442 47.3499 45.6004 47.425C53.038 48.2765 59.9485 41.1641 61.0373 31.5374C61.6389 26.2483 60.3512 21.3047 57.8356 17.7786Z" fill="url(#paint14_linear)"/>
<path d="M59.486 29.8244C59.9881 25.3968 59.3318 21.1995 57.8354 17.7785C55.7722 14.8885 52.8886 12.9452 49.5377 12.5645C42.1002 11.713 35.1896 18.8254 34.1008 28.4521C33.1115 37.2323 37.3075 45.0709 43.701 47.0243C43.7309 47.0293 43.7557 47.0343 43.7856 47.0343C51.2877 47.8958 58.3176 40.1874 59.486 29.8244Z" fill="url(#paint15_linear)"/>
<path d="M20.3998 34.1669L19.7385 35.0234L16.5269 31.7126L30.691 32.2085L31.5859 32.8747L30.4822 34.3723L20.3998 34.1669Z" fill="url(#paint16_linear)"/>
<path d="M31.5856 32.8746C31.5856 32.8746 32.8932 40.7433 36.6269 43.1424C35.8264 43.0272 31.7447 42.0706 31.7447 42.0706C31.7447 42.0706 28.3143 35.4992 19.7432 35.0233L17.5806 32.5891C17.5756 32.5891 29.587 33.2903 31.5856 32.8746Z" fill="url(#paint17_linear)"/>
<path d="M59.6557 28.4822L59.6308 28.4872L59.6209 28.4672L59.596 28.4722L59.5861 28.4522L59.5612 28.4572L59.5512 28.4371L59.5264 28.4422L59.5164 28.4221L59.4916 28.4271L59.4816 28.4071L59.4568 28.4121L59.4468 28.3921L59.422 28.3971L59.412 28.377L59.3872 28.3821L59.3772 28.362L59.3524 28.367L59.3424 28.347L59.3176 28.352L59.3076 28.332L59.2828 28.337L59.2728 28.3169L59.248 28.3219L59.238 28.3019L59.2132 28.3069L59.2032 28.2869L59.1784 28.2919L59.1684 28.2719L59.1436 28.2769L59.1336 28.2568L59.1088 28.2618L59.0988 28.2418L59.074 28.2468L59.064 28.2268L59.0392 28.2318L59.0292 28.2118L59.0044 28.2168L58.9944 28.1967L58.9696 28.2017L58.9596 28.1817L58.9348 28.1867L58.9248 28.1667L58.9 28.1717L58.89 28.1517L58.8652 28.1567L58.8552 28.1366L58.8304 28.1416L58.8204 28.1216L58.7956 28.1266L58.7856 28.1066L58.7608 28.1116L58.7508 28.0915L58.726 28.0966L58.716 28.0765L58.6912 28.0815L58.6812 28.0615L58.6564 28.0665L58.6464 28.0465L58.6216 28.0515L58.6116 28.0314L58.5868 28.0365L58.5768 28.0164L58.552 28.0214L58.542 28.0014L58.5171 28.0064L58.5072 27.9864L58.4823 27.9914L58.4724 27.9713L58.4475 27.9763L58.4376 27.9563L58.4127 27.9613L58.4028 27.9413L58.3779 27.9463L58.368 27.9263L58.3431 27.9313L58.3332 27.9112L58.3083 27.9162L58.2984 27.8962L58.2735 27.9012L58.2636 27.8812L58.2387 27.8862L58.2288 27.8662L58.2039 27.8712L58.194 27.8511L58.1691 27.8561L58.1592 27.8411L58.1642 27.8111C58.1194 27.205 58.0747 26.599 57.9802 26.0029C57.8161 25.0112 57.5129 24.1046 57.1251 23.2532C56.7373 22.3816 56.2451 21.6253 55.6784 20.9692C55.2408 20.4633 54.7685 20.0426 54.2614 19.697C53.8538 19.4065 53.4212 19.1711 52.9788 18.9858C52.9688 18.9807 52.9539 18.9757 52.944 18.9707C52.934 18.9657 52.9191 18.9607 52.9092 18.9557C52.8992 18.9507 52.8843 18.9457 52.8744 18.9407C52.8644 18.9357 52.8495 18.9307 52.8396 18.9256C52.8296 18.9206 52.8147 18.9156 52.8048 18.9106C52.7898 18.9056 52.7799 18.9006 52.765 18.8956C52.7501 18.8906 52.7401 18.8856 52.7302 18.8806C52.7153 18.8756 52.7053 18.8706 52.6954 18.8655C52.6805 18.8605 52.6705 18.8555 52.6556 18.8505C52.6407 18.8455 52.6307 18.8405 52.6208 18.8355C52.6059 18.8305 52.5959 18.8255 52.586 18.8205C52.5711 18.8155 52.5611 18.8104 52.5512 18.8054C52.5363 18.8004 52.5263 18.7954 52.5164 18.7904C52.5015 18.7854 52.4915 18.7804 52.4816 18.7754C52.4667 18.7704 52.4567 18.7654 52.4468 18.7604C52.4319 18.7554 52.4219 18.7503 52.412 18.7453C52.3971 18.7403 52.3871 18.7353 52.3772 18.7303C52.3623 18.7253 52.3523 18.7203 52.3424 18.7153C52.3275 18.7103 52.3175 18.7053 52.3076 18.7003C52.2927 18.6953 52.2827 18.6902 52.2728 18.6852C52.2579 18.6802 52.2479 18.6752 52.238 18.6702C52.2231 18.6652 52.2131 18.6602 52.1982 18.6552C52.1833 18.6502 52.1734 18.6452 52.1634 18.6402C52.1485 18.6351 52.1386 18.6301 52.1286 18.6251C52.1137 18.6201 52.1038 18.6151 52.0938 18.6101C52.0789 18.6051 52.069 18.6001 52.059 18.5951C52.0441 18.5901 52.0341 18.5851 52.0242 18.58C52.0093 18.575 51.9993 18.57 51.9894 18.565C51.9745 18.56 51.9645 18.555 51.9546 18.55C51.9397 18.545 51.9297 18.54 51.9198 18.535C51.9049 18.53 51.8949 18.525 51.885 18.5199C51.8701 18.5149 51.8601 18.5099 51.8502 18.5049C51.8353 18.4999 51.8253 18.4949 51.8154 18.4899C51.8005 18.4849 51.7905 18.4799 51.7756 18.4749C51.7607 18.4699 51.7508 18.4648 51.7408 18.4598C51.7259 18.4548 51.716 18.4498 51.706 18.4448C51.6911 18.4398 51.6812 18.4348 51.6712 18.4298C51.6563 18.4248 51.6464 18.4198 51.6364 18.4148C51.6215 18.4098 51.6116 18.4047 51.6016 18.3997C51.5867 18.3947 51.5768 18.3897 51.5668 18.3847C51.5519 18.3797 51.542 18.3747 51.532 18.3697C51.5221 18.3647 51.5072 18.3597 51.4972 18.3547C51.0349 18.1293 50.5526 17.954 50.0505 17.8388C49.8417 17.7837 49.6328 17.7436 49.424 17.7186C49.439 17.403 49.4588 17.0875 49.4638 16.7719L49.4688 16.6016L49.3047 16.4764L49.2998 16.4814L49.2699 16.4564L49.2649 16.4614L49.2351 16.4363L49.2301 16.4413L49.2003 16.4163L49.1953 16.4213L49.1655 16.3963L49.1605 16.4013L49.1307 16.3762L49.1257 16.3812L49.0959 16.3562L49.0909 16.3612L49.0611 16.3362L49.0561 16.3412L49.0263 16.3161L49.0213 16.3211L48.9915 16.2961L48.9865 16.3011L48.9567 16.2761L48.9517 16.2811L48.9219 16.256L48.9169 16.261L48.8871 16.236L48.8821 16.241L48.8523 16.2159L48.6336 16.0807L48.6037 16.0557L48.5988 16.0607L48.5689 16.0356L48.564 16.0406L48.5341 16.0156L48.5192 16.0306L48.4894 16.0056L48.4844 16.0106L48.4546 15.9855L48.4496 15.9906L48.4198 15.9655L48.4148 15.9705L48.385 15.9455L48.38 15.9505L48.3502 15.9254L48.3452 15.9305L48.3154 15.9054L48.3104 15.9104L48.2806 15.8854L48.2756 15.8904L48.2458 15.8653L48.2408 15.8703L48.211 15.8453L48.1861 15.8754L48.1563 15.8503L48.1513 15.8553L48.1215 15.8303L48.1165 15.8353L48.0867 15.8102L48.0817 15.8153L48.0519 15.7902L48.0469 15.7952L48.0171 15.7702L48.0121 15.7752L47.9823 15.7501L47.9773 15.7551L47.9475 15.7301L47.9425 15.7351L47.9127 15.7101L47.9077 15.7151L47.8779 15.69L47.8729 15.695L47.8431 15.67L47.8381 15.675L47.8083 15.65L47.8033 15.655L47.7735 15.6299L47.7685 15.6349L47.7387 15.6099L47.7337 15.6149L47.7039 15.5899L47.6989 15.5949L47.6691 15.5698L47.6641 15.5748L47.6343 15.5498L47.6293 15.5548L47.5995 15.5298L47.5945 15.5348L47.5647 15.5097L47.5597 15.5147L47.5299 15.4897L47.5249 15.4947L47.4951 15.4697L47.4404 15.5298L47.4105 15.5047L47.4056 15.5097L47.3757 15.4847L47.3708 15.4897L47.3409 15.4646L47.336 15.4697L47.3061 15.4446L47.3012 15.4496L47.2713 15.4246L47.2664 15.4296L47.2365 15.4045L47.0924 15.5748L47.0675 15.7251C47.0476 16.256 47.0227 16.807 47.0029 17.3579L46.8438 17.5733C46.6051 17.6284 46.3814 17.6835 46.1428 17.7386L46.0732 17.8538L45.9389 17.8087L45.5263 17.9289C44.5866 18.2545 43.6669 18.7654 42.7969 19.4415C42.1356 19.9374 41.5192 20.5334 40.9375 21.2096C40.4403 21.7856 39.978 22.4017 39.5653 23.0728C39.1527 23.744 38.7848 24.4302 38.4666 25.1715C38.1882 25.8226 37.9595 26.4888 37.7606 27.195C37.5468 27.9413 37.3977 28.7026 37.3181 29.4739L37.3579 29.7444L37.2684 29.8396L37.2286 30.3705L37.0695 30.5608C36.6271 30.6259 36.2045 30.686 35.762 30.7512C35.593 30.7762 35.5035 30.8513 35.4985 30.9766C35.4935 31.0667 35.5283 31.1168 35.588 31.1418C35.5979 31.1519 35.6129 31.1519 35.6228 31.1569C35.6328 31.1669 35.6477 31.1669 35.6576 31.1719C35.6676 31.1819 35.6825 31.1819 35.6924 31.1869C35.7024 31.1969 35.7173 31.1969 35.7272 31.2019C35.7372 31.212 35.7521 31.212 35.762 31.217C35.772 31.227 35.7869 31.227 35.7968 31.232C35.8068 31.242 35.8217 31.242 35.8316 31.247C35.8416 31.257 35.8565 31.257 35.8664 31.262C35.8764 31.2721 35.8913 31.2721 35.9012 31.2771C35.9112 31.2871 35.9261 31.2871 35.936 31.2921C35.946 31.3021 35.9609 31.3021 35.9708 31.3071C35.9808 31.3171 35.9957 31.3171 36.0056 31.3222C36.0156 31.3322 36.0305 31.3322 36.0404 31.3372C36.0504 31.3472 36.0653 31.3472 36.0752 31.3522C36.0852 31.3622 36.1001 31.3622 36.11 31.3672C36.12 31.3772 36.1349 31.3772 36.1448 31.3823C36.1548 31.3923 36.1697 31.3923 36.1796 31.3973C36.1896 31.4073 36.2045 31.4073 36.2144 31.4123C36.2244 31.4223 36.2393 31.4223 36.2492 31.4273C36.2592 31.4374 36.2741 31.4374 36.284 31.4424C36.294 31.4524 36.3089 31.4524 36.3188 31.4574C36.3288 31.4674 36.3437 31.4674 36.3536 31.4724C36.3636 31.4824 36.3785 31.4824 36.3884 31.4874C36.3984 31.4975 36.4133 31.4975 36.4232 31.5025C36.4332 31.5125 36.4481 31.5125 36.458 31.5175C36.468 31.5275 36.4829 31.5275 36.4928 31.5325C36.5028 31.5425 36.5177 31.5425 36.5276 31.5475C36.5376 31.5576 36.5525 31.5576 36.5624 31.5626C36.5724 31.5726 36.5873 31.5726 36.5972 31.5776C36.6072 31.5876 36.6221 31.5876 36.632 31.5926C36.642 31.6026 36.6569 31.6026 36.6668 31.6076C36.6768 31.6177 36.6917 31.6177 36.7016 31.6227C36.7116 31.6327 36.7265 31.6327 36.7365 31.6377C36.7464 31.6477 36.7613 31.6477 36.7713 31.6527C36.7812 31.6627 36.7961 31.6627 36.8061 31.6678C36.816 31.6778 36.8309 31.6778 36.8409 31.6828C36.8508 31.6928 36.8657 31.6928 36.8757 31.6978C36.8856 31.7078 36.9005 31.7078 36.9105 31.7128C36.9204 31.7228 36.9353 31.7228 36.9453 31.7279C36.9552 31.7379 36.9701 31.7379 36.9801 31.7429C36.99 31.7529 37.0049 31.7529 37.0149 31.7579C37.0248 31.7679 37.0397 31.7679 37.0497 31.7729C37.0596 31.783 37.0745 31.783 37.0845 31.788C37.0894 31.793 37.0944 31.793 37.0994 31.798C37.0994 31.8631 37.1044 31.9232 37.1044 31.9883L37.2038 32.0384L37.1242 32.3439C37.1889 32.8198 37.2187 33.3206 37.3181 33.7914C37.4474 34.3624 37.5965 34.9134 37.7606 35.4593C37.9694 36.1706 38.2826 36.7966 38.6505 37.3576C38.9339 37.8234 39.2571 38.2642 39.5951 38.6799C40.1619 39.3611 40.8331 39.897 41.5589 40.3178C41.7628 40.438 41.9716 40.5431 42.1854 40.6333C42.1953 40.6383 42.2052 40.6433 42.2152 40.6483C42.2301 40.6533 42.24 40.6583 42.25 40.6634C42.2649 40.6684 42.2748 40.6734 42.2848 40.6784C42.2997 40.6834 42.3096 40.6884 42.3196 40.6934C42.3345 40.6984 42.3444 40.7034 42.3544 40.7084C42.3693 40.7134 42.3792 40.7185 42.3892 40.7235C42.4041 40.7285 42.4141 40.7335 42.424 40.7385C42.4389 40.7435 42.4489 40.7485 42.4588 40.7535C42.4737 40.7585 42.4837 40.7635 42.4936 40.7685C42.5035 40.7735 42.5185 40.7786 42.5284 40.7836C42.5433 40.7886 42.5533 40.7936 42.5682 40.7986C42.5831 40.8036 42.593 40.8086 42.603 40.8136C42.6179 40.8186 42.6278 40.8236 42.6378 40.8286C42.6527 40.8337 42.6626 40.8387 42.6726 40.8437C42.6875 40.8487 42.6974 40.8537 42.7074 40.8587C42.7223 40.8637 42.7322 40.8687 42.7422 40.8737C42.7571 40.8787 42.767 40.8837 42.777 40.8887C42.7919 40.8938 42.8018 40.8988 42.8118 40.9038C42.8267 40.9088 42.8366 40.9138 42.8466 40.9188C42.8615 40.9238 42.8714 40.9288 42.8814 40.9338C42.8963 40.9388 42.9062 40.9438 42.9162 40.9489C42.9261 40.9539 42.941 40.9589 42.951 40.9639C42.9659 40.9689 42.9758 40.9739 42.9908 40.9789C43.0057 40.9839 43.0156 40.9889 43.0256 40.9939C43.0405 40.9989 43.0504 41.004 43.0604 41.009C43.0753 41.014 43.0852 41.019 43.0952 41.024C43.1101 41.029 43.12 41.034 43.1349 41.039C43.1498 41.044 43.1598 41.049 43.1697 41.054C43.1847 41.059 43.1946 41.0641 43.2045 41.0691C43.2195 41.0741 43.2294 41.0791 43.2393 41.0841C43.2543 41.0891 43.2642 41.0941 43.2741 41.0991C43.2891 41.1041 43.299 41.1091 43.3089 41.1141C43.3239 41.1191 43.3338 41.1242 43.3437 41.1292C43.3587 41.1342 43.3686 41.1392 43.3785 41.1442C43.3885 41.1492 43.4034 41.1542 43.4133 41.1592C43.4283 41.1642 43.4382 41.1692 43.4531 41.1742C43.468 41.1793 43.478 41.1843 43.4929 41.1893C43.5078 41.1943 43.5177 41.1993 43.5277 41.2043C43.5426 41.2093 43.5525 41.2143 43.5625 41.2193C43.5774 41.2243 43.5874 41.2293 43.5973 41.2343C43.6122 41.2394 43.6222 41.2444 43.6321 41.2494C43.647 41.2544 43.657 41.2594 43.6669 41.2644C43.6818 41.2694 43.6918 41.2744 43.7017 41.2794C43.7166 41.2844 43.7266 41.2894 43.7365 41.2945C43.7514 41.2995 43.7614 41.3045 43.7713 41.3095C43.7862 41.3145 43.7962 41.3195 43.8061 41.3245C43.816 41.3295 43.831 41.3345 43.8409 41.3395C43.8558 41.3445 43.8658 41.3495 43.8807 41.3546C43.8956 41.3596 43.9055 41.3646 43.9155 41.3696C43.9254 41.3746 43.9354 41.3796 43.9453 41.3846C44.5419 41.6551 45.1733 41.8304 45.8296 41.9155C45.8246 42.0207 45.8196 42.1259 45.8146 42.2311C45.8047 42.4665 45.7948 42.6969 45.7848 42.9323L45.9439 43.1627L45.9538 43.1427L45.9787 43.1777L45.9886 43.1577L46.0135 43.1927L46.0234 43.1727L46.0483 43.2078L46.0583 43.1877L46.0831 43.2228L46.0931 43.2028L46.1179 43.2378L46.1279 43.2178L46.1527 43.2528L46.1627 43.2328L46.1875 43.2679L46.1975 43.2478L46.2223 43.2829L46.2323 43.2629L46.2571 43.2979L46.2671 43.2779L46.2919 43.313L46.3019 43.2929L46.3267 43.328L46.3367 43.3079L46.3615 43.343L46.3715 43.323L46.3963 43.358L46.63 43.5784L46.6548 43.6135L46.6648 43.5934L46.6896 43.6285L46.6996 43.6085L46.7244 43.6435L46.7344 43.6235L46.7592 43.6586L46.7692 43.6385L46.7941 43.6736L46.804 43.6535L46.8289 43.6886L46.8388 43.6686L46.8637 43.7036L46.8736 43.6836L46.8985 43.7187L46.9084 43.6986L46.9333 43.7337L46.9432 43.7136L46.9681 43.7487L46.978 43.7287L47.0029 43.7637L47.0128 43.7437L47.0377 43.7788L47.0476 43.7587L47.0725 43.7938L47.0824 43.7738L47.1073 43.8088L47.1172 43.7888L47.1421 43.8238L47.152 43.8038L47.1769 43.8389L47.1868 43.8188L47.2117 43.8539L47.2216 43.8339L47.2465 43.8689L47.2564 43.8489L47.2813 43.8839L47.2912 43.8639L47.3161 43.899L47.326 43.8789L47.3509 43.914L47.3608 43.894L47.3857 43.929L47.3956 43.909L47.4205 43.944L47.4304 43.924L47.4553 43.9591L47.4652 43.939L47.4901 43.9741L47.5 43.9541L47.5249 43.9891L47.5348 43.9691L47.5597 44.0042L47.5696 43.9841L47.6591 44.0793L47.6691 44.0592L47.6939 44.0943L47.7088 44.0793L47.7337 44.1143L47.7436 44.0943L47.7685 44.1294L47.7784 44.1093L47.8033 44.1444L47.8132 44.1244L47.8381 44.1594L47.848 44.1394L47.8729 44.1744L47.8828 44.1544L47.9077 44.1895L47.9176 44.1694L47.9425 44.2045L47.9524 44.1845L47.9773 44.2195L47.9872 44.1995L48.0121 44.2346L48.1762 43.9791L48.1811 43.8539C48.201 43.323 48.2408 42.767 48.2458 42.2411L48.3701 42.0758C48.728 41.9806 49.1009 41.9055 49.4638 41.7903C50.1996 41.5599 50.9205 41.2243 51.6314 40.7836C52.3921 40.2927 53.1279 39.7017 53.814 38.9905C54.9575 37.8134 55.907 36.431 56.6329 34.8282C56.8715 34.2873 57.0654 33.7514 57.2742 33.1954C57.5825 32.2838 57.8012 31.3672 57.9056 30.4256L57.846 30.1802L57.9504 30.1C57.9951 29.8195 58.025 29.5391 58.0349 29.2435L58.1791 29.0733C58.6017 29.0131 59.0441 28.948 59.4866 28.8829L59.6209 28.8629L59.7451 28.6525L59.6557 28.4822ZM46.3118 21.5552C46.4858 21.455 46.6598 21.3649 46.8388 21.2797C46.8338 21.3448 46.8338 21.41 46.8289 21.4751L46.7244 21.6153C46.4212 21.6754 46.1229 21.7656 45.8246 21.8758C45.9886 21.7656 46.1477 21.6554 46.3118 21.5552ZM43.2692 28.0515L43.3288 27.8111L43.3636 27.7409H43.3785L43.5824 27.3302L43.5476 27.3352L43.6768 27.0397L43.6918 27.0598L43.7614 26.9446L43.8011 26.7693L43.8359 26.7242L43.995 26.4888H43.9801L44.0895 26.3235L44.1044 26.3435L44.2486 26.0881L44.3232 25.9729L44.358 25.9278L44.4822 25.7425H44.4972L44.6413 25.5121L44.6761 25.487C44.9048 25.2216 45.1186 24.9812 45.3473 24.7357L45.5064 24.5855L45.5263 24.5604L45.6854 24.4302C46.0284 24.1247 46.3764 23.8642 46.7394 23.6388C46.7145 24.2048 46.6946 24.7708 46.6747 25.3318L46.5156 25.5672C45.9538 25.7325 45.4318 26.038 44.9744 26.5288C44.4972 27.0197 44.1392 27.5757 43.8906 28.2468C43.7415 28.6475 43.6371 29.0833 43.5874 29.494L43.4631 29.6593C43.2393 29.6893 43.0156 29.7244 42.7919 29.7544C42.9013 29.1784 43.0554 28.6074 43.2692 28.0515ZM42.7521 31.3121C43.0802 31.2671 43.3984 31.217 43.7266 31.1719C43.8658 31.6928 44.0945 32.1536 44.4375 32.5393C44.6065 32.7196 44.7855 32.8698 44.9844 32.985C45.0888 33.0501 45.1982 33.1052 45.3075 33.1553C45.3224 33.1603 45.3324 33.1654 45.3423 33.1704C45.3573 33.1754 45.3672 33.1804 45.3771 33.1854C45.3921 33.1904 45.402 33.1954 45.4119 33.2004C45.4269 33.2054 45.4368 33.2104 45.4467 33.2154C45.4617 33.2204 45.4716 33.2255 45.4815 33.2305C45.4965 33.2355 45.5064 33.2405 45.5163 33.2455C45.5313 33.2505 45.5412 33.2555 45.5561 33.2605C45.571 33.2655 45.581 33.2705 45.5909 33.2755C45.6058 33.2806 45.6158 33.2856 45.6307 33.2906C45.6456 33.2956 45.6555 33.3006 45.6655 33.3056C45.6804 33.3106 45.6904 33.3156 45.7003 33.3206C45.7152 33.3256 45.7252 33.3306 45.7351 33.3356C45.75 33.3407 45.76 33.3457 45.7699 33.3507C45.7848 33.3557 45.7948 33.3607 45.8047 33.3657C45.8196 33.3707 45.8296 33.3757 45.8395 33.3807C45.8544 33.3857 45.8644 33.3907 45.8743 33.3958C45.8892 33.4008 45.8992 33.4058 45.9091 33.4108C45.924 33.4158 45.934 33.4208 45.9439 33.4258C45.9588 33.4308 45.9688 33.4358 45.9787 33.4408C45.9936 33.4458 46.0036 33.4508 46.0135 33.4559C46.0284 33.4609 46.0384 33.4659 46.0533 33.4709C46.0682 33.4759 46.0781 33.4809 46.0881 33.4859C46.103 33.4909 46.1129 33.4959 46.1229 33.5009C46.1378 33.5059 46.1477 33.511 46.1577 33.516C46.1726 33.521 46.1825 33.526 46.1925 33.531C46.2074 33.536 46.2173 33.541 46.2273 33.546C46.2422 33.551 46.2521 33.556 46.2621 33.561C46.277 33.566 46.2869 33.5711 46.2969 33.5761C46.2969 33.5761 46.2969 33.5761 46.3019 33.5761L46.2869 33.9567C46.2521 34.8282 46.2173 35.7198 46.1825 36.5913L46.0384 36.8017C45.581 36.8417 45.1385 36.8067 44.7109 36.7115L44.5369 36.5662L44.5916 36.4961L44.5469 36.4861L44.5518 36.4761L44.5071 36.4661L44.5121 36.4561L44.4673 36.446L44.4723 36.436L44.4276 36.426L44.4325 36.416L44.3878 36.406L44.3928 36.396L44.3679 36.3909L44.1193 36.1055L43.8459 35.7448V35.7248L43.6868 35.4944L43.5724 35.3441L43.4929 35.2089C43.1449 34.5828 42.9013 33.9016 42.7471 33.1653C42.6179 32.6144 42.5731 32.0284 42.5632 31.4424L42.7521 31.3121ZM46.0135 39.1057C45.8445 39.1107 45.6556 39.1557 45.4716 39.1407C45.1832 39.1407 44.8999 39.0956 44.6115 39.0756C44.4027 39.0456 44.1989 39.0005 43.995 38.9504C43.5575 38.6348 43.1499 38.2642 42.7919 37.8234C42.2947 37.2174 41.8821 36.5412 41.554 35.7649C41.3203 35.1939 41.1513 34.5828 41.0319 33.9467C41.0667 34.0268 41.0966 34.112 41.1363 34.1921C41.2457 34.4075 41.3551 34.5828 41.4694 34.7982L41.5042 34.8383L41.5838 34.9735L41.8373 35.3391C41.9616 35.5545 42.1058 35.7649 42.2848 35.9301C42.429 36.0804 42.593 36.2006 42.7621 36.3058C42.8615 36.3609 42.951 36.416 43.0454 36.4761C43.0653 36.4861 43.0802 36.4961 43.1001 36.5112C43.1946 36.5763 43.294 36.6364 43.3935 36.7015C43.4233 36.7165 43.4531 36.7315 43.4829 36.7466C43.5923 36.8117 43.7067 36.8718 43.821 36.9319C43.831 36.9369 43.8459 36.9419 43.8608 36.9469C43.8707 36.9519 43.8857 36.9569 43.8956 36.9619C43.9055 36.9669 43.9205 36.972 43.9304 36.977C43.9403 36.982 43.9553 36.987 43.9652 36.992C43.9751 36.997 43.9901 37.002 44 37.007C44.0099 37.012 44.0249 37.017 44.0348 37.022C44.0447 37.0271 44.0597 37.0321 44.0696 37.0371C44.0795 37.0421 44.0945 37.0471 44.1094 37.0521C44.1193 37.0571 44.1342 37.0621 44.1442 37.0671C44.1541 37.0721 44.169 37.0771 44.179 37.0821C44.1889 37.0872 44.2038 37.0922 44.2138 37.0972C44.2237 37.1022 44.2386 37.1072 44.2486 37.1122C44.2585 37.1172 44.2734 37.1222 44.2884 37.1272C44.2983 37.1322 44.3132 37.1372 44.3232 37.1423C44.3331 37.1473 44.348 37.1523 44.358 37.1573C44.3679 37.1623 44.3828 37.1673 44.3928 37.1723C44.4027 37.1773 44.4176 37.1823 44.4276 37.1873C44.4375 37.1923 44.4524 37.1973 44.4624 37.2024C44.4723 37.2074 44.4872 37.2124 44.4972 37.2174C44.5071 37.2224 44.522 37.2274 44.532 37.2324C44.5419 37.2374 44.5568 37.2424 44.5717 37.2474C44.5817 37.2524 44.5966 37.2574 44.6065 37.2625C44.6165 37.2675 44.6314 37.2725 44.6413 37.2775C44.6513 37.2825 44.6662 37.2875 44.6761 37.2925C44.6861 37.2975 44.701 37.3025 44.7109 37.3075C44.7209 37.3125 44.7358 37.3176 44.7507 37.3226C44.7607 37.3276 44.7756 37.3326 44.7855 37.3376C44.7955 37.3426 44.8104 37.3476 44.8203 37.3526C44.8303 37.3576 44.8452 37.3626 44.8551 37.3676C44.8651 37.3726 44.88 37.3777 44.8899 37.3827C44.8999 37.3877 44.9148 37.3927 44.9247 37.3977C44.9347 37.4027 44.9496 37.4077 44.9595 37.4127C44.9695 37.4177 44.9844 37.4227 44.9943 37.4277C45.0043 37.4328 45.0192 37.4378 45.0291 37.4428C45.0391 37.4478 45.054 37.4528 45.0639 37.4578C45.0739 37.4628 45.0888 37.4678 45.0987 37.4728C45.1087 37.4778 45.1236 37.4828 45.1335 37.4878C45.1435 37.4929 45.1584 37.4979 45.1733 37.5029C45.1832 37.5079 45.1982 37.5129 45.2081 37.5179C45.218 37.5229 45.233 37.5279 45.2429 37.5329C45.2528 37.5379 45.2678 37.5429 45.2777 37.548C45.2876 37.553 45.3026 37.558 45.3125 37.563C45.3225 37.568 45.3374 37.573 45.3473 37.578C45.3573 37.583 45.3722 37.588 45.3821 37.593C45.3921 37.598 45.407 37.6031 45.4169 37.6081C45.4269 37.6131 45.4418 37.6181 45.4517 37.6231C45.4617 37.6281 45.4766 37.6331 45.4865 37.6381C45.4965 37.6431 45.5114 37.6481 45.5263 37.6531C45.7102 37.7433 45.9041 37.8184 46.098 37.8785C46.0831 38.2041 46.0732 38.5246 46.0583 38.8452L46.0135 39.1057ZM46.5504 32.8899C46.5057 32.8949 46.456 32.8949 46.4112 32.8999C46.0036 32.3539 45.7749 31.5976 45.7997 30.7061C45.8594 28.7677 47.162 27.0297 48.6932 26.8093C48.7032 26.8093 48.7131 26.8043 48.723 26.8043C48.7728 26.7993 48.8175 26.7943 48.8672 26.7943C49.2749 27.3402 49.5086 28.1016 49.4738 28.9881C49.3942 30.9415 48.0966 32.6444 46.5504 32.8899ZM48.4148 38.3894C48.4148 38.3243 48.4198 38.2642 48.4247 38.2041L48.549 38.0588C48.8623 37.9987 49.1705 37.8986 49.4738 37.7834C49.1307 38.0138 48.7777 38.2141 48.4148 38.3894ZM52.1783 31.1118C52.064 31.4424 51.9347 31.7579 51.8204 32.0735C51.711 32.3239 51.6165 32.5693 51.4873 32.7947H51.4724L51.4525 32.8799L51.3083 33.1553L51.1989 33.2956L51.2138 33.3156L51.1045 33.5009L51.0895 33.4809L51.0349 33.5711L51.0498 33.5911L50.9404 33.7564V33.7363H50.9255L50.657 34.0719L50.6172 34.1821L50.5128 34.3224L50.478 34.3073L50.125 34.698L50.1549 34.7381L50.0505 34.8383L50.0008 34.8433L49.7522 35.1087H49.7671L49.6975 35.2039L49.5583 35.289L49.2103 35.5645C48.9816 35.7348 48.7479 35.8901 48.5142 36.0353C48.5341 35.4543 48.554 34.8733 48.5789 34.2923L48.7032 34.107C49.439 33.9167 50.0604 33.4909 50.6123 32.7797C51.179 32.0634 51.5171 31.237 51.6563 30.3104C51.701 30.0299 51.701 30.0299 51.9198 29.9999C52.1038 29.9748 52.2827 29.9498 52.4667 29.9197C52.3971 30.3204 52.3026 30.7211 52.1783 31.1118ZM52.5562 28.352L52.3374 28.3821C52.0789 28.4171 51.8154 28.4572 51.5519 28.4922C51.5221 28.3871 51.4922 28.2819 51.4574 28.1767C51.2437 27.5957 50.9255 27.1549 50.4979 26.8143C50.3985 26.7392 50.2941 26.6791 50.1847 26.624C50.1598 26.609 50.135 26.599 50.1101 26.5839C50.1002 26.5789 50.0853 26.5739 50.0753 26.5689C50.0654 26.5639 50.0505 26.5589 50.0405 26.5539C50.0306 26.5489 50.0157 26.5439 50.0057 26.5389C49.9958 26.5338 49.9809 26.5288 49.9709 26.5238C49.961 26.5188 49.9461 26.5138 49.9311 26.5088C49.9212 26.5038 49.9063 26.4988 49.8963 26.4938C49.8864 26.4888 49.8715 26.4838 49.8615 26.4788C49.8516 26.4737 49.8367 26.4687 49.8267 26.4637C49.8168 26.4587 49.8019 26.4537 49.7919 26.4487C49.782 26.4437 49.7671 26.4387 49.7571 26.4337C49.7472 26.4287 49.7323 26.4237 49.7223 26.4186C49.7124 26.4136 49.6975 26.4086 49.6826 26.4036C49.6726 26.3986 49.6577 26.3936 49.6478 26.3886C49.6378 26.3836 49.6229 26.3786 49.613 26.3736C49.603 26.3686 49.5881 26.3636 49.5782 26.3585C49.5682 26.3535 49.5533 26.3485 49.5434 26.3435C49.5334 26.3385 49.5185 26.3335 49.5086 26.3285C49.4986 26.3235 49.4837 26.3185 49.4688 26.3135C49.4588 26.3085 49.4439 26.3034 49.434 26.2984C49.424 26.2934 49.4091 26.2884 49.3992 26.2834C49.3892 26.2784 49.3743 26.2734 49.3644 26.2684C49.3544 26.2634 49.3395 26.2584 49.3296 26.2534C49.3196 26.2484 49.3047 26.2433 49.2948 26.2383C49.2848 26.2333 49.2699 26.2283 49.26 26.2233C49.25 26.2183 49.2351 26.2133 49.2252 26.2083C49.2152 26.2033 49.2003 26.1983 49.1904 26.1933C49.1804 26.1882 49.1655 26.1832 49.1556 26.1782C49.1456 26.1732 49.1307 26.1682 49.1208 26.1632C49.1108 26.1582 49.0959 26.1532 49.086 26.1482C49.076 26.1432 49.0611 26.1382 49.0462 26.1332C49.0363 26.1281 49.0213 26.1231 49.0114 26.1181C49.0015 26.1131 48.9865 26.1081 48.9766 26.1031C48.9716 26.0981 48.9667 26.0981 48.9617 26.0931C49.0015 25.0813 49.0611 24.0495 49.081 23.0428L49.2053 22.8775C49.6279 22.8475 50.0405 22.8625 50.4383 22.9376C50.4581 22.9526 50.478 22.9627 50.4929 22.9777L50.5128 22.9827C50.5178 22.9877 50.5277 22.9927 50.5327 22.9977L50.5526 23.0027C50.5576 23.0077 50.5675 23.0127 50.5725 23.0177L50.5874 23.0228L51.2437 23.764L51.4873 24.0245L51.5519 24.1197L51.5668 24.0996L51.5917 24.1347L51.5966 24.1297L51.7955 24.4202V24.4402C51.9645 24.881 52.1485 25.2967 52.3175 25.7375C52.5462 26.3786 52.6506 27.1048 52.6904 27.8361V28.3019L52.5562 28.352ZM53.8637 24.9261L53.8438 24.9511L53.8389 24.9461C53.8339 24.9311 53.8289 24.921 53.8239 24.911L53.819 24.916L53.6052 24.6255L53.4759 24.4753V24.4953L53.4113 24.4202L52.9937 23.9093L53.0285 23.8642L52.7202 23.5937V23.6088L52.6854 23.5787V23.5837L52.6258 23.5286L52.4816 23.3784C52.1435 23.1079 51.7856 22.9025 51.4077 22.7423C51.3928 22.7373 51.3829 22.7323 51.3729 22.7272C51.358 22.7222 51.3481 22.7172 51.3381 22.7122C51.3232 22.7072 51.3133 22.7022 51.3033 22.6972C51.2884 22.6922 51.2785 22.6872 51.2685 22.6822C51.2536 22.6772 51.2437 22.6721 51.2337 22.6671C51.2188 22.6621 51.2089 22.6571 51.1989 22.6521C51.184 22.6471 51.1741 22.6421 51.1641 22.6371C51.1492 22.6321 51.1393 22.6271 51.1293 22.6221C51.1144 22.6171 51.1045 22.612 51.0945 22.607C51.0796 22.602 51.0697 22.597 51.0597 22.592C51.0448 22.587 51.0348 22.582 51.0249 22.577C51.01 22.572 51 22.567 50.9851 22.562C50.9702 22.5569 50.9603 22.5519 50.9503 22.5469C50.9354 22.5419 50.9255 22.5369 50.9155 22.5319C50.9006 22.5269 50.8907 22.5219 50.8758 22.5169C50.8608 22.5119 50.8509 22.5069 50.841 22.5019C50.826 22.4968 50.8161 22.4918 50.8062 22.4868C50.7912 22.4818 50.7813 22.4768 50.7714 22.4718C50.7564 22.4668 50.7465 22.4618 50.7366 22.4568C50.7216 22.4518 50.7117 22.4468 50.7017 22.4417C50.6868 22.4367 50.6769 22.4317 50.6669 22.4267C50.652 22.4217 50.6421 22.4167 50.6321 22.4117C50.6172 22.4067 50.6073 22.4017 50.5973 22.3967C50.5824 22.3917 50.5725 22.3867 50.5625 22.3816C50.5476 22.3766 50.5377 22.3716 50.5228 22.3666C50.5079 22.3616 50.4979 22.3566 50.488 22.3516C50.4731 22.3466 50.4631 22.3416 50.4532 22.3366C50.4383 22.3316 50.4283 22.3265 50.4184 22.3215C50.4035 22.3165 50.3935 22.3115 50.3836 22.3065C50.3687 22.3015 50.3587 22.2965 50.3488 22.2915C50.3338 22.2865 50.3239 22.2815 50.314 22.2765C50.299 22.2715 50.2891 22.2664 50.2792 22.2614C50.2642 22.2564 50.2543 22.2514 50.2444 22.2464C50.2294 22.2414 50.2195 22.2364 50.2096 22.2314C50.1946 22.2264 50.1847 22.2214 50.1748 22.2164C50.1598 22.2113 50.1499 22.2063 50.14 22.2013C50.125 22.1963 50.1151 22.1913 50.1002 22.1863C50.0853 22.1813 50.0753 22.1763 50.0654 22.1713C50.0505 22.1663 50.0405 22.1613 50.0306 22.1563C50.0157 22.1512 50.0057 22.1462 49.9958 22.1412C49.9809 22.1362 49.9709 22.1312 49.961 22.1262C49.9461 22.1212 49.9361 22.1162 49.9212 22.1112C49.9063 22.1062 49.8963 22.1012 49.8864 22.0961C49.8715 22.0911 49.8615 22.0861 49.8516 22.0811C49.8367 22.0761 49.8267 22.0711 49.8168 22.0661C49.8019 22.0611 49.7919 22.0561 49.782 22.0511C49.7671 22.0461 49.7571 22.0411 49.7472 22.036C49.7323 22.031 49.7223 22.026 49.7124 22.021C49.6975 22.016 49.6875 22.011 49.6776 22.006C49.6627 22.001 49.6527 21.996 49.6378 21.991C49.4887 21.9259 49.3296 21.8708 49.1755 21.8257C49.1904 21.5051 49.2103 21.1846 49.2152 20.864L49.3743 20.6937L49.613 20.6587C49.8665 20.6637 50.135 20.6687 50.4084 20.6737C50.7316 20.6987 51.0498 20.7588 51.363 20.844C51.537 20.9642 51.711 21.0944 51.88 21.2347C52.4816 21.7806 52.9986 22.4267 53.4212 23.2081C53.7046 23.714 53.9383 24.2749 54.0974 24.8609C54.2018 25.2116 54.2863 25.5672 54.3509 25.9328C54.1322 25.5271 54.0029 25.2416 53.8637 24.9261Z" fill="url(#paint18_linear)"/>
<path d="M47.913 39.9822C47.744 39.9872 47.5551 40.0323 47.3711 40.0173C47.0828 40.0173 46.7994 39.9722 46.511 39.9522C45.636 39.822 44.8406 39.5164 44.0998 39.0306C43.6225 38.7 43.185 38.2943 42.7972 37.8235C42.3001 37.2174 41.8874 36.5413 41.5593 35.7649C41.1914 34.8684 40.9726 33.8867 40.8831 32.8449C40.8483 32.4892 40.8434 32.1136 40.8434 31.7329L40.9527 31.5676C41.3753 31.5075 41.783 31.4474 42.2106 31.3873L42.305 31.4975C42.2901 32.2588 42.3846 32.9651 42.5387 33.6613C42.668 34.1722 42.8221 34.633 43.0408 35.0687C43.1502 35.2841 43.2596 35.4594 43.3739 35.6748L43.4087 35.7148L43.4883 35.8501L43.7418 36.2157C43.8661 36.4311 44.0103 36.6414 44.1893 36.8067C44.3335 36.957 44.4975 37.0772 44.6666 37.1824C44.8803 37.2976 45.0792 37.4378 45.293 37.5781C45.7703 37.8485 46.2873 38.0489 46.8441 38.114C47.2319 38.144 47.6197 38.129 48.0075 38.139L48.1019 38.2743C48.0821 38.7852 48.0622 39.3161 48.0423 39.822L47.913 39.9822ZM47.9876 37.7383C47.2767 37.7984 46.5856 37.7083 45.9542 37.4178C45.6708 37.2876 45.4073 37.1373 45.1438 36.962L45.109 36.947L44.9599 36.8618L44.8754 36.8518L44.7908 36.8017L44.5771 36.6214L44.6318 36.5513L44.4975 36.5262L44.4627 36.5112L44.1744 36.1706L43.9009 35.81V35.79L43.7418 35.5596L43.6275 35.4093L43.5479 35.2741C43.1999 34.648 42.9563 33.9668 42.8022 33.2305C42.6729 32.6796 42.6282 32.0936 42.6182 31.5075L42.7425 31.3222C43.6076 31.197 44.4577 31.0768 45.3079 30.9516L45.472 31.1169C45.5018 32.0635 45.7951 32.8248 46.3271 33.4209C46.6502 33.7765 47.033 33.9969 47.4656 34.1221C47.6843 34.1772 47.918 34.1822 48.1368 34.1922L48.2511 34.3224L48.2262 34.8934C48.1914 35.7649 48.1566 36.6565 48.1218 37.528L47.9876 37.7383ZM48.5792 37.6532L48.45 37.523C48.5096 36.4611 48.5345 35.3793 48.5792 34.2974L48.7035 34.1121C49.4393 33.9217 50.0608 33.496 50.6126 32.7847C51.1794 32.0685 51.5175 31.2421 51.6567 30.3155C51.7014 30.035 51.7014 30.035 51.9202 30.0049C52.7355 29.8897 53.5509 29.7695 54.3662 29.6543L54.4955 29.8246C54.4308 30.5509 54.3016 31.2872 54.0729 31.9984C53.9585 32.329 53.8293 32.6445 53.7149 32.9601C53.6055 33.2105 53.5111 33.4559 53.3818 33.6813H53.3669L53.347 33.7665L53.2028 34.0419L53.0935 34.1822L53.1084 34.2022L52.999 34.3875L52.9841 34.3675L52.9294 34.4577L52.9443 34.4777L52.8349 34.643V34.6229H52.82L52.5516 34.9585L52.5118 35.0687L52.4024 35.209L52.3676 35.1939L52.0146 35.5846L52.0444 35.6247L51.94 35.7248L51.8903 35.7299L51.6417 35.9953H51.6567L51.5871 36.0905L51.4479 36.1756L51.0998 36.4561C50.543 36.8718 49.9564 37.2325 49.3399 37.4478C49.0913 37.513 48.8377 37.5731 48.5792 37.6532ZM53.5011 34.097L53.5608 33.8766L53.7099 33.5811C53.9038 33.3608 54.0182 33.0702 54.1325 32.7797C54.4905 31.8832 54.7142 30.9466 54.8186 29.9999L54.8435 29.7645L54.9976 29.5541C55.3705 29.499 55.7632 29.444 56.151 29.3889L56.2952 29.5592C56.1908 30.9666 55.8627 32.3239 55.3058 33.6462C54.744 34.9936 53.9884 36.1806 53.0736 37.1774C52.0494 38.2943 50.901 39.0957 49.6531 39.5665C49.2603 39.7068 48.8676 39.8069 48.4748 39.8821L48.3605 39.7719C48.3953 39.261 48.4201 38.7301 48.4251 38.1991L48.5494 38.0539C49.4343 37.8836 50.2795 37.4879 51.0949 36.8869L51.2888 36.7316L51.3236 36.7066L51.3932 36.6765L51.6765 36.3409L51.9052 36.1806L51.8704 36.1406L51.9052 36.1155L51.9202 36.1356L51.9898 36.1055L52.1638 35.9302L52.1141 35.8751L52.2185 35.7749L52.2881 35.785L52.3278 35.6748L52.4521 35.5495L52.4869 35.5896L52.7405 35.214L52.7753 35.1889L53.1531 34.648L53.2227 34.5729L53.1979 34.5628L53.4713 34.057L53.5011 34.097ZM44.1147 26.3486L44.2589 26.0931L44.3335 25.9779L44.3683 25.9329L44.4925 25.7475H44.5075L44.6516 25.5171L44.6864 25.4921C44.9151 25.2266 45.1289 24.9862 45.3576 24.7408L45.5167 24.5905L45.5366 24.5655L45.6957 24.4353C46.6254 23.6038 47.6247 23.0829 48.6985 22.8876L48.7035 23.138C48.6637 24.1798 48.624 25.1966 48.5792 26.2184L48.4201 26.4538C47.8583 26.6191 47.3363 26.9246 46.8789 27.4154C46.4017 27.9063 46.0437 28.4623 45.7951 29.1334C45.646 29.5341 45.5416 29.9699 45.4918 30.3806L45.3676 30.5459C44.5174 30.6661 43.6673 30.7913 42.8171 30.9115L42.6481 30.9165L42.7028 30.3405C42.8022 29.5642 42.9861 28.8028 43.2646 28.0666L43.3242 27.8261L43.359 27.756H43.3739L43.5778 27.3453L43.543 27.3503L43.6722 27.0548L43.6871 27.0748L43.7567 26.9596L43.7965 26.7843L43.8313 26.7393L43.9904 26.5039H43.9755L44.0849 26.3386L44.1147 26.3486ZM51.9251 29.5942L51.7064 29.6042C51.6915 29.0783 51.6119 28.6275 51.4578 28.1818C51.244 27.6008 50.9258 27.16 50.4983 26.8194C50.0856 26.5189 49.6183 26.3736 49.1311 26.3386C48.8974 26.3285 48.8974 26.3285 48.9074 26.0531C48.9471 25.0363 49.0068 23.9895 49.0316 22.9727L49.1559 22.8074C49.6978 22.7724 50.2199 22.8024 50.722 22.9427C51.3236 23.108 51.8506 23.3935 52.3427 23.7841L52.4074 23.7942L53.0885 24.5605L53.3321 24.8209L53.3967 24.9161L53.4166 24.8911L53.6403 25.2166V25.2367C53.8094 25.6774 53.9933 26.0931 54.1624 26.5339C54.3911 27.175 54.4955 27.9013 54.5352 28.6325V29.0984L54.4607 29.2136L54.2419 29.2436C53.4713 29.3738 52.6858 29.484 51.9251 29.5942ZM40.9478 31.172L40.8682 31.0568C40.9378 30.1201 41.092 29.2085 41.3654 28.2819C41.5643 27.5757 41.8278 26.8845 42.1559 26.2484C42.5785 25.3869 43.0657 24.6206 43.6325 23.9043C44.4329 22.9226 45.3228 22.1413 46.3122 21.5553C46.9535 21.1896 47.6197 20.9041 48.3058 20.7439L48.6985 20.6687L48.798 20.7589C48.7781 21.2898 48.7582 21.8207 48.7333 22.3516L48.6289 22.4919C47.7589 22.6572 46.9336 23.0328 46.1332 23.6289C45.9443 23.7641 45.7653 23.9144 45.5764 24.0696L45.4869 24.1648L45.3427 24.3351L45.2582 24.3902V24.4102L44.7809 24.881L44.7461 24.9061L44.3533 25.407L44.1048 25.7375L44.07 25.7826L44.0302 25.8928L43.9954 25.9629L43.9755 25.988L43.9606 25.9679L43.8711 26.1082L43.886 26.1282L43.8661 26.1532L43.7766 26.3135L43.7617 26.2935L43.5629 26.6391L43.5778 26.6591L43.543 26.7292L43.4137 26.9596H43.4286L43.3391 27.1199V27.0799L43.19 27.4154V27.4555L43.1701 27.4805L43.1353 27.5507C42.9315 28.0215 42.7624 28.4923 42.6381 28.9932C42.5337 29.494 42.4492 29.9899 42.3597 30.4908L42.3299 30.8564L42.2404 30.9966C41.8178 31.0467 41.3903 31.1068 40.9478 31.172ZM49.1858 22.4118L49.0565 22.2815C49.0913 21.7706 49.1162 21.2598 49.1162 20.7539L49.2753 20.5836L49.5139 20.5485C49.7674 20.5535 50.0359 20.5585 50.3093 20.5635C50.8662 20.6086 51.3981 20.7439 51.9351 20.9442C52.5665 21.1896 53.1432 21.5503 53.6851 22.001C54.2867 22.547 54.8037 23.1931 55.2263 23.9745C55.5097 24.4803 55.7433 25.0413 55.9024 25.6273C56.1262 26.3736 56.2654 27.1349 56.3002 27.9764L56.3499 28.4572L56.335 28.8179L56.2256 28.9832C55.803 29.0433 55.3754 29.1034 54.9678 29.1635L54.8534 29.0533C54.8634 27.9564 54.6993 26.9446 54.3463 26.0431C54.2071 25.6624 54.0381 25.3268 53.869 24.9311L53.8491 24.9562L53.6105 24.6306L53.4813 24.4803V24.5004L53.4166 24.4252L52.999 23.9144L53.0338 23.8693L52.7256 23.5988V23.6188L52.6261 23.5287L52.482 23.3784C51.5821 22.6622 50.548 22.3667 49.4145 22.3817L49.1858 22.4118ZM49.1211 16.2961L48.977 16.4664L48.9521 16.6167C48.9322 17.1476 48.9074 17.6986 48.8875 18.2495L48.7284 18.4649C48.4897 18.52 48.266 18.5751 48.0274 18.6302L47.9578 18.7454L47.8235 18.7003L47.4109 18.8205C46.4713 19.1461 45.5515 19.657 44.6815 20.3331C44.0202 20.829 43.4038 21.425 42.8221 22.1012C42.3249 22.6772 41.8626 23.2933 41.4499 23.9644C41.0323 24.6356 40.6694 25.3218 40.3512 26.0631C40.0728 26.7142 39.8441 27.3804 39.6452 28.0866C39.4314 28.8329 39.2823 29.5942 39.1978 30.3656L39.2375 30.636L39.148 30.7312L39.1083 31.2621L38.9492 31.4524C38.5067 31.5176 38.0841 31.5777 37.6416 31.6378C37.4726 31.6628 37.3831 31.7379 37.3781 31.8632C37.3732 32.0134 37.4527 32.0635 37.6267 32.0385C38.0692 31.9733 38.5117 31.9132 38.9492 31.8481L39.0784 31.9784C39.0635 32.3189 39.0884 32.6295 39.0884 32.9701L39.1878 33.0202L39.1083 33.3257C39.1729 33.8015 39.2027 34.3024 39.3022 34.7732C39.4314 35.3442 39.5806 35.8951 39.7446 36.4411C39.9534 37.1523 40.2667 37.7784 40.6346 38.3394C40.9179 38.8052 41.2411 39.246 41.5792 39.6617C42.1459 40.3429 42.8171 40.8788 43.543 41.2995C44.3335 41.7553 45.1886 42.0358 46.0934 42.136C46.3122 42.166 46.5458 42.1961 46.7646 42.2061C47.1524 42.1911 47.5252 42.1811 47.913 42.166L47.923 42.3564C47.9081 42.6769 47.8981 42.9925 47.8832 43.313C47.8733 43.5484 47.8633 43.7788 47.8534 44.0142L48.0125 44.2446L48.1765 43.9892L48.1815 43.864C48.2014 43.333 48.2412 42.7771 48.2461 42.2512L48.3704 42.0859C48.7284 41.9907 49.1012 41.9156 49.4642 41.8004C50.2 41.57 50.9209 41.2344 51.6318 40.7936C52.3925 40.3028 53.1283 39.7118 53.8144 39.0005C54.9578 37.8235 55.9074 36.4411 56.6333 34.8383C56.8719 34.2974 57.0658 33.7614 57.2696 33.2055C57.5779 32.2939 57.7966 31.3773 57.901 30.4357L57.8414 30.1902L57.9458 30.1101C57.9905 29.8296 58.0203 29.5491 58.0303 29.2536L58.1745 29.0833C58.5971 29.0232 59.0395 28.9581 59.482 28.893L59.6162 28.873L59.7405 28.6626L59.6312 28.4673L59.4969 28.4873C59.0544 28.5524 58.612 28.6125 58.1695 28.6776L58.0551 28.5474L58.0601 28.0215L57.9806 27.9514L58.0402 27.7109C57.9955 27.1049 57.9507 26.4988 57.8563 25.9028C57.6922 24.9111 57.389 24.0045 57.0012 23.153C56.6134 22.2815 56.1212 21.5252 55.5544 20.8691C55.1169 20.3632 54.6446 19.9425 54.1375 19.5969C53.3967 19.071 52.6013 18.7203 51.7462 18.525C50.9606 18.3197 50.1503 18.3096 49.3051 18.3697L49.1907 18.2395C49.2305 17.6836 49.2504 17.1326 49.2554 16.5816L49.2603 16.4113L49.1211 16.2961Z" fill="url(#paint19_linear)"/>
<path d="M33.778 18.2493L34.832 19.1058C34.832 19.1058 30.5862 22.5868 31.4065 31.5674C29.7709 29.7843 26.589 30.3803 17.3766 31.2618L16.7402 30.3252L19.2012 26.724C19.2012 26.724 23.0592 26.6989 26.0322 24.1645C29.0052 21.6301 30.7155 19.1909 30.7155 19.1909L33.778 18.2493Z" fill="url(#paint20_linear)"/>
<path d="M19.6838 27.7508L17.377 31.2569C19.1916 31.1718 30.7854 32.3338 31.6803 31.6276C31.6803 31.6276 31.0092 24.2748 34.8323 19.1008L31.3273 20.2178C31.3224 20.2228 26.2414 28.437 19.6838 27.7508Z" fill="url(#paint21_linear)"/>
<path d="M20.5586 30.3053C20.5238 30.666 20.2802 30.9414 20.0117 30.9164C19.7432 30.8914 19.5593 30.5758 19.5891 30.2152C19.6239 29.8546 19.8675 29.5791 20.136 29.6041C20.4045 29.6242 20.5934 29.9397 20.5586 30.3053Z" fill="url(#paint22_linear)"/>
<path d="M20.8022 33.8415C20.7674 34.2021 20.5238 34.4776 20.2553 34.4525C19.9869 34.4275 19.8029 34.1119 19.8328 33.7513C19.8676 33.3907 20.1112 33.1152 20.3796 33.1403C20.6481 33.1653 20.837 33.4758 20.8022 33.8415Z" fill="url(#paint23_linear)"/>
<path d="M24.0337 30.5407C23.9989 30.9013 23.7553 31.1768 23.4868 31.1517C23.2183 31.1267 23.0344 30.8112 23.0642 30.4505C23.099 30.0899 23.3426 29.8144 23.6111 29.8395C23.8795 29.8595 24.0685 30.1751 24.0337 30.5407Z" fill="url(#paint24_linear)"/>
<path d="M24.4668 34.102C24.432 34.4626 24.1884 34.7381 23.9199 34.713C23.6514 34.688 23.4675 34.3724 23.4973 34.0118C23.5271 33.6512 23.7757 33.3757 24.0442 33.4008C24.3127 33.4258 24.4966 33.7413 24.4668 34.102Z" fill="url(#paint25_linear)"/>
<path d="M27.584 30.7008C27.5492 31.0615 27.3056 31.3369 27.0371 31.3119C26.7686 31.2869 26.5847 30.9713 26.6145 30.6107C26.6493 30.2501 26.8929 29.9746 27.1614 29.9996C27.4298 30.0197 27.6188 30.3352 27.584 30.7008Z" fill="url(#paint26_linear)"/>
<path d="M28.2099 34.1818C28.1751 34.5424 27.9315 34.8179 27.6631 34.7929C27.3946 34.7678 27.2106 34.4523 27.2405 34.0916C27.2753 33.731 27.5189 33.4555 27.7874 33.4806C28.0558 33.5056 28.2447 33.8212 28.2099 34.1818Z" fill="url(#paint27_linear)"/>
<path d="M30.9492 30.6908C30.9144 31.0515 30.6708 31.3269 30.4023 31.3019C30.1338 31.2769 29.9499 30.9613 29.9797 30.6007C30.0145 30.2401 30.2581 29.9646 30.5266 29.9896C30.7951 30.0147 30.984 30.3302 30.9492 30.6908Z" fill="url(#paint28_linear)"/>
<path d="M63.2848 30.0799C63.255 30.3804 63.1009 30.6158 62.9418 30.6008C62.7827 30.5857 62.6733 30.3253 62.7032 30.0248C62.733 29.7242 62.8871 29.4888 63.0462 29.5039C63.2053 29.5189 63.3147 29.7743 63.2848 30.0799Z" fill="url(#paint29_linear)"/>
<path d="M65.1144 29.9546C65.0846 30.2551 64.9305 30.4905 64.7714 30.4755C64.6123 30.4605 64.5029 30.2 64.5327 29.8995C64.5626 29.599 64.7167 29.3636 64.8758 29.3786C65.0349 29.3936 65.1393 29.6541 65.1144 29.9546Z" fill="url(#paint30_linear)"/>
<path d="M66.382 29.8748C66.3522 30.1753 66.1981 30.4107 66.039 30.3957C65.8799 30.3807 65.7705 30.1202 65.8003 29.8197C65.8302 29.5192 65.9843 29.2838 66.1434 29.2988C66.3025 29.3138 66.4118 29.5692 66.382 29.8748Z" fill="url(#paint31_linear)"/>
<path d="M67.3322 29.7293C67.3024 30.0298 67.1482 30.2652 66.9892 30.2502C66.8301 30.2351 66.7207 29.9747 66.7505 29.6742C66.7803 29.3737 66.9345 29.1382 67.0936 29.1533C67.2526 29.1733 67.362 29.4287 67.3322 29.7293Z" fill="url(#paint32_linear)"/>
<path d="M68.1222 29.5286C68.0924 29.8291 67.9383 30.0645 67.7792 30.0495C67.6201 30.0345 67.5107 29.774 67.5406 29.4735C67.5704 29.173 67.7245 28.9376 67.8836 28.9526C68.0427 28.9676 68.1471 29.2231 68.1222 29.5286Z" fill="url(#paint33_linear)"/>
<path d="M63.8221 33.2604C63.8221 33.4708 63.7127 33.6461 63.5834 33.6461C63.4542 33.6461 63.3448 33.4708 63.3498 33.2604C63.3498 33.0501 63.4591 32.8748 63.5884 32.8748C63.7177 32.8748 63.8221 33.0501 63.8221 33.2604Z" fill="url(#paint34_linear)"/>
<path d="M65.2938 33.06C65.2938 33.2703 65.1844 33.4457 65.0551 33.4457C64.9258 33.4457 64.8165 33.2703 64.8215 33.06C64.8215 32.8496 64.9308 32.6743 65.0601 32.6743C65.1894 32.6743 65.2987 32.8446 65.2938 33.06Z" fill="url(#paint35_linear)"/>
<path d="M66.3177 32.9199C66.3177 33.1302 66.2083 33.3055 66.079 33.3055C65.9498 33.3055 65.8404 33.1302 65.8454 32.9199C65.8503 32.7095 65.9548 32.5342 66.084 32.5342C66.2133 32.5342 66.3177 32.7095 66.3177 32.9199Z" fill="url(#paint36_linear)"/>
<path d="M67.0784 32.7594C67.0784 32.9698 66.969 33.1451 66.8398 33.1451C66.7105 33.1451 66.6011 32.9698 66.6061 32.7594C66.6061 32.5491 66.7155 32.3738 66.8448 32.3738C66.974 32.3738 67.0784 32.5491 67.0784 32.7594Z" fill="url(#paint37_linear)"/>
<path d="M67.7044 32.5693C67.7044 32.7796 67.595 32.9549 67.4658 32.9549C67.3365 32.9549 67.2271 32.7796 67.2321 32.5693C67.2321 32.3589 67.3415 32.1836 67.4707 32.1836C67.6 32.1836 67.7044 32.3539 67.7044 32.5693Z" fill="url(#paint38_linear)"/>
<path d="M31.2129 34.2018C31.1781 34.5624 30.9345 34.8379 30.666 34.8129C30.3975 34.7878 30.2136 34.4723 30.2434 34.1117C30.2782 33.751 30.5218 33.4756 30.7903 33.5006C31.0587 33.5256 31.2477 33.8412 31.2129 34.2018Z" fill="url(#paint39_linear)"/>
<path d="M48.897 22.6417L48.9119 24.0041C48.9119 24.0041 50.4382 23.8288 51.2038 24.3297C51.9694 24.8305 52.9986 25.7722 53.267 26.7439C53.5355 27.7155 53.6001 29.4035 53.6001 29.4035L54.6989 29.1731L54.5795 27.5002L53.7741 25.2863L52.8643 24.1143L51.2834 22.8721L49.6775 22.6167L48.897 22.6417Z" fill="url(#paint40_linear)"/>
<path d="M42.5283 31.1565L43.8905 30.9011C43.8905 30.9011 44.0646 28.572 45.2677 26.7739C46.8337 24.4299 48.7279 24.0442 48.7279 24.0442L48.8373 22.772C48.8373 22.772 47.0525 22.9823 45.6455 24.3597C44.2386 25.7371 43.3138 27.5553 43.105 28.2114C42.8863 28.8675 42.5283 31.1565 42.5283 31.1565Z" fill="url(#paint41_linear)"/>
<path d="M42.564 31.2717C42.564 31.2717 42.6037 34.923 44.0455 36.3104C45.4873 37.6978 47.1428 37.8982 47.1428 37.8982L48.1869 37.833L48.2416 36.5508C48.2416 36.5508 45.7408 36.6059 44.8658 35.2035C43.9908 33.8061 43.9113 31.0413 43.9113 31.0413L42.564 31.2717Z" fill="url(#paint42_linear)"/>
<path d="M48.3945 36.5961C48.3945 36.5961 50.4031 36.0551 51.7355 33.8864C53.0679 31.7176 53.5601 30.4253 53.5799 29.5538C53.6048 28.6823 54.6091 29.4136 54.6091 29.4136C54.6091 29.4136 53.8385 36.9717 48.484 37.9133L48.3945 36.5961Z" fill="url(#paint43_linear)"/>
<defs>
<linearGradient id="paint0_linear" x1="87.615" y1="40.3352" x2="30.4174" y2="55.0966" gradientUnits="userSpaceOnUse">
<stop offset="0.00564817" stop-color="#ABABAB"/>
<stop offset="1" stop-color="#333333"/>
</linearGradient>
<linearGradient id="paint1_linear" x1="4.2947" y1="25.738" x2="39.0748" y2="26.7415" gradientUnits="userSpaceOnUse">
<stop offset="0.00564817" stop-color="#4A4A4A"/>
<stop offset="1"/>
</linearGradient>
<linearGradient id="paint2_linear" x1="46.7089" y1="10.6648" x2="53.2644" y2="18.4276" gradientUnits="userSpaceOnUse">
<stop offset="0.00564817" stop-color="#4A4A4A"/>
<stop offset="1"/>
</linearGradient>
<linearGradient id="paint3_linear" x1="56.6922" y1="23.4325" x2="29.1554" y2="34.774" gradientUnits="userSpaceOnUse">
<stop offset="0.00564817" stop-color="#4A4A4A"/>
<stop offset="1"/>
</linearGradient>
<linearGradient id="paint4_linear" x1="34.5431" y1="1.06848" x2="34.5431" y2="2.32896" gradientUnits="userSpaceOnUse">
<stop offset="0.00564817" stop-color="#ABABAB"/>
<stop offset="1" stop-color="#C4C4C4"/>
</linearGradient>
<linearGradient id="paint5_linear" x1="17.7509" y1="7.20566" x2="18.1947" y2="8.45948" gradientUnits="userSpaceOnUse">
<stop offset="0.00564817" stop-color="#4A4A4A"/>
<stop offset="1"/>
</linearGradient>
<linearGradient id="paint6_linear" x1="51.4391" y1="4.24998" x2="51.1417" y2="5.09001" gradientUnits="userSpaceOnUse">
<stop offset="0.00564817" stop-color="#4A4A4A"/>
<stop offset="1"/>
</linearGradient>
<linearGradient id="paint7_linear" x1="37.5387" y1="8.03275" x2="37.2004" y2="9.84404" gradientUnits="userSpaceOnUse">
<stop offset="0.00564817" stop-color="#4A4A4A"/>
<stop offset="1"/>
</linearGradient>
<linearGradient id="paint8_linear" x1="43.8289" y1="52.0185" x2="44.2928" y2="58.6962" gradientUnits="userSpaceOnUse">
<stop offset="0.00564817" stop-color="#ABABAB"/>
<stop offset="1" stop-color="#C4C4C4"/>
</linearGradient>
<linearGradient id="paint9_linear" x1="64.0731" y1="34.5898" x2="66.3241" y2="34.3118" gradientUnits="userSpaceOnUse">
<stop offset="0.00564817" stop-color="#ABABAB"/>
<stop offset="1" stop-color="#333333"/>
</linearGradient>
<linearGradient id="paint10_linear" x1="63.7686" y1="36.6857" x2="66.2485" y2="36.3794" gradientUnits="userSpaceOnUse">
<stop offset="0.00564817" stop-color="#ABABAB"/>
<stop offset="1" stop-color="#C4C4C4"/>
</linearGradient>
<linearGradient id="paint11_linear" x1="63.5989" y1="24.4224" x2="65.5842" y2="24.1771" gradientUnits="userSpaceOnUse">
<stop offset="0.00564817" stop-color="#ABABAB"/>
<stop offset="1" stop-color="#C4C4C4"/>
</linearGradient>
<linearGradient id="paint12_linear" x1="41.1418" y1="49.5172" x2="50.9695" y2="7.36358" gradientUnits="userSpaceOnUse">
<stop offset="0.00564817" stop-color="#ABABAB"/>
<stop offset="1" stop-color="#333333"/>
</linearGradient>
<linearGradient id="paint13_linear" x1="49.6033" y1="50.4418" x2="46.3715" y2="20.7798" gradientUnits="userSpaceOnUse">
<stop offset="0.00564817" stop-color="#ABABAB"/>
<stop offset="1" stop-color="#C4C4C4"/>
</linearGradient>
<linearGradient id="paint14_linear" x1="54.2643" y1="8.70284" x2="51.9817" y2="44.1439" gradientUnits="userSpaceOnUse">
<stop offset="0.00564817" stop-color="#ABABAB"/>
<stop offset="1" stop-color="#333333"/>
</linearGradient>
<linearGradient id="paint15_linear" x1="46.6967" y1="29.936" x2="49.9401" y2="5.20036" gradientUnits="userSpaceOnUse">
<stop offset="0.00564817" stop-color="#ABABAB"/>
<stop offset="1" stop-color="#333333"/>
</linearGradient>
<linearGradient id="paint16_linear" x1="16.4851" y1="33.3274" x2="31.7715" y2="33.725" gradientUnits="userSpaceOnUse">
<stop offset="0.00564817" stop-color="#ABABAB"/>
<stop offset="1" stop-color="#333333"/>
</linearGradient>
<linearGradient id="paint17_linear" x1="17.3728" y1="37.2634" x2="37.1185" y2="38.1316" gradientUnits="userSpaceOnUse">
<stop offset="0.00564817" stop-color="#ABABAB"/>
<stop offset="1" stop-color="#C4C4C4"/>
</linearGradient>
<linearGradient id="paint18_linear" x1="60.0264" y1="26.4806" x2="44.9221" y2="30.5088" gradientUnits="userSpaceOnUse">
<stop offset="0.00564817" stop-color="#ABABAB"/>
<stop offset="1" stop-color="#333333"/>
</linearGradient>
<linearGradient id="paint19_linear" x1="60.1997" y1="27.1291" x2="45.0954" y2="31.1573" gradientUnits="userSpaceOnUse">
<stop offset="0.0291" stop-color="white"/>
<stop offset="1" stop-color="#E8E8E8"/>
</linearGradient>
<linearGradient id="paint20_linear" x1="16.8909" y1="24.5278" x2="34.9238" y2="24.9969" gradientUnits="userSpaceOnUse">
<stop offset="0.00564817" stop-color="#ABABAB"/>
<stop offset="1" stop-color="#333333"/>
</linearGradient>
<linearGradient id="paint21_linear" x1="26.3583" y1="25.47" x2="28.1324" y2="27.4452" gradientUnits="userSpaceOnUse">
<stop offset="0.00564817" stop-color="#ABABAB"/>
<stop offset="1" stop-color="#C4C4C4"/>
</linearGradient>
<linearGradient id="paint22_linear" x1="19.8643" y1="30.0302" x2="20.4332" y2="30.6487" gradientUnits="userSpaceOnUse">
<stop offset="0.00564817" stop-color="#ABABAB"/>
<stop offset="1" stop-color="#333333"/>
</linearGradient>
<linearGradient id="paint23_linear" x1="20.1049" y1="33.5681" x2="20.6739" y2="34.1865" gradientUnits="userSpaceOnUse">
<stop offset="0.00564817" stop-color="#ABABAB"/>
<stop offset="1" stop-color="#333333"/>
</linearGradient>
<linearGradient id="paint24_linear" x1="23.3396" y1="30.2659" x2="23.9086" y2="30.8843" gradientUnits="userSpaceOnUse">
<stop offset="0.00564817" stop-color="#ABABAB"/>
<stop offset="1" stop-color="#333333"/>
</linearGradient>
<linearGradient id="paint25_linear" x1="23.769" y1="33.8315" x2="24.338" y2="34.45" gradientUnits="userSpaceOnUse">
<stop offset="0.00564817" stop-color="#ABABAB"/>
<stop offset="1" stop-color="#333333"/>
</linearGradient>
<linearGradient id="paint26_linear" x1="26.887" y1="30.4259" x2="27.456" y2="31.0444" gradientUnits="userSpaceOnUse">
<stop offset="0.00564817" stop-color="#ABABAB"/>
<stop offset="1" stop-color="#333333"/>
</linearGradient>
<linearGradient id="paint27_linear" x1="27.5155" y1="33.9104" x2="28.0845" y2="34.5288" gradientUnits="userSpaceOnUse">
<stop offset="0.00564817" stop-color="#ABABAB"/>
<stop offset="1" stop-color="#333333"/>
</linearGradient>
<linearGradient id="paint28_linear" x1="30.2547" y1="30.4196" x2="30.8237" y2="31.038" gradientUnits="userSpaceOnUse">
<stop offset="0.00564817" stop-color="#ABABAB"/>
<stop offset="1" stop-color="#333333"/>
</linearGradient>
<linearGradient id="paint29_linear" x1="62.8589" y1="29.9003" x2="63.3055" y2="30.2532" gradientUnits="userSpaceOnUse">
<stop offset="0.00564817" stop-color="#ABABAB"/>
<stop offset="1" stop-color="#333333"/>
</linearGradient>
<linearGradient id="paint30_linear" x1="64.6868" y1="29.7782" x2="65.1334" y2="30.1312" gradientUnits="userSpaceOnUse">
<stop offset="0.00564817" stop-color="#ABABAB"/>
<stop offset="1" stop-color="#333333"/>
</linearGradient>
<linearGradient id="paint31_linear" x1="65.9553" y1="29.6938" x2="66.4019" y2="30.0468" gradientUnits="userSpaceOnUse">
<stop offset="0.00564817" stop-color="#ABABAB"/>
<stop offset="1" stop-color="#333333"/>
</linearGradient>
<linearGradient id="paint32_linear" x1="66.9055" y1="29.5522" x2="67.352" y2="29.9052" gradientUnits="userSpaceOnUse">
<stop offset="0.00564817" stop-color="#ABABAB"/>
<stop offset="1" stop-color="#333333"/>
</linearGradient>
<linearGradient id="paint33_linear" x1="67.6951" y1="29.3471" x2="68.1417" y2="29.7001" gradientUnits="userSpaceOnUse">
<stop offset="0.00564817" stop-color="#ABABAB"/>
<stop offset="1" stop-color="#333333"/>
</linearGradient>
<linearGradient id="paint34_linear" x1="63.4506" y1="33.142" x2="63.8015" y2="33.4087" gradientUnits="userSpaceOnUse">
<stop offset="0.00564817" stop-color="#ABABAB"/>
<stop offset="1" stop-color="#333333"/>
</linearGradient>
<linearGradient id="paint35_linear" x1="64.9251" y1="32.9405" x2="65.276" y2="33.2073" gradientUnits="userSpaceOnUse">
<stop offset="0.00564817" stop-color="#ABABAB"/>
<stop offset="1" stop-color="#333333"/>
</linearGradient>
<linearGradient id="paint36_linear" x1="65.9481" y1="32.8009" x2="66.299" y2="33.0676" gradientUnits="userSpaceOnUse">
<stop offset="0.00564817" stop-color="#ABABAB"/>
<stop offset="1" stop-color="#333333"/>
</linearGradient>
<linearGradient id="paint37_linear" x1="66.7083" y1="32.6419" x2="67.0592" y2="32.9086" gradientUnits="userSpaceOnUse">
<stop offset="0.00564817" stop-color="#ABABAB"/>
<stop offset="1" stop-color="#333333"/>
</linearGradient>
<linearGradient id="paint38_linear" x1="67.3339" y1="32.4492" x2="67.6848" y2="32.716" gradientUnits="userSpaceOnUse">
<stop offset="0.00564817" stop-color="#ABABAB"/>
<stop offset="1" stop-color="#333333"/>
</linearGradient>
<linearGradient id="paint39_linear" x1="30.517" y1="33.9304" x2="31.0859" y2="34.5488" gradientUnits="userSpaceOnUse">
<stop offset="0.00564817" stop-color="#ABABAB"/>
<stop offset="1" stop-color="#333333"/>
</linearGradient>
<linearGradient id="paint40_linear" x1="59.3307" y1="23.8719" x2="44.2264" y2="27.9001" gradientUnits="userSpaceOnUse">
<stop offset="0.0291" stop-color="white"/>
<stop offset="1" stop-color="#E8E8E8"/>
</linearGradient>
<linearGradient id="paint41_linear" x1="59.1905" y1="23.3462" x2="44.0862" y2="27.3745" gradientUnits="userSpaceOnUse">
<stop offset="0.0291" stop-color="white"/>
<stop offset="1" stop-color="#E8E8E8"/>
</linearGradient>
<linearGradient id="paint42_linear" x1="61.0483" y1="30.3087" x2="45.9439" y2="34.337" gradientUnits="userSpaceOnUse">
<stop offset="0.0291" stop-color="white"/>
<stop offset="1" stop-color="#E8E8E8"/>
</linearGradient>
<linearGradient id="paint43_linear" x1="61.1851" y1="30.8265" x2="46.0809" y2="34.8548" gradientUnits="userSpaceOnUse">
<stop offset="0.0291" stop-color="white"/>
<stop offset="1" stop-color="#E8E8E8"/>
</linearGradient>
</defs>
</svg>
