<svg width="336" height="67" viewBox="0 0 336 67" fill="none" xmlns="http://www.w3.org/2000/svg">
    <mask id="mask0" mask-type="alpha" maskUnits="userSpaceOnUse" x="0" y="0" width="336" height="68">
        <rect width="336" height="67.6183" fill="#C4C4C4"/>
    </mask>
    <g mask="url(#mask0)">
        <path opacity="0.33"
              d="M340.667 153.276C337.569 178.038 319.715 173.918 316.891 202.705C315.882 212.981 323.5 219.44 327.278 228.334C331.469 238.17 329.985 247.002 324.324 253.743H13.9027C7.03999 250.648 0.493307 247.36 -5.20843 243.405C-13.0535 237.971 -19.2635 231.278 -22.4304 222.095C-25.2881 213.8 -27.4933 205.8 -19.9848 199.506C-15.9112 196.087 -11.6658 193.446 -7.97686 190.275C-5.20156 187.895 -2.74913 185.213 -0.894346 181.663C12.6387 155.669 -4.72069 132.764 -11.0956 106.757C-11.7139 104.232 -12.2772 101.673 -12.7237 99.1146C-13.8915 92.5938 -14.4342 85.9698 -13.7404 79.5247C-13.1153 73.6229 -11.446 67.845 -8.29973 62.411C-3.5666 54.26 8.69556 42.2295 21.8714 44.5269C31.7704 46.2534 38.0011 55.7595 46.9453 59.1987C58.2113 63.5322 70.707 60.0654 79.1497 53.696C95.568 41.3078 106.085 17.7696 134.141 19.9226C143.655 20.6517 150.078 28.1768 158.418 31.6229C169.883 36.3691 181.197 36.3347 192.154 31.7192C204.76 26.409 213.401 16.5384 225.78 10.8912C229.833 9.04085 234.244 7.42441 238.846 6.18628C248.8 3.48992 259.689 2.53381 269.952 4.61111C272.129 5.05133 274.19 5.5741 276.148 6.18628C310.468 16.7654 312.09 51.4261 310.475 76.7114C309.733 88.2947 300.473 108.277 307.315 120.252C314.157 132.228 343.662 129.332 340.667 153.276Z"
              fill="#B8E5FF"/>
        <path d="M58.2763 60.7776H27.6584V117.072H58.2763V60.7776Z" fill="#94D5FF"/>
        <path d="M55.6828 65.0298H30.2498V76.0911H55.6828V65.0298Z" fill="#B8E5FF"/>
        <path d="M59.1777 59.8511H26.7534V61.9756H59.1777V59.8511Z" fill="#B8E5FF"/>
        <path d="M38.8336 22.4642C38.4661 21.4483 39.232 20.139 40.2325 19.4812C40.8995 19.0427 41.6746 18.7586 42.0884 18.1812C42.0482 18.9439 41.8506 19.6109 41.3411 20.3366C40.7852 21.1333 39.9299 21.9578 38.8336 22.4642Z"
              fill="#94D5FF"/>
        <path d="M38.8305 22.813C38.9726 22.2541 38.3828 21.7229 38.006 21.4203C37.6262 21.1115 37.2031 20.8521 36.8727 20.5093C36.147 19.762 36.1192 18.3106 36.9406 17.5232C36.709 17.7208 37.0703 18.3909 37.1815 18.5639C37.4409 18.9653 37.8454 19.2648 38.1882 19.6138C38.9911 20.4352 39.127 21.6426 38.8305 22.813Z"
              fill="#B8E5FF"/>
        <path d="M39.0374 21.7448C38.8521 21.2321 39.3863 20.6145 39.726 20.2532C40.0688 19.8889 40.4579 19.5615 40.7512 19.1724C41.3905 18.3263 41.3009 16.9305 40.4394 16.3191C40.6802 16.4704 40.3869 17.1776 40.2942 17.3628C40.075 17.7952 39.7044 18.1534 39.4018 18.5517C38.6854 19.4812 38.6514 20.6701 39.0374 21.7448Z"
              fill="#B8E5FF"/>
        <path d="M38.7375 21.6086C38.5553 21.5654 38.3762 21.3214 38.2897 21.1917C38.1199 20.9416 38.0242 20.6637 37.9748 20.3765C37.8543 19.6508 38.0736 18.9436 38.1075 18.2427C38.1322 17.6992 38.0983 17.1557 37.913 16.6585C37.8204 16.4084 37.6629 16.2046 37.5239 15.9822C37.5116 15.9637 37.7493 16.0378 37.7648 16.044C39.2131 16.6986 39.5188 18.0419 39.2439 19.4192C39.1575 19.8484 39.0988 20.2715 38.9629 20.7038C38.8765 20.9756 38.6665 21.3369 38.7375 21.6086Z"
              fill="#94D5FF"/>
        <path d="M40.7477 25.2557H37.7616L36.7827 22.1306H41.7266L40.7477 25.2557Z" fill="#B8E5FF"/>
        <path d="M40.893 25.4904H37.6073L37.5857 24.9963H40.9115L40.893 25.4904Z" fill="#94D5FF"/>
        <path d="M41.8165 22.5011H36.6811L36.5823 21.5129H41.9122L41.8165 22.5011Z" fill="#94D5FF"/>
        <path d="M59.3254 19.5028L59.6805 20.2254C59.8133 20.4941 60.0696 20.6824 60.3691 20.7257L61.1658 20.843C61.9162 20.9511 62.2157 21.8744 61.6723 22.4025L61.0948 22.9645C60.8786 23.1745 60.7798 23.4771 60.8323 23.7736L60.9682 24.5672C61.0948 25.3145 60.3135 25.8827 59.6434 25.5306L58.9301 25.157C58.6645 25.018 58.3464 25.018 58.0809 25.157L57.3675 25.5306C56.6974 25.8827 55.9131 25.3145 56.0428 24.5672L56.1786 23.7736C56.2281 23.4771 56.1323 23.1745 55.9162 22.9645L55.3387 22.4025C54.7952 21.8744 55.0948 20.9542 55.8451 20.843L56.6419 20.7257C56.9383 20.6824 57.1977 20.4941 57.3305 20.2254L57.6856 19.5028C58.0222 18.8265 58.9918 18.8265 59.3254 19.5028Z"
              fill="#94D5FF"/>
        <path d="M50.8025 13.4937H47.5261V25.5617H50.8025V13.4937Z" fill="#94D5FF"/>
        <path d="M52.5814 15.0715H50.7131V25.5647H52.5814V15.0715Z" fill="#50BCFF"/>
        <path d="M47.591 17.7302H44.8396V25.5615H47.591V17.7302Z" fill="#B8E5FF"/>
        <path opacity="0.68" d="M47.591 18.9285H44.8396V19.8363H47.591V18.9285Z" fill="#94D5FF"/>
        <path opacity="0.68" d="M47.591 23.7087H44.8396V24.6166H47.591V23.7087Z" fill="#94D5FF"/>
        <path d="M54.7273 14.3828H52.4175V25.5646H54.7273V14.3828Z" fill="#94D5FF"/>
        <path d="M54.116 17.7705H53.0259V22.7793H54.116V17.7705Z" fill="#B8E5FF"/>
        <path d="M57.1426 32.8777H59.0757V28.187H57.1426V32.8777Z" fill="#94D5FF"/>
        <path d="M55.8855 29.1064H60.3323V27.757H55.8855V29.1064Z" fill="#94D5FF"/>
        <path d="M37.884 32.8777H39.8171V28.187H37.884V32.8777Z" fill="#94D5FF"/>
        <path d="M36.6304 29.1064H41.0771V27.757H36.6304V29.1064Z" fill="#94D5FF"/>
        <path d="M33.3142 27.9792L63.6479 27.9792V25.444L33.3142 25.444V27.9792Z" fill="#B8E5FF"/>
        <path d="M24.7183 40.1462H22.7482C22.6772 40.1462 22.6185 40.1895 22.5938 40.2574L19.0703 46.2019C19.0271 46.3285 19.1228 46.4705 19.2525 46.4705H22.6802C22.7513 46.4705 22.8099 46.4273 22.8346 46.3594L24.8974 40.4149C24.9469 40.2914 24.848 40.1462 24.7183 40.1462Z"
              fill="#94D5FF"/>
        <path d="M20.8833 37.7686H31.2529L32.6518 46.4861H22.2822L20.8833 37.7686Z" fill="#50BCFF"/>
        <path d="M21.2473 37.7686H31.6138L33.0127 46.4861H22.6462L21.2473 37.7686Z" fill="#94D5FF"/>
        <path d="M22.1953 38.5715H30.9252L32.0647 45.6802H23.3348L22.1953 38.5715Z" fill="white"/>
        <path d="M23.6589 39.9365H29.8998L30.6008 44.3153H24.3599L23.6589 39.9365Z" fill="#94D5FF"/>
        <path d="M40.4855 43.4815C40.4855 44.5994 39.8555 45.569 38.9291 46.0538C38.9106 46.0662 38.8921 46.0755 38.8735 46.0816C38.4845 46.2793 38.046 46.3874 37.5797 46.3874C36.681 46.3874 35.8751 45.9766 35.3408 45.3312C35.2976 45.2818 35.2575 45.2293 35.2204 45.1738C34.8745 44.6982 34.6738 44.1146 34.6738 43.4815C34.6738 42.0394 35.7299 40.8413 37.1072 40.6158C37.1535 40.6066 37.1998 40.6004 37.2462 40.5942C37.3542 40.5819 37.4654 40.5757 37.5797 40.5757C39.0434 40.5757 40.2539 41.6596 40.4546 43.0677C40.4639 43.1264 40.4701 43.1851 40.4762 43.2437C40.4824 43.3209 40.4855 43.4012 40.4855 43.4815Z"
              fill="#94D5FF"/>
        <path d="M37.0609 43.6699C36.7861 44.1208 36.4341 44.5407 36.0357 44.8897C35.8288 45.0688 35.5972 45.2325 35.3409 45.3313C35.2977 45.2819 35.2575 45.2294 35.2205 45.1738C35.5787 45.0194 35.8906 44.7662 36.1685 44.4852C36.5545 44.093 36.8942 43.6514 37.132 43.1511C37.379 42.6292 37.4932 42.0363 37.4068 41.4589C37.3666 41.1995 37.2864 40.9432 37.1628 40.7116C37.1474 40.6807 37.1289 40.6467 37.1072 40.6159C37.1536 40.6066 37.1999 40.6004 37.2462 40.5942C37.2802 40.6498 37.308 40.7054 37.3327 40.7548C37.7959 41.6936 37.589 42.8053 37.0609 43.6699Z"
              fill="#B8E5FF"/>
        <path d="M40.4762 43.2436C40.3496 43.3332 40.2323 43.4351 40.118 43.5432C39.4325 44.2009 39.0156 45.1119 38.9291 46.0538C38.9106 46.0661 38.8921 46.0754 38.8735 46.0815C38.9106 45.0934 39.3182 44.1423 40.0192 43.4413C40.1551 43.3054 40.3002 43.1819 40.4546 43.0676C40.4639 43.1263 40.47 43.185 40.4762 43.2436Z"
              fill="#B8E5FF"/>
        <path d="M38.8096 53.6792H40.7427V48.9885H38.8096V53.6792Z" fill="#94D5FF"/>
        <path d="M37.5525 49.9077H41.9993V48.5582H37.5525V49.9077Z" fill="#94D5FF"/>
        <path d="M19.5515 53.6792H21.4846V48.9885H19.5515V53.6792Z" fill="#94D5FF"/>
        <path d="M18.2949 49.9077H22.7417V48.5582H18.2949V49.9077Z" fill="#94D5FF"/>
        <path d="M14.9825 48.7808L45.3162 48.7808V46.2455H14.9825V48.7808Z" fill="#B8E5FF"/>
        <path d="M118.894 6.27393H71.854V37.392H118.894V6.27393Z" fill="#FFD245"/>
        <path d="M80.7322 36.9255C80.7075 37.0398 80.8465 44.5128 80.8465 44.5128L84.8701 36.9657L80.7322 36.9255Z"
              fill="#FFD245"/>
        <path d="M117.696 7.63696H73.0522V36.0345H117.696V7.63696Z" fill="white"/>
        <path opacity="0.4"
              d="M117.696 30.8984H79.9043C79.4009 30.8984 78.9902 30.4907 78.9902 29.9843V7.63623H117.696V30.8984Z"
              fill="#50BCFF"/>
        <path opacity="0.83"
              d="M117.696 29.0325H82.0878C81.7944 29.0325 81.5566 28.7947 81.5566 28.5013V7.6355H117.696V29.0325Z"
              fill="white"/>
        <g opacity="0.36">
            <path opacity="0.36"
                  d="M114.969 13.5489C114.531 13.1629 113.663 13.2833 113.086 13.271C111.353 13.2308 109.621 13.2123 107.885 13.2216C107.79 13.2216 107.703 13.2833 107.703 13.3667C107.688 14.605 107.731 15.8402 107.83 17.0754C107.116 16.1984 106.344 15.34 105.433 14.6019C105.384 14.5618 105.282 14.6143 105.328 14.6668C106.199 15.6395 107.104 16.5814 107.879 17.6066C107.956 17.7085 108.188 17.6838 108.179 17.5448C108.083 16.2046 108.04 14.8613 108.061 13.518C109.436 13.5273 110.813 13.5427 112.187 13.5674C112.866 13.5798 113.555 13.5674 114.234 13.6138C114.994 13.6663 114.83 14.2622 115.016 14.6946C115.053 14.781 115.185 14.781 115.229 14.6977C115.402 14.3487 115.287 13.8299 114.969 13.5489Z"
                  fill="#004DBE"/>
            <path opacity="0.36"
                  d="M114.697 16.0904C114.484 16.2911 114.219 16.7481 113.811 16.6462C113.576 16.5875 113.515 16.3127 113.44 16.149C113.357 15.9668 113.274 15.7846 113.19 15.6024C113.15 15.5129 112.986 15.4666 112.919 15.5685C112.801 15.7445 112.675 15.9174 112.526 16.078C112.421 16.1923 112.156 16.5258 111.94 16.4517C111.767 16.393 111.702 16.1181 111.68 15.9607C111.798 15.7352 111.856 15.4913 111.813 15.235C111.795 15.1331 111.588 15.1053 111.535 15.201C111.409 15.4326 111.353 15.6735 111.375 15.9236C111.331 15.9977 111.282 16.0687 111.226 16.1398C111.041 16.3683 110.769 16.6524 110.448 16.7543C110.022 16.8902 109.763 16.5474 109.661 16.2571C109.605 16.0965 109.469 15.5067 109.753 15.4789C109.843 15.4697 109.815 15.3616 109.735 15.3585C109.682 15.3554 109.633 15.3523 109.58 15.3492C109.553 15.3461 109.516 15.3616 109.503 15.3832C109.302 15.726 109.284 16.1243 109.457 16.4794C109.608 16.7913 109.926 17.0785 110.371 17.026C110.816 16.9735 111.158 16.64 111.412 16.359C111.43 16.3374 111.446 16.3127 111.464 16.2911C111.526 16.4455 111.618 16.5937 111.767 16.6709C112.248 16.9149 112.743 16.3281 113.02 15.9298C113.107 16.1274 113.193 16.3281 113.292 16.5227C113.388 16.7141 113.533 16.8655 113.796 16.9025C114.354 16.9828 114.74 16.5566 114.827 16.1552C114.833 16.0996 114.753 16.0379 114.697 16.0904Z"
                  fill="#004DBE"/>
            <path opacity="0.36"
                  d="M117.189 12.7553C117.121 12.6935 117.026 12.6873 116.93 12.6811C116.837 12.675 116.742 12.6595 116.655 12.6317C116.529 12.5885 116.402 12.4959 116.386 12.3785C116.38 12.2643 116.164 12.2581 116.164 12.3754C116.164 12.3847 116.167 12.3909 116.17 12.4001H116.167C116.195 12.5545 116.201 12.7182 116.149 12.8695C116.124 12.9467 116.087 13.0177 116.031 13.0857C115.988 13.1382 115.889 13.237 115.806 13.237C115.726 13.237 115.707 13.1289 115.698 13.0795C115.679 12.9683 115.67 12.8572 115.664 12.746C115.655 12.5237 115.67 12.3044 115.71 12.0852C115.719 12.0419 115.627 12.0296 115.618 12.0728C115.568 12.2766 115.54 12.4866 115.537 12.6935C115.534 12.7985 115.537 12.9035 115.547 13.0054C115.553 13.0826 115.559 13.1629 115.593 13.2339C115.624 13.2926 115.676 13.3451 115.757 13.3605C115.862 13.3821 115.957 13.3296 116.031 13.2771C116.17 13.1814 116.26 13.0455 116.312 12.9066C116.334 12.8417 116.346 12.7769 116.359 12.712C116.399 12.7429 116.442 12.7676 116.491 12.7892C116.6 12.8386 116.717 12.8633 116.837 12.8788C116.958 12.8942 117.087 12.9097 117.186 12.8386C117.217 12.817 117.214 12.7769 117.189 12.7553Z"
                  fill="#004DBE"/>
            <path opacity="0.36"
                  d="M104.831 22.6648C104.739 22.7729 104.51 22.776 104.386 22.7081C104.22 22.6185 104.146 22.4394 104.087 22.2912C104.047 22.1893 103.889 22.1677 103.815 22.2572C103.676 22.4209 103.54 22.5876 103.401 22.7513C103.34 22.8254 103.034 23.2454 102.991 22.9891C102.923 22.6 103.015 22.1584 103.111 21.7786C103.148 21.6365 102.88 21.5686 102.842 21.7137C102.753 22.0596 102.583 22.3838 102.33 22.6679C102.138 22.8841 101.703 23.3349 101.32 23.2547C101.092 23.2083 101.054 22.9767 101.024 22.8162C100.983 22.6216 100.974 22.424 100.983 22.2263C101.008 21.828 101.141 21.4389 101.363 21.0869C101.422 20.9911 101.252 20.9047 101.19 21.0004C100.919 21.4111 100.764 21.8681 100.743 22.3344C100.727 22.6741 100.718 23.2917 101.181 23.4461C101.644 23.6005 102.129 23.2052 102.398 22.9459C102.509 22.8378 102.605 22.7235 102.694 22.6062V22.6093C102.685 22.8038 102.617 23.1435 102.842 23.2763C103.049 23.3998 103.296 23.2855 103.432 23.1435C103.602 22.9644 103.753 22.7729 103.908 22.5815C104.007 22.7544 104.143 22.9119 104.371 22.9706C104.634 23.0416 104.93 22.9582 105.004 22.7266C105.035 22.6401 104.893 22.5907 104.831 22.6648Z"
                  fill="#004DBE"/>
            <path opacity="0.36"
                  d="M107.576 23.0758C107.533 23.0079 107.441 22.9492 107.376 22.8967C107.299 22.8349 107.221 22.7701 107.144 22.7083C107.116 22.6836 107.085 22.662 107.058 22.6373C107.079 22.5848 107.104 22.5354 107.122 22.4829C107.24 22.1772 107.326 21.8653 107.323 21.5441C107.323 21.4669 107.184 21.4669 107.178 21.541C107.144 21.8529 107.027 22.1525 106.879 22.4427C106.872 22.4551 106.866 22.4675 106.86 22.4767C106.804 22.4304 106.749 22.3841 106.69 22.3408L105.764 21.6244C105.674 21.5534 105.541 21.6584 105.625 21.7356C105.915 21.9981 106.205 22.2575 106.493 22.52C106.57 22.5879 106.647 22.6558 106.724 22.7207C106.699 22.7639 106.675 22.8102 106.65 22.8565C106.567 23.0048 106.468 23.1623 106.409 23.3167C106.36 23.4494 106.601 23.5421 106.681 23.4155C106.777 23.2703 106.848 23.1067 106.919 22.9523C106.925 22.9368 106.931 22.9214 106.937 22.906L107.141 23.0789C107.215 23.1437 107.289 23.2302 107.394 23.258C107.53 23.2981 107.632 23.1715 107.576 23.0758Z"
                  fill="#004DBE"/>
            <path opacity="0.36"
                  d="M115.457 21.7415C115.417 21.686 115.33 21.7137 115.321 21.7693C115.281 22.0195 115.102 22.3252 114.781 22.39C114.401 22.4672 114.067 22.1739 114.08 21.8743C114.086 21.7107 113.774 21.6643 113.725 21.828C113.644 22.0998 113.518 22.5475 113.101 22.5722C112.502 22.6062 112.415 21.9793 112.455 21.6273C112.474 21.4852 112.193 21.4513 112.153 21.5902C112.045 21.9793 111.748 22.4024 111.273 22.5537C110.569 22.776 110.479 22.0411 110.51 21.6489C110.519 21.5192 110.26 21.4791 110.226 21.6118C110.223 21.6211 110.223 21.6335 110.22 21.6427C110.22 21.6458 110.22 21.6489 110.22 21.652C110.204 21.7323 110.198 21.8218 110.198 21.9145C110.158 22.1121 110.062 22.319 109.886 22.4209C109.815 22.4611 109.682 22.5012 109.627 22.4611C109.577 22.4271 109.596 22.285 109.599 22.2233C109.608 22.0473 109.676 21.8836 109.784 21.7323C109.827 21.6736 109.722 21.6242 109.676 21.6767C109.506 21.8712 109.111 22.6834 109.67 22.7235C109.911 22.7421 110.127 22.5135 110.247 22.3684C110.257 22.3561 110.266 22.3406 110.275 22.3283C110.389 22.6371 110.636 22.8872 111.087 22.8594C111.566 22.8254 111.933 22.5444 112.174 22.2078C112.27 22.5352 112.52 22.8162 112.993 22.8594C113.443 22.8996 113.718 22.6494 113.888 22.3499C114.086 22.5938 114.429 22.7544 114.802 22.7019C115.324 22.6309 115.75 22.143 115.457 21.7415Z"
                  fill="#004DBE"/>
            <path opacity="0.36"
                  d="M98.9019 8.97887C98.8834 8.91402 98.7846 8.88005 98.7135 8.91402C96.4655 10.0103 94.2019 11.1034 92.0033 12.2707C91.9261 12.2089 91.8427 12.1534 91.75 12.1101C91.7161 12.0947 91.6636 12.1009 91.645 12.1317C91.6111 12.1873 91.5987 12.2367 91.642 12.2923C91.6667 12.3232 91.7222 12.3047 91.7161 12.2676V12.2645C91.7531 12.2985 91.7902 12.3294 91.8272 12.3633C91.6234 12.4714 91.4165 12.5764 91.2158 12.6876C91.1602 12.7185 91.2066 12.7895 91.2652 12.7617C91.4845 12.6567 91.7006 12.5486 91.9199 12.4436C92.0063 12.5208 92.0897 12.598 92.1638 12.6876C92.309 12.8636 92.4263 13.0551 92.5066 13.2558C92.556 13.3824 92.6085 13.5275 92.6332 13.6727C91.7037 13.614 90.7773 13.5306 89.8478 13.4318C89.715 13.4195 89.678 13.6047 89.8108 13.6264C90.7433 13.7684 91.6883 13.861 92.6425 13.9166C92.627 14.0649 92.5715 14.2007 92.4325 14.3057C92.4047 14.3273 92.414 14.3737 92.4541 14.3798C92.7135 14.4292 92.8308 14.2007 92.8617 14.0278C92.8679 13.9969 92.8679 13.9629 92.8679 13.929C95.0666 14.0432 97.2931 13.9506 99.4485 13.7066C99.5072 13.7005 99.5535 13.6449 99.5535 13.5986C99.5226 12.0422 99.3157 10.4951 98.9019 8.97887ZM94.5632 13.7437C93.995 13.7406 93.4299 13.7128 92.8648 13.6819C92.8463 13.5584 92.8092 13.4349 92.7691 13.3176C92.6826 13.0767 92.5529 12.8482 92.3831 12.6413C92.3028 12.5425 92.2102 12.4406 92.1082 12.3479C94.3008 11.2887 96.4716 10.2017 98.6827 9.17033C99.0193 10.597 99.2292 12.0422 99.2787 13.4936C97.7161 13.6727 96.1412 13.7561 94.5632 13.7437Z"
                  fill="#004DBE"/>
            <path opacity="0.36"
                  d="M102.191 10.4177C102.043 10.427 101.901 10.4918 101.768 10.5382C101.629 10.5876 101.493 10.6401 101.354 10.6926C101.073 10.8006 100.771 10.8964 100.511 11.0322C100.471 11.0539 100.493 11.1125 100.545 11.1002C100.839 11.0322 101.12 10.9118 101.401 10.8099C101.54 10.7605 101.682 10.7111 101.817 10.6586C101.953 10.6061 102.114 10.5598 102.222 10.4733C102.244 10.4579 102.228 10.4177 102.191 10.4177Z"
                  fill="#004DBE"/>
            <path opacity="0.36"
                  d="M103.281 9.94532C103.186 9.89283 103.059 9.91753 102.954 9.92679C102.815 9.94223 102.673 9.95767 102.534 9.97003C102.395 9.98547 102.253 10.0009 102.114 10.0133C102.043 10.0194 101.975 10.0287 101.904 10.0411C101.833 10.0534 101.747 10.0565 101.685 10.0905C101.638 10.1183 101.645 10.1677 101.697 10.1862C101.75 10.2047 101.808 10.1985 101.864 10.1955C101.926 10.1955 101.984 10.1955 102.046 10.1893C102.167 10.18 102.287 10.1707 102.407 10.1615L102.769 10.1337C102.88 10.1244 102.997 10.1059 103.108 10.109H103.111C103.096 10.146 103.074 10.18 103.056 10.2171C103.013 10.2943 102.963 10.3684 102.908 10.4425C102.855 10.5135 102.8 10.5784 102.738 10.6432C102.707 10.6772 102.67 10.7081 102.642 10.742C102.608 10.7791 102.593 10.8192 102.568 10.8625C102.534 10.9242 102.633 10.9705 102.695 10.9458C102.818 10.8964 102.889 10.8254 102.972 10.7359C103.05 10.6525 103.118 10.566 103.179 10.4765C103.241 10.3869 103.294 10.2974 103.34 10.2016C103.386 10.1152 103.392 10.0071 103.281 9.94532Z"
                  fill="#004DBE"/>
            <path opacity="0.36"
                  d="M109.463 9.49433C109.355 9.4758 109.247 9.46654 109.139 9.44492C109.022 9.42022 108.926 9.37081 108.815 9.33993C108.685 9.30287 108.562 9.31831 108.45 9.38625C108.33 9.46036 108.262 9.57462 108.163 9.66726C107.919 9.89268 107.694 9.63638 107.583 9.44183C107.527 9.34301 107.354 9.39551 107.348 9.49124C107.333 9.66108 107.092 9.71667 106.937 9.64255C106.789 9.57462 106.727 9.44183 106.724 9.30596C106.721 9.20714 106.567 9.167 106.499 9.25346C106.344 9.44801 106.165 9.63329 105.952 9.7846C105.789 9.90195 105.612 9.81239 105.548 9.66417C105.492 9.53756 105.501 9.40169 105.56 9.27817C105.6 9.15773 105.39 9.11141 105.338 9.22258C105.27 9.43257 105.137 9.62094 104.93 9.7599C104.782 9.85872 104.507 9.93283 104.39 9.76607C104.309 9.65182 104.297 9.44801 104.312 9.31522C104.316 9.29978 104.285 9.29669 104.282 9.31213C104.207 9.49433 104.099 9.65182 104.214 9.84636C104.294 9.98224 104.464 10.0749 104.652 10.0594C104.915 10.0409 105.134 9.8896 105.298 9.7074C105.347 9.88342 105.474 10.0347 105.708 10.0718C106.042 10.1274 106.347 9.81239 106.554 9.553C106.632 9.71975 106.774 9.85872 107.008 9.88651C107.206 9.91121 107.388 9.83401 107.496 9.71049C107.697 9.93592 108 10.1058 108.308 9.85872C108.463 9.73519 108.543 9.47889 108.796 9.56535C109.034 9.64873 109.238 9.71667 109.482 9.59932C109.525 9.5777 109.525 9.50668 109.463 9.49433Z"
                  fill="#004DBE"/>
            <path opacity="0.36"
                  d="M109.902 10.7883C109.704 10.7389 109.485 10.776 109.275 10.7358C109.059 10.6957 108.849 10.637 108.629 10.6185C108.423 10.5999 108.222 10.6308 108.043 10.7173C107.932 10.7698 107.49 11.057 107.428 10.8161C107.407 10.7327 107.277 10.7111 107.206 10.7636C107.002 10.9118 106.755 11.0786 106.465 11.057C106.208 11.0384 105.971 10.7852 106.227 10.6215C106.326 10.5598 106.199 10.4147 106.097 10.4764C105.795 10.6586 105.844 11.0353 106.162 11.1867C106.545 11.3689 106.943 11.2083 107.258 11.0076C107.354 11.0909 107.502 11.1342 107.651 11.1218C107.947 11.1002 108.139 10.8686 108.435 10.8439C108.719 10.8223 108.997 10.9242 109.272 10.9705C109.494 11.0076 109.794 11.0508 109.945 10.8779C109.976 10.847 109.948 10.7976 109.902 10.7883Z"
                  fill="#004DBE"/>
        </g>
        <g clip-path="url(#clip0)">
            <path d="M90.8239 10.8909C91.0027 10.8353 91.0591 10.7316 91.1876 10.689C92.1578 10.3662 93.5688 10.9726 94.1395 11.3353C95.4851 12.191 95.888 13.7514 96.1617 14.8091C96.6196 16.5811 96.3776 18.0213 96.3233 18.3228C96.1418 19.3311 95.767 21.4059 93.9373 22.6449C92.4177 23.6737 90.7655 23.5357 90.2573 23.4931C89.6467 23.4423 88.7618 23.3564 87.8714 22.726C87.5798 22.5192 86.7602 21.8805 86.3752 20.7466C85.964 19.5357 86.1249 18.4657 86.3752 17.6367C86.6474 16.7342 87.2993 16.2061 87.8308 14.8496C88.1945 13.9204 87.8714 12.588 89.6103 11.3359C90.3082 10.8325 90.5241 10.9836 90.8239 10.8909Z"
                  fill="#512618"/>
            <path d="M94.2983 11.5322C94.5314 11.66 94.7597 11.8076 94.9598 11.991C95.1599 12.1723 95.3456 12.3756 95.503 12.5975C95.8227 13.0405 96.0552 13.5411 96.2346 14.0507C96.3254 14.3056 96.4051 14.5638 96.476 14.8207C96.5488 15.0768 96.6149 15.3447 96.6699 15.6105C96.7696 16.1455 96.8198 16.6901 96.8191 17.2348C96.8163 17.5074 96.8019 17.7801 96.7723 18.0514C96.7572 18.1874 96.7379 18.3227 96.7146 18.4587C96.6898 18.596 96.6664 18.7224 96.6369 18.8557C96.5812 19.1187 96.5186 19.3831 96.4416 19.6434C96.4058 19.7746 96.3611 19.903 96.3185 20.0322C96.2704 20.1599 96.2229 20.2876 96.1693 20.4126C96.1136 20.5376 96.062 20.6633 95.9981 20.7842L95.9059 20.9669L95.8021 21.1434C95.6639 21.3783 95.5037 21.6001 95.3325 21.811C94.9832 22.2279 94.5651 22.5843 94.0962 22.8412C94.5081 22.5019 94.869 22.1139 95.1551 21.6784C95.4459 21.2464 95.6673 20.7746 95.8406 20.287C96.0077 19.7966 96.1315 19.2925 96.2167 18.7753C96.2381 18.6475 96.2628 18.5129 96.2821 18.3879C96.3013 18.2616 96.3171 18.1338 96.3288 18.0054C96.3543 17.7485 96.3666 17.4903 96.368 17.2314C96.3769 16.7135 96.3309 16.1956 96.2504 15.684C96.2078 15.4271 96.1569 15.1771 96.095 14.9196C96.0325 14.6627 95.9713 14.4079 95.9011 14.1565C95.8317 13.9045 95.7457 13.66 95.6529 13.4175C95.5615 13.1744 95.4473 12.9416 95.3187 12.7163C95.195 12.4876 95.0389 12.2788 94.8718 12.0776L94.7412 11.9306C94.6958 11.8832 94.647 11.8392 94.5995 11.7932L94.5287 11.7238L94.4524 11.66L94.2983 11.5322Z"
                  fill="#512618"/>
            <path d="M87.4659 22.7815C86.9584 22.4552 86.5232 22.0033 86.2062 21.4731C86.0488 21.2073 85.9243 20.9188 85.8322 20.6228C85.7387 20.3275 85.6788 20.0212 85.6458 19.7114C85.575 19.0906 85.6493 18.458 85.8054 17.8577C85.8459 17.706 85.8872 17.5624 85.9442 17.4099C85.9979 17.2575 86.068 17.1126 86.1416 16.9718C86.2922 16.6922 86.4675 16.4381 86.6339 16.1902C86.8031 15.9436 86.9646 15.6991 87.1097 15.4457C87.2562 15.195 87.3896 14.9299 87.5023 14.6682C87.6069 14.4189 87.6674 14.1311 87.7347 13.8365C87.7691 13.6888 87.8042 13.5391 87.8475 13.3901C87.8922 13.241 87.9417 13.092 88.0029 12.9471C88.1239 12.6559 88.2828 12.3791 88.478 12.1325C88.5832 12.0158 88.6816 11.8935 88.7991 11.7905C88.8569 11.7383 88.9098 11.6806 88.971 11.6339L89.1533 11.4903C89.4042 11.3118 89.6573 11.1394 89.944 11.0192C90.087 10.9601 90.2383 10.9148 90.393 10.9004C90.5484 10.8853 90.6969 10.91 90.8454 10.8818C90.7024 10.9354 90.545 10.9313 90.4033 10.9677C90.2603 11 90.1262 11.059 89.999 11.1311C89.8725 11.2046 89.7508 11.2877 89.6332 11.377L89.4613 11.5171C89.4042 11.5638 89.3458 11.6085 89.2942 11.6614L89.134 11.8118C89.0797 11.8605 89.035 11.9189 88.9855 11.9711C88.8837 12.0748 88.8033 12.1957 88.7153 12.309C88.5564 12.5487 88.4251 12.8021 88.3323 13.0728C88.2381 13.3434 88.1789 13.6263 88.1219 13.9182C88.0641 14.2101 88.0153 14.5171 87.8991 14.8275C87.7829 15.1215 87.6474 15.3948 87.4968 15.6661C87.3449 15.9354 87.1764 16.1936 87.0066 16.4436C86.8347 16.6922 86.6662 16.9326 86.5287 17.1812C86.462 17.3055 86.3994 17.4312 86.352 17.5617C86.3265 17.6249 86.3039 17.6943 86.2812 17.7636L86.2158 17.9717C86.1333 18.2499 86.0701 18.5329 86.0323 18.8193C85.9972 19.1057 85.9827 19.3948 85.9958 19.684C86.0082 19.9731 86.0522 20.2609 86.1168 20.5452C86.1801 20.8296 86.275 21.1043 86.4008 21.3687C86.649 21.9003 87.0203 22.3769 87.4659 22.7815Z"
                  fill="#512618"/>
            <path d="M99.8842 27.0198C99.8808 26.8783 99.9206 26.7121 101.31 25.311C102 24.616 102.101 24.5446 102.304 24.2438C102.66 23.7142 102.644 23.4924 103.04 23.046C103.402 22.6387 104.351 22.2115 105.022 21.9409C105.117 21.9024 106.219 21.3647 106.778 21.1964C106.858 21.1724 107.013 21.1298 107.164 21.241C107.243 21.2987 107.245 21.4457 107.242 21.4629C107.231 21.5364 107.204 21.6126 107.119 21.6696C106.868 21.8365 106.1 22.2438 105.793 22.3736C105.494 22.4999 105.233 22.6284 105.273 23.1861C105.296 23.5075 105.604 23.6407 105.697 24.1751C105.723 24.32 105.713 24.3825 105.696 24.4326C105.628 24.6284 105.426 24.6606 105.135 24.9017C104.983 25.0267 105.021 25.0322 104.875 25.1579C104.719 25.2932 104.56 25.3859 103.799 25.7101C103.458 25.855 103.461 25.8488 103.412 25.8797C103.044 26.1091 102.88 26.456 102.806 26.6057C102.373 27.4903 102.062 28.1235 101.638 28.2726C101.01 28.4944 99.9007 27.7272 99.8842 27.0198Z"
                  fill="#EC7D40"/>
            <path d="M103.124 24.2863C104.113 24.6256 104.389 23.219 104.423 23.0569C104.512 22.638 104.394 22.3797 104.631 21.9567C104.76 21.7287 104.832 21.6668 104.942 21.2788C105.045 20.9175 104.964 20.6387 104.935 20.5789C104.863 20.4354 104.721 20.4498 104.631 20.4958C104.539 20.5432 104.506 20.8447 104.501 20.8756C104.431 21.2637 103.937 21.6449 103.219 22.4237C102.433 23.276 102.793 24.1723 103.124 24.2863Z"
                  fill="#EC7D40"/>
            <path d="M100.677 25.7801C100.82 25.6737 101.033 25.8323 101.762 26.4532C102.506 27.0871 102.658 27.2616 102.635 27.4745C102.616 27.6544 102.481 27.7691 102.382 27.8611C101.949 28.267 102.031 28.4223 101.374 29.4071C100.623 30.5335 99.9353 31.539 98.6563 32.1956C98.4886 32.2821 98.3978 32.3281 98.2534 32.3783C96.9951 32.8158 94.9358 32.3851 94.4242 30.9312C92.5423 25.5789 94.4118 22.5267 95.4625 22.6785C96.5661 22.8378 97.4599 28.026 97.5287 28.3941C97.5342 28.4181 98.7829 27.1943 100.677 25.7801Z"
                  fill="#004DBE"/>
            <path d="M106.275 23.3488C106.232 23.2595 106.161 23.1936 106.079 23.1572C106.271 23.1036 106.395 22.9058 106.362 22.697C106.327 22.4738 106.127 22.322 105.914 22.3577C105.368 22.4498 104.836 22.6558 104.415 22.9374C104.234 23.059 104.182 23.3117 104.298 23.5027C104.308 23.5185 104.318 23.5329 104.329 23.5466C104.165 23.6036 104.052 23.7705 104.063 23.9601C104.074 24.1496 104.206 24.3 104.376 24.3358C104.374 24.3447 104.373 24.3536 104.371 24.3625C104.353 24.5597 104.49 24.7355 104.677 24.7554C104.838 24.7726 105 24.7787 105.159 24.7739C105.469 24.7643 105.771 24.7142 106.039 24.6249C106.218 24.5651 106.317 24.3646 106.26 24.1757C106.224 24.0555 106.133 23.9697 106.025 23.9388C106.051 23.9257 106.079 23.9134 106.104 23.8996C106.297 23.7966 106.373 23.55 106.275 23.3488Z"
                  fill="#F79556"/>
            <path d="M85.7259 26.0075C85.4254 25.0103 85.2501 24.5329 85.3697 23.8324C85.532 22.8818 86.5964 21.9134 86.9932 21.6573C88.0025 21.0048 88.9666 20.6868 89.6851 20.4313C92.0209 19.601 95.2306 21.2445 95.7029 21.9739C97.2273 24.3269 97.2665 26.8186 97.1675 27.9058C97.0726 28.9512 96.3163 30.3777 96.0591 34.4312C95.9979 35.3914 96.5542 36.436 96.1382 37.1997C94.9108 39.4538 88.1518 38.9408 87.1506 37.7931C86.6164 37.1805 87.2923 36.9147 87.5467 34.3522C87.8217 31.5761 87.5879 30.5981 87.4676 29.686C87.3459 28.7568 86.2492 27.7451 85.7259 26.0075Z"
                  fill="#004DBE"/>
            <path d="M89.8687 16.7946C89.5538 17.1861 90.0571 17.7568 89.9897 18.9752C89.9327 19.9979 89.692 20.2788 89.8433 20.8591C90.0984 21.8419 90.9132 22.1235 91.1531 22.2087C91.6434 22.3831 92.7938 22.5864 93.2311 22.0542C93.405 21.8426 93.2929 21.6867 93.2689 21.2307C93.2029 19.9903 93.4731 19.5672 93.4002 18.7115C93.3177 17.741 92.7566 16.8502 91.8765 16.568C91.8146 16.5494 90.3328 16.217 89.8687 16.7946Z"
                  fill="#EC7D40"/>
            <path d="M89.3306 21.3215C89.4275 21.5083 89.5258 21.6842 89.6448 21.8421C89.7651 21.9987 89.8999 22.1388 90.0484 22.2583C90.1969 22.3785 90.3585 22.4802 90.529 22.5647C90.615 22.6059 90.7016 22.6457 90.7917 22.6787C90.8371 22.6958 90.8818 22.7123 90.9292 22.7288C90.976 22.7453 91.02 22.759 91.0667 22.7734C91.4394 22.884 91.832 22.9616 92.2212 22.9884C92.4158 23.0001 92.6111 22.9987 92.8029 22.9671C92.9941 22.9355 93.1818 22.8696 93.3461 22.7384C93.2973 22.8311 93.2258 22.9156 93.1412 22.9843C93.0566 23.0537 92.9604 23.1093 92.8593 23.1526C92.6572 23.2391 92.4399 23.281 92.2247 23.2989C92.0088 23.316 91.7935 23.3071 91.5811 23.2824C91.4745 23.27 91.3693 23.2515 91.2641 23.2309C91.1596 23.2082 91.0551 23.1821 90.9512 23.1512C90.8997 23.1354 90.8467 23.1168 90.7965 23.0983C90.7477 23.0804 90.6961 23.0619 90.6459 23.0399C90.5455 22.9973 90.4458 22.9493 90.351 22.8936C90.1605 22.7824 89.9838 22.645 89.8346 22.4829C89.6854 22.3208 89.5637 22.1354 89.4763 21.9376C89.3931 21.7391 89.345 21.5296 89.3306 21.3215Z"
                  fill="white"/>
            <path d="M94.774 13.1477C95.102 13.9334 95.0305 14.3984 94.9624 14.7267C94.9308 14.8791 94.862 15.1092 94.8874 15.441C94.9019 15.6326 94.9404 15.7631 94.9624 15.8544C95.0765 16.3146 95.0573 16.7356 95.0002 17.0199C94.8874 17.5838 94.1723 19.3132 93.6071 19.6518C93.3754 19.7905 93.1499 19.8262 92.967 19.84C92.5476 19.8709 92.201 19.7706 91.9885 19.6895C90.6567 19.1847 90.064 17.7596 89.9931 17.5838C89.8666 17.2679 89.8144 17.0199 89.7676 16.794C89.5565 15.7741 88.807 14.6202 89.5792 13.1539C89.804 12.726 91.085 11.079 93.4889 11.8984C94.0548 12.0914 94.5196 12.5364 94.774 13.1477Z"
                  fill="#F79556"/>
            <path d="M91.1306 11.4182C91.1306 11.4182 91.1671 11.4257 91.2028 11.4402C91.4318 11.5322 91.6718 11.925 91.7701 12.4333C91.8189 12.684 91.8272 12.8701 91.8079 13.1098C91.7172 14.2485 90.3378 14.4017 90.0009 15.5164C89.7169 16.4573 89.3456 15.9889 89.2102 15.629C88.6285 14.0782 88.3803 12.8467 90.5262 11.5308C90.6617 11.4477 90.9677 11.3832 91.1306 11.4182Z"
                  fill="#512618"/>
            <path d="M91.5824 11.3847C91.81 11.2831 93.2285 10.7631 94.7068 12.2872C95.5333 13.1395 95.4474 14.3757 95.4219 14.8442C95.4027 15.2102 95.162 15.4424 95.1194 15.4458C95.0424 15.4513 95.5505 14.101 92.7898 13.3469C92.0059 13.1326 91.7213 12.6134 91.658 12.5509C91.4394 12.3359 91.1313 11.8998 91.2819 11.6107C91.3431 11.4918 91.46 11.4396 91.5824 11.3847Z"
                  fill="#512618"/>
            <path d="M89.9487 15.4794C89.8854 15.4231 89.5952 15.1628 89.3395 15.2569C89.0947 15.3468 88.9434 15.6168 88.9042 15.8365C88.8231 16.294 88.984 17.0089 89.3828 17.3523C89.4632 17.421 89.6214 17.5536 89.818 17.5309C90.0023 17.5096 90.1213 17.3626 90.1659 17.3084C90.5207 16.8709 90.4554 15.9334 89.9487 15.4794Z"
                  fill="#F79556"/>
            <path d="M92.7736 34.9057C92.1802 34.6948 91.7271 34.6591 91.0312 34.5101C89.9228 34.2731 89.2889 34.1145 88.5765 33.6399C88.0753 33.3061 87.7686 33.1818 87.3093 33.0073C86.6588 32.7601 86.0228 32.9922 85.7649 33.0863C84.9515 33.383 84.246 33.9345 84.2605 34.5492C84.266 34.7958 84.3794 34.984 84.3794 34.984C84.5279 35.2305 84.7755 35.3329 84.8944 35.3796C86.8933 36.1605 88.1014 36.2889 88.1014 36.2889C89.9325 36.4846 89.6753 36.2594 90.9913 36.4469C91.9615 36.5856 92.436 36.657 93.0108 36.5259C93.6242 36.3857 93.7947 35.9709 93.763 35.5767C93.7349 35.225 93.2659 35.0808 92.7736 34.9057Z"
                  fill="#F79556"/>
            <path d="M86.6569 32.4339C87.0014 32.5094 87.3582 32.6214 87.7653 33.0273C88.0273 33.2883 88.4185 33.5609 88.7946 33.7388C88.9253 33.8006 89.0848 33.7759 89.1116 33.8576C89.1487 33.9737 88.8998 34.1392 88.7554 34.2532C88.0011 34.8459 87.581 35.9187 87.8842 36.3095C87.9571 36.4036 88.0541 36.4297 88.0424 36.4675C88.0101 36.5746 87.2118 36.4345 86.6569 36.3095C85.325 36.0094 85.0135 35.9737 84.3211 35.4393C83.9099 35.1227 83.6844 34.3473 83.8859 33.699C84.2152 32.6365 85.6626 32.2168 86.6569 32.4339Z"
                  fill="#FCCC44"/>
            <path d="M98.5066 35.6969H92.3994C92.3155 35.6969 92.2756 35.5932 92.3382 35.5376L96.7148 31.5246C96.842 31.4099 97.007 31.3467 97.1782 31.3467H103.285C103.369 31.3467 103.409 31.4504 103.347 31.506L98.9701 35.519C98.8422 35.633 98.6772 35.6969 98.5066 35.6969Z"
                  fill="#7764A6"/>
            <path d="M84.8568 24.5652C84.9696 24.2101 85.1566 23.6909 85.6325 23.241C85.8147 23.0686 86.2678 22.6531 86.9712 22.581C87.5783 22.5185 88.0397 22.7458 88.2446 22.8509C89.1564 23.3159 89.2932 25.8708 89.0381 27.0459C88.8036 28.1263 88.4688 29.0425 87.9256 30.5294C87.5997 31.4216 87.8864 33.2423 87.786 33.539C87.5522 34.2265 86.8296 34.5349 86.2478 34.7945C85.5286 35.1152 84.6994 35.7183 84.2751 35.4676C83.8248 35.2018 83.7897 34.5012 83.7759 33.789C83.7306 31.3557 84.2146 29.9216 84.3322 27.9106C84.3783 27.1435 84.4237 25.9319 84.8568 24.5652Z"
                  fill="#004DBE"/>
            <path d="M87.8288 33.0775C87.716 32.5665 87.6287 32.0528 87.6081 31.5233C87.5992 31.2582 87.604 30.9903 87.6562 30.7149C87.6631 30.6806 87.6686 30.6462 87.6775 30.6119L87.7064 30.5082C87.716 30.4718 87.7264 30.4436 87.736 30.412L87.7656 30.3193L87.8879 29.9512C88.0537 29.4615 88.2311 28.9766 88.4071 28.4931L88.9352 27.0322C88.9173 27.5563 88.8272 28.0755 88.7055 28.583C88.5831 29.0906 88.4298 29.5878 88.2627 30.0789L88.1348 30.4457L88.1018 30.537C88.0915 30.5665 88.0784 30.5995 88.0708 30.6256L88.0447 30.708C88.0365 30.7362 88.0303 30.765 88.0227 30.7939C87.965 31.0253 87.9388 31.2767 87.9189 31.5288C87.8783 32.0356 87.8797 32.5555 87.8288 33.0775Z"
                  fill="#004DBE"/>
            <path d="M92.3633 18.4204C92.3433 18.3936 92.3592 18.3552 92.3922 18.3497C92.5352 18.3263 92.8831 18.2769 93.2847 18.2769C93.5597 18.2769 93.8217 18.3215 93.931 18.3421C93.9599 18.3476 93.975 18.3785 93.9633 18.4053C93.9014 18.5433 93.6924 18.9067 93.2022 18.9019C92.7607 18.897 92.4657 18.5591 92.3633 18.4204Z"
                  fill="#D65B5B"/>
            <path d="M93.9014 15.162C93.9282 15.0728 93.9777 14.9965 94.0361 14.9299C94.0939 14.8619 94.164 14.8042 94.2404 14.7568C94.3944 14.6593 94.5876 14.6442 94.7643 14.6483C94.809 14.6497 94.8537 14.6504 94.8977 14.6572L94.9637 14.6655C94.9864 14.6696 95.0111 14.6751 95.0338 14.6806C95.126 14.7074 95.2064 14.7527 95.2772 14.8042C95.4175 14.91 95.5186 15.0453 95.6204 15.1655L95.6018 15.1902C95.5289 15.1462 95.467 15.0947 95.4003 15.0501C95.3343 15.0054 95.2669 14.9656 95.1982 14.9361C95.1301 14.9052 95.0607 14.8853 94.994 14.8804L94.9445 14.8791L94.8894 14.8818C94.853 14.8818 94.8166 14.8887 94.7808 14.8935C94.745 14.8983 94.71 14.9093 94.6749 14.9182C94.6405 14.9313 94.6068 14.9416 94.5738 14.9574C94.5078 14.9842 94.4432 15.0116 94.3737 15.0336L94.1606 15.1064C94.087 15.1325 94.0107 15.1586 93.9234 15.1833L93.9014 15.162Z"
                  fill="#512618"/>
            <path d="M90.751 14.9272C90.8961 14.8008 91.0673 14.7053 91.2522 14.6325C91.4379 14.5618 91.6414 14.5274 91.8484 14.5343C91.8999 14.5343 91.9515 14.5412 92.0045 14.5432C92.0567 14.5487 92.109 14.557 92.1619 14.5645C92.2657 14.5851 92.3661 14.627 92.4528 14.6875C92.6254 14.809 92.7643 14.98 92.8096 15.1916L92.7814 15.2156C92.5834 15.1435 92.4294 15.0721 92.2733 15.0137C92.1963 14.9842 92.1234 14.9519 92.0498 14.9155C92.0127 14.899 91.9749 14.8811 91.9357 14.8653C91.8958 14.853 91.8566 14.8379 91.8147 14.8296C91.7322 14.8132 91.6476 14.8001 91.561 14.8001C91.4743 14.7953 91.3863 14.8008 91.2983 14.8125C91.1202 14.8317 90.9435 14.8846 90.7716 14.9574L90.751 14.9272Z"
                  fill="#512618"/>
            <path d="M91.482 15.8346C91.4882 15.8833 91.6525 16.0124 92.0933 15.9596C92.2892 15.9362 92.479 15.8634 92.4673 15.7659C92.4563 15.6725 92.3099 15.5152 92.138 15.5076C91.8382 15.4939 91.4696 15.737 91.482 15.8346Z"
                  fill="#E6E6E6"/>
            <path d="M91.8092 15.6833C91.8904 15.4161 92.3607 15.4677 92.2967 15.8255C92.2328 16.1847 91.6793 16.1133 91.8092 15.6833Z"
                  fill="#512618"/>
            <path d="M92.5202 15.8345C92.4638 15.7878 92.4108 15.7507 92.3565 15.7308C92.3029 15.7102 92.2513 15.7047 92.1977 15.706C92.0904 15.7095 91.9749 15.7411 91.8525 15.7727C91.7301 15.8049 91.6009 15.84 91.4606 15.8571C91.3905 15.8647 91.3162 15.8688 91.2392 15.8558C91.2014 15.8496 91.1622 15.8372 91.1278 15.8173C91.0927 15.7967 91.0645 15.7665 91.0508 15.7328C91.0858 15.7452 91.1168 15.7479 91.147 15.7452C91.1773 15.7404 91.2055 15.7342 91.2344 15.7239C91.2914 15.7047 91.3485 15.6793 91.4076 15.6532C91.5252 15.6016 91.649 15.5488 91.7851 15.513C91.9206 15.4787 92.0732 15.4554 92.2321 15.4986C92.3105 15.5206 92.3868 15.5652 92.4383 15.6271C92.4885 15.6889 92.516 15.7624 92.5202 15.8345Z"
                  fill="#512618"/>
            <path d="M94.0612 15.9074C94.0661 15.9472 94.2118 16.0516 94.6044 16.0063C94.7784 15.9863 94.8547 15.9094 94.8451 15.8291C94.8355 15.7528 94.799 15.6423 94.6464 15.6368C94.3796 15.6278 94.0516 15.8277 94.0612 15.9074Z"
                  fill="#E6E6E6"/>
            <path d="M94.3305 15.7666C94.4033 15.5262 94.8262 15.5729 94.7691 15.895C94.7114 16.2171 94.2136 16.1532 94.3305 15.7666Z"
                  fill="#512618"/>
            <path d="M95.0022 15.8372C94.9465 15.8111 94.8984 15.785 94.8503 15.7692C94.8028 15.7527 94.7595 15.7444 94.7189 15.7451C94.6399 15.7444 94.5636 15.7719 94.4721 15.809C94.3813 15.8454 94.2823 15.8928 94.1634 15.921C94.1042 15.934 94.0389 15.9429 93.9715 15.9313C93.9048 15.9196 93.8409 15.8818 93.812 15.8275C93.8739 15.8358 93.9213 15.8248 93.9633 15.8056C94.0052 15.787 94.0458 15.7616 94.0877 15.7341C94.1716 15.6799 94.2624 15.6181 94.3745 15.5721C94.4302 15.5501 94.492 15.5308 94.5594 15.524C94.6261 15.5171 94.7004 15.524 94.7664 15.5501C94.8324 15.5762 94.8874 15.6201 94.9266 15.6703C94.9658 15.7211 94.9899 15.7774 95.0022 15.8372Z"
                  fill="#512618"/>
            <path d="M88.755 34.2532C88.9001 34.1391 89.1483 33.9736 89.1112 33.8576C89.0851 33.7758 88.9248 33.8006 88.7942 33.7387C88.4181 33.5609 88.0268 33.2882 87.7649 33.0272C87.7422 33.0045 87.7202 32.9839 87.6982 32.9626C86.7259 33.5945 85.6498 34.7325 85.4539 36.0258C85.7502 36.111 86.1208 36.1886 86.6565 36.3095C87.2114 36.4345 88.0097 36.5746 88.042 36.4674C88.0537 36.4296 87.9567 36.4035 87.8838 36.3095C87.5813 35.9187 88.0014 34.8459 88.755 34.2532Z"
                  fill="white"/>
            <path d="M101.762 26.4532C101.032 25.8323 100.82 25.6737 100.677 25.7801C100.291 26.0679 99.9333 26.3474 99.606 26.6105C100.181 27.5287 101.075 28.2183 101.854 28.6187C102.039 28.2794 102.105 28.1221 102.382 27.8612C102.48 27.7691 102.615 27.6551 102.635 27.4745C102.658 27.2616 102.506 27.0871 101.762 26.4532Z"
                  fill="white"/>
            <path d="M98.6048 35.914H92.4975C92.4137 35.914 92.3738 35.8102 92.4364 35.7546L96.8129 31.7416C96.9401 31.6269 97.1051 31.5637 97.2763 31.5637H103.384C103.467 31.5637 103.507 31.6674 103.445 31.7231L99.0682 35.7361C98.941 35.8508 98.776 35.914 98.6048 35.914Z"
                  fill="#312553"/>
            <path d="M92.2505 35.1C92.5104 34.9723 92.8501 34.7628 93.1141 34.3541C93.2853 34.089 93.3727 33.9578 93.4565 33.8514C93.8237 33.3844 94.2425 33.1241 94.4707 32.9846C94.7994 32.7841 94.7864 32.8198 95.302 32.5197C95.3316 32.5025 95.4162 32.4647 95.4932 32.497C95.5702 32.5286 95.6899 32.8905 95.443 33.1364C95.2773 33.3019 95.1391 33.3809 94.9404 33.497C94.8977 33.5217 94.719 33.6611 94.6777 33.7202C94.6206 33.8019 94.4549 33.9771 94.4494 34.1309C94.4419 34.3425 94.512 34.4716 94.7203 34.4984C94.8551 34.5155 94.9665 34.4489 95.0304 34.4091C95.4409 34.1536 95.8054 33.9091 95.9896 33.7649C95.9896 33.7649 96.5218 33.4208 97.3002 33.2758C97.3181 33.2724 97.5484 33.2058 97.6062 33.4372C97.6186 33.4874 97.6268 33.5423 97.5539 33.622C97.3999 33.791 97.1943 33.8589 97.1943 33.8589C96.7742 34.0368 96.3032 34.5739 96.3389 34.6247C96.352 34.644 96.4785 34.5842 96.7302 34.4661C96.9736 34.3514 97.6186 33.9578 97.9183 33.8019C98.0923 33.7113 98.3426 33.5883 98.6967 33.6296C98.8397 33.6467 98.958 33.7264 98.9786 33.8088C99.0075 33.9249 98.9257 33.9269 98.9642 33.997C98.9876 34.0403 98.9992 34.0382 99.0336 34.078C99.1375 34.1996 98.9167 34.3253 98.8349 34.3651C98.3797 34.5849 97.7024 35.0835 97.2369 35.2621C96.7474 35.4496 96.7756 35.3411 96.1911 35.5588C95.8494 35.6859 95.8473 35.7202 95.3275 35.9455C94.6523 36.238 94.1902 36.3816 94.0788 36.4159C93.5927 36.565 93.3431 36.6391 93.0392 36.6378C92.6981 36.6357 92.2216 36.633 91.9679 36.2896C91.721 35.9544 91.7596 35.396 92.0153 35.1962C92.0937 35.1343 92.1164 35.1659 92.2505 35.1Z"
                  fill="#F79556"/>
        </g>
        <path d="M77.6378 33.4947C77.6378 34.2605 77.0171 34.8812 76.2513 34.8812C75.4854 34.8812 74.8647 34.2605 74.8647 33.4947C74.8647 32.7288 75.4854 32.1082 76.2513 32.1082C77.0171 32.1082 77.6378 32.7288 77.6378 33.4947Z"
              fill="#D44459"/>
        <path d="M140.05 51.0564L133.96 86.4051H119.697L125.789 51.0564H140.05Z" fill="#004DBE"/>
        <path opacity="0.45" d="M138.311 51.0564L132.219 86.4051H119.697L125.789 51.0564H138.311Z" fill="#004DBE"/>
        <path d="M112.959 59.7957C112.959 59.7957 107.518 65.9501 106.718 66.2064C105.918 66.4627 97.4753 67.8986 97.4753 67.8986L97.0244 70.6007C97.0244 70.6007 107.261 71.6012 108.435 70.9033C109.605 70.2023 116.531 64.3536 116.531 64.3536L112.959 59.7957Z"
              fill="#FFA18B"/>
        <path d="M109.182 62.9547C109.182 62.9547 113.697 55.8553 115.673 55.3427C117.65 54.8301 121.414 56.3463 119.305 60.2866C117.196 64.227 114.509 67.0402 114.509 67.0402C114.509 67.0402 110.454 66.543 109.182 62.9547Z"
              fill="#50BCFF"/>
        <path opacity="0.38"
              d="M116.427 55.247C115.883 55.9665 115.42 56.7447 114.991 57.5353C114.46 58.5172 113.987 59.5301 113.53 60.5492C113.067 61.5837 112.638 62.6367 112.279 63.7113C112.032 64.4555 111.822 65.2121 111.659 65.9779C113.082 66.8673 114.509 67.0402 114.509 67.0402C114.509 67.0402 117.199 64.227 119.305 60.2867C121.167 56.8065 118.449 55.2161 116.427 55.247Z"
              fill="#50BCFF"/>
        <path d="M131.224 67.6113C130.662 59.3477 130.282 57.2942 129.319 56.0837C128.362 54.8855 124.829 54.3606 122.34 54.2618C119.851 54.1629 116.219 54.867 115.185 55.5773C114.147 56.2875 113.53 59.2983 113.687 63.0441C113.826 66.2896 114.509 69.7359 114.481 71.2397C114.431 74.0282 113.882 75.1029 113.483 77.178C116.593 79.3427 128.633 80.5038 131.215 79.985C131.471 77.1657 131.496 71.6134 131.224 67.6113Z"
              fill="white"/>
        <path d="M118.004 56.1857C117.927 56.5593 118.078 56.9608 118.338 57.2449C118.597 57.529 118.98 57.6648 119.345 57.7667C120.052 57.9613 121.654 57.7513 122.374 56.9453C123.572 59.7925 124.955 62.8219 127.753 64.3504C128.528 64.7735 129.362 65.1317 130.23 65.246C131.107 65.3602 132.027 65.2089 132.706 64.6901C133.506 64.0787 133.868 63.0287 133.868 61.9973C133.868 60.969 133.546 59.9562 133.182 58.9803C132.555 57.3097 131.755 55.6545 130.449 54.444C128.485 52.619 125.703 52.0848 123.134 51.9983C120.972 51.9242 118.816 52.1157 116.84 52.8136C114.889 53.5022 113.101 54.7189 111.933 56.4358C110.423 58.6592 110.05 61.7133 110.973 64.3628C111.118 64.3813 111.359 64.4122 111.482 64.3319C112.863 63.4642 113.564 61.7935 114.425 60.3422C115.355 58.7827 116.612 57.3313 118.004 56.1857Z"
              fill="#50BCFF"/>
        <path opacity="0.24"
              d="M126.583 74.791C126.222 75.9151 125.808 77.0793 124.962 77.9007C123.541 79.281 121.293 79.3582 119.644 80.4483C120.074 81.6495 121.494 82.122 122.738 82.4061C125.193 82.965 127.815 83.3943 130.19 82.5574C130.993 82.2764 131.774 81.8256 132.237 81.1122C132.602 80.5502 132.741 79.8739 132.846 79.21C133.371 75.8873 133.219 72.4997 133.028 69.143C132.827 65.6165 132.583 62.09 132.284 58.5696C132.197 57.566 132.092 56.5192 131.53 55.6823C131.194 55.179 130.681 54.7652 130.11 54.5583C129.22 54.2309 129.378 54.8918 129.43 55.5773C129.548 57.1553 129.56 58.7394 129.477 60.3174C129.316 63.4487 128.797 66.5522 128.056 69.597C127.636 71.3448 127.136 73.0772 126.583 74.791Z"
              fill="#50BCFF"/>
        <path d="M100.631 66.9174C100.949 66.1238 101.601 65.4383 102.361 64.9164C102.592 64.7558 102.842 64.6076 103.117 64.5273C103.67 64.3606 104.315 64.4408 104.837 64.5613C105.504 64.7157 106.119 64.9905 106.74 65.2283C107.32 65.4506 107.901 65.673 108.481 65.8984C108.614 65.9509 108.778 66.0559 108.923 66.0744C110.109 66.2288 117.495 67.1799 118.823 67.2232C120.182 65.7841 122.245 61.9426 122.245 61.9426C122.245 61.9426 125.922 62.3904 127.028 64.5119C127.04 64.4532 122.56 70.8578 121.893 71.2098C121.225 71.5618 118.202 71.0585 114.549 70.1136C111.785 69.3971 109.392 68.6529 108.395 68.3318C108.25 68.3719 108.086 68.3997 107.904 68.412C105.971 68.5479 106.264 67.4486 106.171 67.3837L106.221 67.3189C105.847 67.4517 105.47 67.5752 105.091 67.6864C104.936 67.7296 104.732 67.7574 104.667 67.637C104.615 67.5412 104.692 67.4239 104.766 67.3312C105.013 67.0193 105.291 66.726 105.588 66.4511C104.964 66.868 104.337 67.2818 103.713 67.6987C103.59 67.7821 103.417 67.8655 103.306 67.7914C103.194 67.7172 103.241 67.5505 103.306 67.427C103.618 66.831 104.087 66.2875 104.664 65.8644C104.244 66.1825 103.821 66.4975 103.401 66.8155C103.114 67.0317 102.824 67.2509 102.515 67.4455C102.237 67.6215 101.891 67.7821 101.598 67.6833C101.561 67.6709 101.521 67.6493 101.508 67.6153C101.499 67.5814 101.515 67.5443 101.533 67.5134C101.894 66.8124 102.534 66.2442 103.161 65.6977C102.605 66.1238 102.046 66.5531 101.49 66.9792C101.274 67.1429 101.008 67.322 100.752 67.2602C100.696 67.2479 100.644 67.2201 100.616 67.1768C100.57 67.0996 100.597 67.0008 100.631 66.9174Z"
              fill="#FFC9B0"/>
        <path d="M121.071 67.0649C120.63 66.5553 120.352 66.018 120.151 65.456C121.226 63.8317 122.241 61.9387 122.241 61.9387C122.241 61.9387 125.919 62.3865 127.025 64.508C127.034 64.4709 125.153 67.1482 123.65 69.1307C122.612 68.7756 121.673 67.7597 121.071 67.0649Z"
              fill="#FFC9B0"/>
        <path d="M119.647 64.8877C119.99 64.4122 122.738 60.1106 123.683 58.511C124.18 57.6648 124.739 56.8125 125.567 56.1795C126.154 55.7286 127.812 54.7096 129.004 56.093C129.066 56.1671 129.127 56.2443 129.183 56.3215C129.245 56.4111 129.303 56.5006 129.356 56.5933C130.147 57.9644 129.915 59.845 129.446 61.4322C129.353 61.7441 129.242 62.0468 129.112 62.3463C128.284 64.2701 126.895 66.6664 125.524 68.4143C123.689 68.2784 120.561 66.6263 119.647 64.8877Z"
              fill="#50BCFF"/>
        <path opacity="0.38"
              d="M129.227 61.5341C128.875 62.0066 128.51 62.4667 128.13 62.9176C127.491 63.6741 126.796 64.3875 126.095 65.0885C125.407 65.7771 124.703 66.4441 123.962 67.0772C123.702 67.2995 123.437 67.5157 123.168 67.7256C124.011 68.1116 124.854 68.3649 125.524 68.4143C126.898 66.6664 128.288 64.2701 129.112 62.3463C129.242 62.0468 129.356 61.7441 129.446 61.4322C129.477 61.3272 129.508 61.2192 129.535 61.1111C129.434 61.2531 129.332 61.3952 129.227 61.5341Z"
              fill="#50BCFF"/>
        <path d="M118.431 51.9551L122.671 51.3406L123.134 54.8362C123.168 55.0894 123.094 55.3396 122.93 55.5403C122.566 55.9819 121.797 56.6983 120.531 56.8465C119.23 56.9978 119.067 56.4019 119.085 56.0313C119.104 55.6885 119.058 55.3427 118.996 54.9999L118.431 51.9551Z"
              fill="#FFC9B0"/>
        <path d="M117.671 54.3545C121.17 54.4873 122.671 51.1244 122.569 50.9824C122.445 50.8064 122.109 50.8156 121.84 50.862C119.929 51.1862 117.264 52.057 116.961 52.7673C116.655 53.4806 117.177 54.3329 117.671 54.3545Z"
              fill="#FFC9B0"/>
        <path d="M125.752 48.086C125.527 48.0767 125.261 48.0612 125.091 47.9007C124.931 47.7494 124.897 47.5023 124.804 47.317C124.495 46.7087 123.8 46.3844 123.174 46.8137C121.639 47.8636 122.361 49.6423 122.5 49.9233C122.698 50.3248 123.118 50.7046 123.56 50.8374C123.708 50.8837 123.98 50.9362 124.023 50.7293C124.048 50.6058 123.905 50.4884 123.887 50.3804C124.183 50.4946 124.427 50.6305 124.764 50.6428C125.144 50.6552 125.777 50.5471 125.968 50.1827C126.169 49.7998 125.783 49.6361 125.496 49.4787C125.987 49.4972 126.469 48.8394 126.641 48.4658C126.867 47.981 126.055 48.0983 125.752 48.086Z"
              fill="black"/>
        <path d="M111.986 40.2607C111.831 40.5047 111.76 40.7857 111.711 41.0667C111.581 41.777 111.566 42.5088 111.667 43.2222C111.711 43.5341 111.782 43.8521 111.952 44.1208C112.189 44.4975 112.594 44.7415 113.005 44.936C113.258 45.0565 113.554 45.1645 113.817 45.0626C113.993 44.9947 114.116 44.8434 114.206 44.6797C114.508 44.1177 114.422 43.4445 114.32 42.8176C114.224 42.2186 114.122 41.6102 113.872 41.0544C113.687 40.6406 113.409 40.2453 113.032 39.9674C112.619 39.6648 112.251 39.8439 111.986 40.2607Z"
              fill="black"/>
        <path d="M118.619 53.286C116.084 53.8975 114.713 53.286 113.968 52.4306C113.913 52.3658 113.86 52.3009 113.811 52.233C113.113 51.2757 112.545 49.1388 112.378 48.3205C112.366 48.2494 112.353 48.1815 112.338 48.1074C112.338 48.0981 112.338 48.0889 112.335 48.0827C112.125 46.9154 112.051 45.637 112.094 44.306C112.298 38.6549 117.044 36.2185 121.077 38.0775C122.599 38.7815 123.906 40.1001 124.675 41.6874C124.733 41.8078 124.792 41.9313 124.844 42.061C127.256 47.7368 123.433 52.1342 118.619 53.286Z"
              fill="#FFC9B0"/>
        <g opacity="0.21">
            <g opacity="0.21">
                <path opacity="0.21"
                      d="M114.45 52.1157C114.333 52.267 114.163 52.3689 113.969 52.4307C113.913 52.3658 113.861 52.301 113.811 52.233C113.113 51.2757 112.545 49.1388 112.378 48.3205C112.366 48.2495 112.354 48.1815 112.338 48.1074C112.662 48.1445 112.962 48.3452 113.203 48.5644C113.996 49.2963 114.503 50.2752 114.605 51.285C114.636 51.5753 114.629 51.881 114.45 52.1157Z"
                      fill="#D44459"/>
                <path opacity="0.21"
                      d="M121.951 51.18C122.01 51.1336 122.069 51.0904 122.121 51.041C123.023 50.2628 124.042 48.6601 123.128 47.4558C122.677 46.8629 121.831 46.7023 121.167 46.9555C120.5 47.2088 120 47.8017 119.676 48.4594C119.435 48.9504 119.274 49.5032 119.314 50.0621C119.357 50.621 119.626 51.1861 120.086 51.4826C120.695 51.8748 121.423 51.5783 121.951 51.18Z"
                      fill="#D44459"/>
            </g>
        </g>
        <path d="M127.287 43.3117C127.213 43.7903 127.105 44.2628 126.981 44.7322C126.932 44.9082 126.728 46.0045 126.574 46.0539C126.506 46.0755 126.441 46.0878 126.373 46.0847C126.228 46.0755 126.098 45.9921 125.99 45.8871C125.777 45.6833 125.576 45.4177 125.23 45.4702C124.733 45.5351 124.36 46.6591 123.853 46.6776C123.236 46.6993 122.992 46.1064 122.813 45.5258C122.843 44.9206 122.785 44.5994 122.955 43.321C122.964 43.2839 122.964 43.2438 122.967 43.2067C122.936 43.1511 122.905 43.1048 122.877 43.0708C122.494 42.5366 121.855 42.3421 121.29 42.0549C120.917 41.8665 120.62 41.567 120.308 41.3014C119.947 40.9895 119.632 40.6313 119.437 40.1959C119.252 39.779 119.144 39.3034 119.014 38.868C118.267 39.7481 117.285 40.5356 116.21 41.0265C115.469 41.3724 114.639 41.7059 113.842 41.9005C113.215 42.0549 112.242 42.2154 111.705 41.7646C111.211 41.3508 111.236 40.7332 111.353 40.1526C111.535 39.2787 112.143 38.6889 112.823 38.13C114.676 36.6076 117.047 35.5885 119.484 35.4681C120.018 35.4434 120.555 35.4588 121.086 35.5268C121.787 35.6132 122.476 35.7831 123.131 36.0425C123.356 36.1289 123.575 36.2247 123.791 36.3358C123.961 36.4254 124.128 36.5149 124.295 36.6168C124.851 36.9504 125.376 37.3796 125.823 37.8706C126.493 38.5901 127.006 39.4578 127.228 40.3873C127.232 40.3997 127.232 40.412 127.238 40.4244C127.46 41.3755 127.438 42.3606 127.287 43.3117Z"
              fill="black"/>
        <path d="M125.829 37.8737C125.422 38.0281 124.764 37.5865 124.421 37.5248C123.467 37.3549 124.495 38.7136 124.4 39.0564C124.292 39.4332 123.804 39.4486 123.47 39.4115C122.92 39.356 122.639 38.9854 122.173 38.7754C121.827 38.621 121.481 38.7847 121.383 39.1583C121.312 39.4239 121.645 40.1002 121.451 40.2855C121.157 40.5541 120.376 40.1187 120.166 39.9303C119.774 39.5814 119.474 38.9113 119.69 38.3987C119.749 38.2381 120.184 38.1887 120.36 38.093C120.725 37.9046 121.058 37.6668 121.417 37.4753C121.926 37.2067 122.417 36.8392 122.964 36.6231C123.208 36.5242 123.498 36.4223 123.797 36.342C123.967 36.4316 124.134 36.5211 124.301 36.6231C124.857 36.9504 125.382 37.3827 125.829 37.8737Z"
              fill="#004DBE"/>
        <path d="M123.14 36.0425C122.877 36.1691 122.615 36.2988 122.337 36.4007C121.728 36.6261 121.151 36.8793 120.586 37.1912C120.098 37.4599 119.594 37.7285 119.168 38.0868C118.915 38.2998 118.609 38.8032 118.396 38.8032C117.89 39.5443 116.834 39.5103 116.099 39.183C115.666 38.9916 115.555 38.6797 116.046 38.4295C116.581 38.1578 117.238 38.164 117.791 37.9138C118.226 37.7131 118.622 37.3642 118.452 36.8701C118.344 36.5644 117.989 36.0981 118.526 35.9838C118.934 35.8973 119.409 36.2957 119.814 36.3667C120.197 36.4347 120.37 36.3575 120.592 36.061C120.765 35.8294 120.864 35.6565 121.095 35.533C121.796 35.6132 122.485 35.7831 123.14 36.0425Z"
              fill="#004DBE"/>
        <path d="M114.339 47.3846C114.404 47.7891 114.252 48.1473 113.996 48.1875C113.743 48.2245 113.48 47.9281 113.416 47.5235C113.351 47.119 113.502 46.7608 113.758 46.7207C114.012 46.6836 114.271 46.9801 114.339 47.3846Z"
              fill="black"/>
        <path d="M119.629 46.6991C119.697 47.1191 119.515 47.4959 119.218 47.5391C118.925 47.5823 118.628 47.2797 118.56 46.8597C118.492 46.4397 118.675 46.063 118.971 46.0198C119.264 45.9735 119.558 46.2792 119.629 46.6991Z"
              fill="black"/>
        <path d="M115.667 49.9633C116.25 49.9201 116.837 49.7842 117.365 49.5403C117.893 49.2932 118.341 48.9474 118.77 48.5675C118.807 48.5367 118.872 48.5768 118.841 48.62C118.174 49.5773 116.843 50.1239 115.664 50.0807C115.589 50.0776 115.589 49.9695 115.667 49.9633Z"
              fill="#C72C19"/>
        <path d="M115.704 48.9844C115.364 48.9072 115.018 48.6509 115.027 48.2834C115.031 48.1197 115.105 47.953 115.25 47.8634C115.361 47.7924 115.5 47.7708 115.614 47.7028C115.904 47.533 115.762 47.2304 115.682 46.9802C115.565 46.6189 115.475 46.1959 115.262 45.8747C115.231 45.8315 115.142 45.8438 115.148 45.9056C115.169 46.1063 115.247 46.304 115.315 46.4923C115.389 46.6992 115.46 46.9061 115.528 47.113C115.562 47.218 115.657 47.3848 115.593 47.4898C115.555 47.5515 115.463 47.5824 115.401 47.6102C115.262 47.6689 115.136 47.7152 115.034 47.8294C114.851 48.0363 114.821 48.3451 114.938 48.586C115.074 48.8639 115.386 49.0183 115.691 49.0554C115.735 49.0585 115.744 48.9936 115.704 48.9844Z"
              fill="#C72C19"/>
        <path d="M114.228 44.0958C114.32 44.3243 113.984 44.2965 113.48 44.4386C112.977 44.5806 112.946 45.0191 112.795 45.0006C112.644 44.982 112.665 44.2131 113.314 43.9476C113.811 43.7437 114.166 43.9445 114.228 44.0958Z"
              fill="black"/>
        <path d="M117.365 43.5464C117.319 43.7533 117.939 43.6669 118.628 43.6206C119.317 43.5742 119.811 44.0652 119.888 43.8861C119.965 43.707 119.474 43.1265 118.64 43.1079C117.807 43.0894 117.396 43.4106 117.365 43.5464Z"
              fill="black"/>
        <path d="M123.995 45.8944C124.359 44.9618 125.116 44.2145 126.2 44.5511C126.552 44.6592 126.818 44.9618 126.938 45.2984C127.058 45.635 127.055 46.0025 127.003 46.3545C126.867 47.2439 126.391 48.1085 125.613 48.6057C125.317 48.7941 124.946 48.9269 124.613 48.8126C124.156 48.652 123.921 48.1672 123.816 47.7411C123.686 47.2192 123.754 46.5182 123.995 45.8944Z"
              fill="#FFC9B0"/>
        <path opacity="0.3"
              d="M125.206 45.0349C124.94 45.3004 124.795 45.6679 124.542 45.9273C124.363 46.1095 124.248 46.3782 123.943 46.0694C123.94 46.0663 123.936 46.0601 123.933 46.057C123.952 46.0014 123.97 45.9458 123.992 45.8934C124.332 45.0194 125.017 44.3092 125.996 44.4976C125.706 44.6118 125.437 44.8033 125.206 45.0349Z"
              fill="#FFC9B0"/>
        <path d="M126.255 45.4333C126.154 45.3623 126.03 45.3345 125.906 45.3407C125.622 45.3592 125.378 45.5507 125.227 45.773C125.07 46.0046 124.962 46.2794 124.875 46.5419C124.786 46.8168 124.742 47.107 124.761 47.3973C124.764 47.456 124.866 47.4529 124.866 47.3942C124.872 46.9187 125.063 46.4369 125.298 46.0231C125.335 45.9614 125.375 45.8996 125.422 45.8409C125.567 46.0386 125.647 46.2733 125.663 46.5141C125.681 46.8044 125.61 47.07 125.517 47.3417C125.508 47.3695 125.545 47.3911 125.564 47.3664C125.913 46.8878 125.891 46.1961 125.499 45.7483C125.582 45.6618 125.681 45.5908 125.801 45.5568C125.99 45.5013 126.252 45.5599 126.364 45.7267C126.385 45.7576 126.444 45.7329 126.435 45.6958C126.401 45.5908 126.351 45.4982 126.255 45.4333Z"
              fill="#C72C19"/>
        <path d="M66.3045 51.3435H87.9794C88.4055 51.3435 88.7854 51.606 88.9336 52.0043L94.7576 67.5526H71.4059L65.6745 52.2514C65.5109 51.8129 65.8351 51.3435 66.3045 51.3435Z"
              fill="#94D5FF"/>
        <path d="M65.5142 51.3445H87.1891C87.6152 51.3445 87.9951 51.607 88.1433 52.0053L93.9673 67.5536H70.6156L64.8843 52.2524C64.7206 51.8139 65.0448 51.3445 65.5142 51.3445Z"
              fill="#50BCFF"/>
        <path opacity="0.51"
              d="M65.5145 51.3445H83.7771C74.8959 51.5699 70.1496 51.8386 68.3246 52.1072C66.4996 52.3759 65.2705 52.7804 65.5886 54.1268L64.8876 52.2524C64.7208 51.8139 65.0451 51.3445 65.5145 51.3445Z"
              fill="#94D5FF"/>
        <path opacity="0.35"
              d="M70.5014 66.2619C75.2817 67.5589 81.4053 67.2378 85.2221 63.7359C87.2478 61.88 88.2329 59.0421 88.1959 56.3308C88.1742 54.8023 87.8901 52.9155 87.1799 51.3406H87.1892C87.6153 51.3406 87.9951 51.6031 88.1434 52.0014L93.9674 67.5496H70.6157L70.0876 66.1415C70.2266 66.1847 70.3656 66.2249 70.5014 66.2619Z"
              fill="#50BCFF"/>
        <path d="M81.9548 62.3121L80.312 60.9936C80.1545 60.8669 79.9661 60.8144 79.8025 60.8515L78.0948 61.2282C77.6841 61.3178 77.227 60.8577 77.3228 60.4501L77.7119 58.7455C77.7489 58.5818 77.6964 58.3934 77.5729 58.2359L76.2667 56.5838C75.9548 56.1886 76.1524 55.7068 76.6063 55.7717L78.49 56.0373C78.6691 56.062 78.8266 55.9971 78.9131 55.8643L79.8148 54.4685C80.031 54.135 80.6115 54.2956 80.7968 54.7434L81.5719 56.6116C81.646 56.7907 81.7942 56.9421 81.9733 57.0162L83.8354 57.8036C84.2832 57.992 84.4407 58.5756 84.1041 58.7887L82.699 59.6781C82.5662 59.7614 82.4983 59.922 82.523 60.1011L82.7731 61.9848C82.8318 62.4326 82.3501 62.6271 81.9548 62.3121Z"
              fill="#414379"/>
        <path d="M81.9484 61.6482L80.1728 60.2246C80.1203 60.1814 80.0554 60.1628 79.9999 60.1752L78.1532 60.5797C78.0143 60.6106 77.8599 60.4531 77.8907 60.3142L78.3107 58.4737C78.3231 58.4181 78.3045 58.3533 78.2644 58.3008L76.8532 56.5159C76.7482 56.38 76.8161 56.2194 76.9674 56.241L79.0024 56.5282C79.0642 56.5375 79.1167 56.5159 79.1476 56.4696L80.1203 54.9595C80.1944 54.8453 80.392 54.9008 80.4538 55.0522L81.2907 57.0717C81.3154 57.1335 81.3679 57.1829 81.4265 57.2076L83.4399 58.0599C83.5912 58.1247 83.6468 58.3224 83.5326 58.3934L82.0133 59.3538C81.9669 59.3816 81.9453 59.4372 81.9546 59.4958L82.2263 61.5308C82.2449 61.6883 82.0812 61.7563 81.9484 61.6482Z"
              fill="#FFD245"/>
        <path d="M80.7874 59.2797L80.1729 58.7856C80.1544 58.7702 80.1328 58.764 80.1142 58.7702L79.475 58.9122C79.4256 58.9215 79.3731 58.869 79.3855 58.8196L79.5306 58.1804C79.5337 58.1619 79.5275 58.1402 79.5152 58.1217L79.0273 57.5041C78.9902 57.4578 79.0149 57.4022 79.0674 57.4084L79.7715 57.5072C79.7931 57.5103 79.8116 57.5041 79.8209 57.4856L80.1575 56.9637C80.1822 56.9236 80.2501 56.9421 80.2717 56.9977L80.562 57.6956C80.5713 57.7172 80.5898 57.7357 80.6083 57.7419L81.3062 58.0383C81.3587 58.06 81.3772 58.1279 81.3371 58.1526L80.8121 58.4861C80.7967 58.4954 80.7874 58.5139 80.7905 58.5355L80.8832 59.2396C80.8893 59.2921 80.8337 59.3168 80.7874 59.2797Z"
              fill="white"/>
        <path d="M75.3403 62.4544C75.8252 64.1528 77.4186 65.4652 78.9008 65.3849C80.3831 65.3046 81.1922 63.8656 80.7073 62.1672C80.2225 60.4688 78.6291 59.1564 77.1468 59.2367C75.6646 59.3169 74.8555 60.756 75.3403 62.4544Z"
              fill="white"/>
        <path d="M75.8316 62.4295C76.2268 63.8161 77.53 64.8907 78.7436 64.8258C79.9541 64.761 80.6149 63.5845 80.2196 62.1979C79.8244 60.8114 78.5212 59.7368 77.3076 59.8016C76.0971 59.8634 75.4363 61.0399 75.8316 62.4295Z"
              fill="#D44459"/>
        <path d="M79.679 62.0989C79.6512 62.031 79.5802 62.0094 79.5184 62.0557C79.3115 62.2256 79.0738 61.7963 78.9749 61.6728C78.765 61.4165 78.555 61.1602 78.345 60.9039C78.2647 60.8051 78.0578 60.8514 78.0393 60.9842C78.0146 61.1633 78.0269 61.3393 78.0516 61.5153C78.0207 61.469 77.996 61.4227 77.9652 61.3794C77.8509 61.2219 77.6687 61.0675 77.4618 61.1509C77.2426 61.2374 77.2333 61.4937 77.2333 61.6944C77.2364 62.1885 77.3661 62.6702 77.5112 63.1365C77.5483 63.257 77.5884 63.3743 77.6286 63.4916C77.6625 63.5966 77.6841 63.7263 77.7336 63.8282C77.7243 63.8252 77.7181 63.8221 77.7089 63.8159C77.6656 63.7912 77.6286 63.7541 77.5915 63.7233C77.5112 63.6522 77.4371 63.575 77.3661 63.4947C77.2024 63.3064 77.0696 63.084 76.9739 62.8555C76.8998 62.6702 76.7608 62.346 76.9091 62.17C76.9832 62.0835 76.8689 61.9693 76.7855 62.0465C76.4675 62.3244 76.6775 62.8555 76.8226 63.1705C76.9152 63.3774 77.0418 63.5658 77.187 63.7418C77.3105 63.89 77.4649 64.0691 77.6533 64.1371C77.8324 64.2019 78.0485 64.137 78.0702 63.9209C78.0825 63.8097 78.0362 63.6893 78.0084 63.5812C77.9713 63.4422 77.9343 63.3064 77.8941 63.1705C77.7521 62.6702 77.5915 62.17 77.6039 61.6419C77.6039 61.608 77.6039 61.5709 77.61 61.5369V61.5338C77.6286 61.5524 77.6502 61.574 77.6594 61.5894C77.7459 61.7037 77.8169 61.8303 77.888 61.9569C78.0269 62.2132 78.1319 62.4819 78.2091 62.7598C78.2678 62.9729 78.5519 62.9111 78.5704 62.7104C78.6075 62.3244 78.4839 61.9569 78.4222 61.5802C78.6044 61.8118 78.7897 62.0403 78.9904 62.2534C79.1108 62.38 79.2837 62.485 79.4659 62.4417C79.6203 62.4078 79.7439 62.2595 79.679 62.0989Z"
              fill="#FFD245"/>
        <path d="M59.1215 55.9387C58.1796 55.1636 58.1024 53.7215 58.4328 52.6376C58.6027 52.0818 58.7756 51.4889 58.8497 50.9114C58.9115 50.4358 58.9578 49.9047 58.788 49.4446C58.9146 49.6515 59.0628 49.7935 59.1925 50.0004C59.3932 50.3185 59.5198 50.6582 59.6372 51.0133C59.8224 51.5691 59.9614 52.1095 59.9614 52.6994C59.9614 53.2614 59.8224 53.8049 59.7298 54.3576C59.668 54.7251 59.6217 55.0988 59.4982 55.4508C59.4581 55.5527 59.2759 56.0653 59.1215 55.9387Z"
              fill="#94D5FF"/>
        <path d="M58.2726 56.0344C57.1424 55.5743 56.3364 54.827 55.938 53.7771C55.7651 53.3201 55.6508 52.8538 55.5675 52.3751C55.5273 52.1435 55.4625 51.8965 55.4563 51.6587C55.4594 51.7915 55.5767 51.9057 55.6632 51.9984C55.8547 52.2084 56.0708 52.3782 56.287 52.5604C56.5248 52.7611 56.744 52.9588 57.0034 53.1317C57.2782 53.317 57.5778 53.493 57.8279 53.7184C58.3189 54.1569 58.7203 54.7189 58.8902 55.3612C58.9519 55.5959 58.9272 55.8986 58.8284 55.985C58.708 56.0931 58.4702 56.1147 58.2726 56.0344Z"
              fill="#94D5FF"/>
        <path d="M59.0847 55.9046C58.9118 55.6453 59.1897 55.1481 59.3348 54.9474C59.6899 54.4502 60.2303 54.0426 60.7677 53.7554C61.3637 53.4342 62.0152 53.2211 62.6514 52.9957C62.9231 52.9 63.2103 52.8166 63.4481 52.653C63.5747 52.5665 63.7692 52.4399 63.8063 52.2793C63.8032 52.9803 63.2968 53.5917 62.8644 54.1012C62.4167 54.6293 61.9164 55.0307 61.2895 55.321C60.9097 55.497 60.5422 55.6453 60.1501 55.7842C59.9277 55.8614 59.6992 55.9386 59.4645 55.9479C59.3256 55.9541 59.1557 56.0096 59.0847 55.9046Z"
              fill="#94D5FF"/>
        <path d="M63.3677 47.9004C62.818 48.447 62.3795 49.1078 61.9596 49.7563C61.518 50.4419 61.1134 51.1521 60.7491 51.884C60.0419 53.3045 59.4706 54.8238 59.1618 56.3832C59.1495 56.4481 59.239 56.4728 59.2606 56.411C59.73 54.8855 60.2704 53.3971 60.9868 51.9674C61.3327 51.2818 61.7125 50.6117 62.1263 49.9663C62.5586 49.2931 63.0558 48.6663 63.485 47.9931C63.5375 47.9189 63.4295 47.8387 63.3677 47.9004Z"
              fill="#004DBE"/>
        <path d="M58.291 52.233C57.9112 50.97 57.3955 49.6391 56.4474 48.6941C56.4166 48.6633 56.3579 48.7065 56.3857 48.7435C57.1948 49.8274 57.7043 51.0565 58.0594 52.3534C58.4392 53.7338 58.5535 55.1265 58.7048 56.5439C58.7141 56.6304 58.8283 56.6304 58.8376 56.5439C58.9827 55.1141 58.7017 53.5979 58.291 52.233Z"
              fill="#004DBE"/>
        <path d="M56.1201 49.8026C55.8823 49.8088 55.589 49.7223 55.3913 49.5864C55.2153 49.466 55.1381 49.2745 55.0795 49.0738C55.0084 48.8329 54.8726 48.6785 54.6842 48.518C54.4341 48.3049 54.1623 48.1505 53.835 48.1103C53.7732 48.1042 53.5941 48.1196 53.5756 48.0393C53.5509 47.9374 53.8165 47.7861 53.8844 47.7521C54.1006 47.6441 54.3661 47.5946 54.607 47.5916C54.783 47.5885 54.9652 47.6873 55.135 47.6657C54.9498 47.5236 54.8139 47.2272 54.7984 47.0017C54.783 46.7825 54.8602 46.3285 55.1103 46.2421C55.2956 46.1772 55.2894 46.4644 55.3111 46.5818C55.3512 46.7948 55.4408 47.1345 55.6106 47.2797C55.6075 46.9523 55.7897 46.4706 56.1294 46.3656C56.1479 46.5756 55.9873 46.8134 56.0676 47.0264C56.1325 46.8998 56.2128 46.7887 56.3301 46.6929C56.4011 46.6343 56.5123 46.5015 56.6142 46.5077C56.5494 46.6466 56.5463 46.8504 56.5401 47.0048C56.5247 47.3414 56.7964 47.4742 57.0095 47.6904C57.1237 47.8077 57.2689 47.9034 57.3399 48.0548C57.448 48.2771 57.448 48.5766 57.414 48.8144C57.3492 49.222 56.9971 49.7748 56.1201 49.8026Z"
              fill="#D44459"/>
        <path d="M65.1619 46.9307C65.202 46.9184 65.2854 46.9153 65.2977 46.8659C65.3317 46.7269 64.8839 46.6559 64.8098 46.6405C64.6493 46.6065 64.4825 46.6189 64.3219 46.6497C64.2694 46.659 64.1737 46.7115 64.1521 46.6528C64.1336 46.6003 64.2416 46.4336 64.2633 46.3872C64.2972 46.3162 64.3652 46.2236 64.3528 46.1402C64.1552 46.1062 63.7692 46.3131 63.729 46.517C63.6148 46.3564 63.5746 46.1464 63.448 45.9889C63.3863 45.9086 63.3029 45.8129 63.2102 45.7758C63.1608 45.7573 63.0311 45.7295 62.9848 45.7666C62.9385 45.8036 62.9539 45.9024 62.957 45.9549C62.9694 46.134 63.0002 46.3286 62.957 46.5077C62.9014 46.7362 62.7347 46.7887 62.5494 46.8937C62.429 46.9647 62.3178 47.0666 62.2282 47.1716C62.0955 47.3291 62.009 47.5206 61.9966 47.7275C61.9719 48.1258 62.2097 48.4964 62.5062 48.7372C62.5865 48.8052 62.676 48.8639 62.7686 48.9133C63.3492 49.2221 64.22 49.361 64.5628 48.6446C64.711 48.3327 64.7048 48.0208 64.6771 47.6873C64.674 47.6348 64.6709 47.5761 64.6956 47.5298C64.7419 47.4372 64.8623 47.397 64.955 47.3754C65.0322 47.3569 65.1711 47.3229 65.0445 47.2488C64.9457 47.1871 64.8006 47.2334 64.6925 47.2272C64.7759 47.1438 64.8623 47.0851 64.9642 47.0265C65.026 46.9863 65.0878 46.9524 65.1619 46.9307Z"
              fill="#D44459"/>
        <path d="M63.6577 63.1432C63.6577 61.6733 62.9536 60.6821 61.8635 60.1139C61.1409 59.7372 60.6592 59.0238 60.6592 58.2086V55.874H57.6391V58.2086C57.6391 59.0238 57.1574 59.7372 56.4348 60.1139C55.3447 60.6821 54.6406 61.6733 54.6406 63.1432C54.6406 64.116 54.9494 65.1536 55.4775 66.0553C55.9561 66.8736 57.0956 67.8093 57.0956 68.7573H61.2027C61.2027 67.8093 62.3422 66.8767 62.8208 66.0553C63.3489 65.1566 63.6577 64.1191 63.6577 63.1432Z"
              fill="#FFD245"/>
        <path d="M60.7919 56.2688H57.5093C57.4043 56.2688 57.3179 56.1824 57.3179 56.0774V55.9075C57.3179 55.8025 57.4043 55.7161 57.5093 55.7161H60.7919C60.8969 55.7161 60.9834 55.8025 60.9834 55.9075V56.0774C60.9834 56.1824 60.8969 56.2688 60.7919 56.2688Z"
              fill="#F59711"/>
    </g>
    <defs>
        <clipPath id="clip0">
            <rect width="23.469" height="25.3218" fill="white" transform="translate(83.7739 10.5969)"/>
        </clipPath>
    </defs>
</svg>
