<svg xmlns="http://www.w3.org/2000/svg" width="34" height="33" fill="none" xmlns:v="https://vecta.io/nano"><g fill="#ff8d1a"><path d="M28.412 9.82a2.8 2.8 0 0 0-3.719 1.355l-7.88 16.91a2.8 2.8 0 0 0-.259 1.061c-.016.367.04.734.167 1.08s.32.662.567.933a2.8 2.8 0 0 0 1.942.904 2.8 2.8 0 0 0 2.012-.734 2.8 2.8 0 0 0 .645-.881l7.88-16.9a2.8 2.8 0 0 0-1.355-3.719z"/><path fill-rule="evenodd" d="M31.63 1.132l1.284-.49a.54.54 0 0 1 .227-.034c.077.005.152.027.22.064a.54.54 0 0 1 .269.359l.29 1.345a2.93 2.93 0 0 1-.291 2l-.807 1.487.093.126a1.39 1.39 0 0 1 .047 1.572l-.72 1.105a.27.27 0 0 1-.218.123.27.27 0 0 1-.225-.109 5.03 5.03 0 0 0-.941-.975l-.94 1.737a.28.28 0 0 1-.166.152.28.28 0 0 1-.224-.02.28.28 0 0 1-.137-.179.28.28 0 0 1 .039-.222l.71-1.307c-.086-.066-.176-.127-.27-.183l-.463.85a.28.28 0 0 1-.166.162.28.28 0 0 1-.231-.018c-.035-.02-.066-.046-.09-.078s-.04-.07-.05-.108a.28.28 0 0 1 .048-.227l.452-.83-.308-.113-.69 1.273a.28.28 0 0 1-.166.152.28.28 0 0 1-.224-.02.28.28 0 0 1-.137-.179.28.28 0 0 1 .039-.222l.94-1.73c-.43-.14-.877-.223-1.33-.247a.27.27 0 0 1-.214-.129.27.27 0 0 1-.016-.249l.538-1.2c.114-.258.303-.474.544-.62s.52-.215.8-.197l.156.008.816-1.5a2.87 2.87 0 0 1 1.509-1.329zm-.354 3.383c.14.077.3.11.46.097s.31-.075.435-.176.216-.236.264-.388.05-.316.003-.47-.136-.3-.26-.392-.274-.165-.433-.18-.32.015-.46.1-.257.19-.332.332c-.1.187-.123.407-.062.6s.2.375.385.478z"/></g><path d="M12.65 14.9a2.8 2.8 0 0 1 3.72 1.357l5.513 11.824c.155.333.243.694.26 1.06a2.8 2.8 0 0 1-.167 1.079c-.126.345-.32.662-.567.933a2.8 2.8 0 0 1-3.021.738 2.8 2.8 0 0 1-1.579-1.448L11.295 18.62a2.8 2.8 0 0 1 1.355-3.72z" fill="#00b5ce"/><path d="M15.01 14.9a2.8 2.8 0 0 0-2.141-.092 2.8 2.8 0 0 0-1.578 1.449L5.776 28.08a2.8 2.8 0 0 0-.092 2.14 2.8 2.8 0 0 0 1.448 1.578 2.8 2.8 0 0 0 3.72-1.355l5.513-11.824a2.8 2.8 0 0 0-1.355-3.719z" fill="#ff8d1a"/><path d="M1.618 14.9c.333-.155.694-.243 1.06-.26s.734.04 1.08.167a2.8 2.8 0 0 1 1.578 1.449L10.85 28.08a2.8 2.8 0 0 1 .092 2.14c-.126.345-.32.662-.567.933a2.8 2.8 0 0 1-3.021.738 2.8 2.8 0 0 1-1.579-1.448L.26 18.62a2.8 2.8 0 0 1-.092-2.141A2.8 2.8 0 0 1 1.618 14.9z" fill="#00b5ce"/></svg>