<?xml version="1.0" encoding="utf-8"?>
<!-- Generator: Adobe Illustrator 25.2.1, SVG Export Plug-In . SVG Version: 6.00 Build 0)  -->
<svg version="1.1" id="Layer_1" xmlns:v="https://vecta.io/nano"
	 xmlns="http://www.w3.org/2000/svg" xmlns:xlink="http://www.w3.org/1999/xlink" x="0px" y="0px" viewBox="0 0 153 42"
	 style="enable-background:new 0 0 153 42;" xml:space="preserve">
<style type="text/css">
	.st0{fill:#FF8D1A;}
	.st1{fill:#00B5CE;}
	.st2{fill-rule:evenodd;clip-rule:evenodd;fill:#FF8D1A;}
</style>
<path class="st0" d="M138,40.9h-1.9c-0.6,0-1.2-0.1-1.8-0.4c-1.1-0.5-2.1-1.4-2.6-2.6c-0.2-0.6-0.4-1.2-0.4-1.8c0-0.4,0.2-0.8,0.4-1
	c0.3-0.3,0.6-0.4,1-0.4c0.2,0,0.4,0,0.6,0.1c0.2,0.1,0.3,0.2,0.5,0.3c0.1,0.1,0.2,0.3,0.3,0.5c0.1,0.2,0.1,0.4,0.1,0.6
	c0,0.2,0,0.5,0.1,0.7c0.1,0.2,0.2,0.4,0.4,0.6c0.2,0.2,0.4,0.3,0.6,0.4c0.2,0.1,0.5,0.1,0.7,0.1h1.9c0.2,0,0.5,0,0.7-0.1
	c0.2-0.1,0.4-0.2,0.6-0.4c0.2-0.2,0.3-0.4,0.4-0.6c0.1-0.2,0.1-0.5,0.1-0.7v-9.8c0-0.4,0.1-0.8,0.4-1c0.1-0.1,0.3-0.3,0.5-0.3
	c0.2-0.1,0.4-0.1,0.6-0.1c0.2,0,0.4,0,0.6,0.1c0.2,0.1,0.3,0.2,0.5,0.3c0.1,0.1,0.2,0.3,0.3,0.5c0.1,0.2,0.1,0.4,0.1,0.6v9.9
	c0,0.6-0.1,1.2-0.4,1.8c-0.2,0.6-0.6,0.9-1,1.3c-0.4,0.4-1,0.8-1.5,1.1C139.3,40.8,138.6,40.9,138,40.9L138,40.9z M145.9,40.9
	c-0.4,0-0.7-0.1-1-0.4l0,0c-0.3-0.3-0.4-0.6-0.4-1v-6.2c0-0.5,0.1-1,0.3-1.4c0.2-0.5,0.5-0.9,0.8-1.2c0.7-0.7,1.6-1.1,2.6-1.1h2.2
	c0.2,0,0.4,0,0.5,0.1c0.2,0.1,0.3,0.2,0.5,0.3c0.1,0.1,0.2,0.3,0.3,0.4c0.1,0.2,0.1,0.4,0.1,0.5c0,0.2,0,0.4-0.1,0.5
	c-0.1,0.2-0.2,0.3-0.3,0.5c-0.3,0.3-0.6,0.4-1,0.4h-2.2c-0.1,0-0.2,0-0.3,0.1c-0.1,0-0.2,0.1-0.3,0.2c-0.1,0.1-0.2,0.2-0.2,0.3
	c0,0.1-0.1,0.2-0.1,0.3v6.2c0,0.2,0,0.4-0.1,0.5c-0.1,0.2-0.2,0.3-0.3,0.5c-0.1,0.1-0.3,0.2-0.5,0.3
	C146.3,40.9,146.1,40.9,145.9,40.9L145.9,40.9z"/>
<g>
	<path class="st1" d="M54.2,40.9h-0.7c-0.3,0-0.6-0.1-0.9-0.1c-0.3-0.1-0.6-0.2-0.8-0.3h0c-0.5-0.2-0.9-0.5-1.3-0.9
		c-0.2,0.1-0.3,0.3-0.5,0.4c-0.3,0.2-0.5,0.3-0.8,0.5h0c-0.6,0.3-1.3,0.4-1.9,0.4h-0.5c-0.6,0-1.2-0.1-1.8-0.4
		c-1.1-0.5-2.1-1.4-2.6-2.6c-0.2-0.6-0.4-1.2-0.4-1.8v-9.8c0-0.8,0.7-1.5,1.5-1.5c0.2,0,0.4,0,0.6,0.1c0.2,0.1,0.3,0.2,0.5,0.3
		c0.3,0.3,0.4,0.6,0.4,1v9.8c0,0.2,0,0.5,0.1,0.7c0.2,0.4,0.5,0.8,1,1c0.2,0.1,0.5,0.1,0.7,0.1h0.5c0.2,0,0.5,0,0.7-0.1
		s0.4-0.2,0.6-0.4c0.2-0.2,0.3-0.4,0.4-0.6c0.1-0.2,0.1-0.5,0.1-0.7v-9.8c0-0.4,0.2-0.8,0.4-1c0.1-0.1,0.3-0.3,0.5-0.3
		c0.2-0.1,0.4-0.1,0.6-0.1c0.4,0,0.8,0.2,1,0.4c0.3,0.3,0.4,0.6,0.4,1v9.8c0,0.2,0,0.5,0.1,0.7c0.1,0.2,0.2,0.4,0.4,0.6
		c0.2,0.2,0.4,0.3,0.6,0.4c0.2,0.1,0.4,0.1,0.7,0.1h0.5c0.2,0,0.5,0,0.7-0.1c0.2-0.1,0.4-0.2,0.6-0.4c0.2-0.2,0.3-0.4,0.4-0.6
		c0.1-0.2,0.2-0.5,0.2-0.7v-9.8c0-0.4,0.2-0.8,0.4-1c0.3-0.3,0.6-0.4,1-0.4c0.4,0,0.8,0.2,1,0.4c0.3,0.3,0.4,0.6,0.4,1v9.8
		c0,0.6-0.1,1.2-0.4,1.8c-0.2,0.6-0.6,1.1-1,1.5c-0.4,0.4-1,0.8-1.5,1.1C55.4,40.8,54.8,40.9,54.2,40.9L54.2,40.9z M69.4,40.9
		c-0.2,0-0.4,0-0.5-0.1c-0.2-0.1-0.3-0.2-0.5-0.3c-0.1-0.1-0.2-0.3-0.3-0.5C68,39.8,68,39.6,68,39.4v-6.1c0-0.3-0.1-0.5-0.3-0.7
		c-0.1-0.1-0.2-0.2-0.3-0.2c-0.1,0-0.2-0.1-0.4-0.1h-2.5c-0.1,0-0.3,0-0.4,0.1c-0.1,0-0.2,0.1-0.3,0.2c-0.1,0.1-0.2,0.2-0.2,0.3
		c0,0.1-0.1,0.2-0.1,0.4v6.1c0,0.2,0,0.4-0.1,0.5c-0.1,0.2-0.2,0.3-0.3,0.5c-0.1,0.1-0.3,0.2-0.5,0.3c-0.2,0.1-0.4,0.1-0.5,0.1
		c-0.2,0-0.4,0-0.5-0.1c-0.2-0.1-0.3-0.2-0.5-0.3c-0.1-0.1-0.2-0.3-0.3-0.5c-0.1-0.2-0.1-0.4-0.1-0.5V26.3c0-0.2,0-0.4,0.1-0.5
		c0.1-0.2,0.2-0.3,0.3-0.5c0.1-0.1,0.3-0.2,0.5-0.3c0.2-0.1,0.4-0.1,0.5-0.1c0.2,0,0.4,0,0.5,0.1c0.2,0.1,0.3,0.2,0.5,0.3
		c0.3,0.3,0.4,0.6,0.4,1v3.3c0.3-0.1,0.6-0.1,0.9-0.1h2.6c0.5,0,1,0.1,1.5,0.3c0.5,0.2,0.9,0.5,1.2,0.8c0.3,0.3,0.6,0.8,0.8,1.2
		c0.2,0.5,0.3,1,0.3,1.5v6.1c0,0.4-0.1,0.7-0.4,1c-0.1,0.1-0.3,0.2-0.5,0.3C69.8,40.8,69.6,40.9,69.4,40.9L69.4,40.9z M74,40.9
		c-0.4,0-0.7-0.1-1-0.4l0,0c-0.3-0.3-0.4-0.6-0.4-1v-9.2c0-0.4,0.1-0.7,0.4-1c0.3-0.3,0.6-0.4,1-0.4c0.2,0,0.4,0,0.5,0.1
		s0.3,0.2,0.5,0.3c0.3,0.3,0.4,0.6,0.4,1v9.2c0,0.4-0.1,0.7-0.4,1C74.8,40.7,74.4,40.9,74,40.9L74,40.9z M74,28.1
		c-0.4,0-0.8-0.2-1.1-0.4l0,0c-0.3-0.3-0.4-0.7-0.4-1.1c0-0.4,0.2-0.8,0.4-1.1c0.3-0.3,0.7-0.5,1.1-0.5c0.2,0,0.4,0,0.6,0.1
		c0.6,0.2,1,0.8,1,1.5c0,0.2,0,0.4-0.1,0.6c-0.1,0.2-0.2,0.4-0.4,0.5c-0.1,0.1-0.3,0.3-0.5,0.3C74.5,28.1,74.3,28.1,74,28.1L74,28.1
		z M82.9,40.9h-0.3c-0.5,0-1-0.1-1.5-0.3h0c-0.4-0.2-0.8-0.5-1.2-0.8c-0.3-0.3-0.6-0.7-0.8-1.2v0c-0.2-0.5-0.3-1-0.3-1.5v-6.6h-1.1
		c-0.4,0-0.7-0.1-1-0.4l0,0c-0.3-0.3-0.4-0.6-0.4-1c0-0.4,0.1-0.7,0.4-1h0c0.1-0.1,0.3-0.2,0.5-0.3c0.2-0.1,0.4-0.1,0.5-0.1h1.1
		v-1.4c0-0.2,0-0.4,0.1-0.5c0.1-0.2,0.2-0.3,0.3-0.5c0.1-0.1,0.3-0.2,0.5-0.3c0.2-0.1,0.4-0.1,0.5-0.1c0.8,0,1.4,0.6,1.4,1.4v1.3
		h2.2c0.2,0,0.4,0,0.5,0.1c0.2,0.1,0.3,0.2,0.4,0.3c0.3,0.3,0.4,0.6,0.4,1v0c0,0.4-0.1,0.7-0.4,1c-0.3,0.3-0.6,0.4-1,0.4h-2.2v6.6
		c0,0.2,0.1,0.5,0.3,0.7c0.1,0.1,0.2,0.2,0.3,0.2c0.1,0,0.2,0.1,0.4,0.1h0.3c0.3,0,0.6,0.1,0.8,0.2c0.2,0.2,0.4,0.4,0.5,0.6
		c0.1,0.3,0.1,0.6,0.1,0.8c-0.1,0.3-0.2,0.5-0.4,0.7h0C83.6,40.8,83.3,40.9,82.9,40.9L82.9,40.9z M93.3,40.9h-4.5
		c-0.5,0-1-0.1-1.4-0.3c-0.9-0.4-1.6-1.1-2-2v0c-0.2-0.5-0.3-1-0.3-1.5v-3.9c0-0.5,0.1-1,0.3-1.4c0.2-0.4,0.5-0.8,0.8-1.2
		c0.3-0.3,0.7-0.6,1.2-0.8c0.5-0.2,0.9-0.3,1.4-0.3h2.3c0.5,0,1,0.1,1.4,0.3c0.4,0.2,0.8,0.5,1.2,0.8c0.3,0.3,0.6,0.7,0.8,1.2
		c0.2,0.5,0.3,0.9,0.3,1.4v2c0,0.2,0,0.4-0.1,0.5c-0.1,0.3-0.4,0.6-0.8,0.8c-0.2,0.1-0.4,0.1-0.5,0.1h-5.5v0.5
		c0,0.5,0.4,0.9,0.9,0.9c0,0,0,0,0.1,0h4.5c0.4,0,0.7,0.1,1,0.4c0.1,0.1,0.2,0.3,0.3,0.5c0.1,0.2,0.1,0.4,0.1,0.5
		c0,0.2,0,0.4-0.1,0.5c-0.1,0.2-0.2,0.3-0.3,0.5C94.1,40.7,93.7,40.9,93.3,40.9L93.3,40.9z M87.9,33.8h4.1v-0.6c0-0.3-0.1-1-0.3-1.2
		l0,0c-0.2-0.2-0.4-0.3-0.6-0.3h-2.3c-0.2,0-0.5,0.1-0.7,0.3c-0.2,0.2-0.3,0.9-0.3,1.2L87.9,33.8L87.9,33.8z M107.5,40.9
		c-0.2,0-0.4,0-0.6-0.1c-0.2-0.1-0.3-0.2-0.5-0.3c-0.1-0.1-0.3-0.3-0.3-0.5c-0.1-0.2-0.1-0.4-0.1-0.6v-5.1h-6.7v5
		c0,0.2,0,0.4-0.1,0.6c-0.1,0.2-0.2,0.3-0.3,0.5c-0.1,0.1-0.3,0.3-0.5,0.3c-0.2,0.1-0.4,0.1-0.6,0.1c-0.4,0-0.8-0.2-1-0.4
		c-0.3-0.3-0.4-0.6-0.4-1v-13c0-0.4,0.2-0.8,0.4-1c0.3-0.3,0.6-0.4,1-0.4c0.2,0,0.4,0,0.6,0.1c0.2,0.1,0.3,0.2,0.5,0.3
		c0.1,0.1,0.2,0.3,0.3,0.5c0.1,0.2,0.1,0.4,0.1,0.6v5h6.7v-5c0-0.2,0-0.4,0.1-0.6c0.1-0.2,0.2-0.3,0.3-0.5c0.1-0.1,0.3-0.3,0.5-0.3
		c0.2-0.1,0.4-0.1,0.6-0.1c0.4,0,0.8,0.2,1,0.4c0.3,0.3,0.4,0.6,0.4,1v13C109,40.2,108.4,40.9,107.5,40.9L107.5,40.9z M118.9,40.9
		h-0.3l-2.6,0c-1,0-2.1,0-3-0.4c-2-0.8-2.8-3.2-1.6-5.1c0.4-0.7,1.1-1.2,1.9-1.5c1.3-0.4,2.8,0,4.2-0.2c0-0.4,0-0.9-0.3-1.2
		c-0.3-0.2-0.6-0.2-1-0.2h-2.9c-0.4,0-0.9,0-1.3-0.2c-0.2-0.1-0.4-0.3-0.5-0.5c-0.1-0.2-0.2-0.4-0.2-0.6c0-0.2,0-0.5,0.1-0.7
		c0.1-0.2,0.2-0.4,0.4-0.5c0.5-0.3,1.1-0.3,1.7-0.3l2.8,0c0.8,0,1.6,0.1,2.3,0.6c0.8,0.5,1.3,1.3,1.5,2.2c0.2,0.9,0.2,1.8,0.2,2.7
		v3.7c0,0.7-0.1,1.4-0.6,1.8C119.5,40.8,119.2,40.9,118.9,40.9L118.9,40.9z M113.8,37.8c0.2,0.2,0.4,0.3,0.7,0.3h3v-1.9h-3
		c-0.1,0-0.2,0-0.4,0.1c-0.1,0-0.2,0.1-0.3,0.2c-0.2,0.2-0.3,0.5-0.3,0.7C113.5,37.4,113.6,37.6,113.8,37.8z M127.1,40.9h-0.3
		c-0.5,0-1-0.1-1.5-0.3h0c-0.4-0.2-0.8-0.5-1.2-0.8c-0.3-0.3-0.6-0.7-0.8-1.2v0c-0.2-0.5-0.3-1-0.3-1.5v-6.6h-1.1
		c-0.4,0-0.7-0.1-1-0.4l0,0c-0.3-0.3-0.4-0.6-0.4-1c0-0.4,0.1-0.7,0.4-1h0c0.1-0.1,0.3-0.2,0.5-0.3c0.2-0.1,0.4-0.1,0.5-0.1h1.1
		v-1.4c0-0.2,0-0.4,0.1-0.5c0.1-0.2,0.2-0.3,0.3-0.5c0.1-0.1,0.3-0.2,0.5-0.3c0.2-0.1,0.4-0.1,0.5-0.1c0.4,0,0.7,0.2,1,0.4
		c0.3,0.3,0.4,0.6,0.4,1v1.3h2.1c0.2,0,0.4,0,0.5,0.1c0.2,0.1,0.3,0.2,0.4,0.3c0.1,0.1,0.2,0.3,0.3,0.5c0.1,0.2,0.1,0.4,0.1,0.5v0
		c0,0.2,0,0.4-0.1,0.5c-0.1,0.2-0.2,0.3-0.3,0.5h0c-0.3,0.3-0.6,0.4-1,0.4h-2.1v6.6c0,0.1,0,0.2,0.1,0.4c0,0.1,0.1,0.2,0.2,0.3
		c0.1,0.1,0.2,0.2,0.3,0.2c0.1,0,0.2,0.1,0.4,0.1h0.3c0.3,0,0.6,0.1,0.8,0.2c0.2,0.2,0.4,0.4,0.5,0.6c0.1,0.3,0.1,0.6,0.1,0.8
		c-0.1,0.3-0.2,0.5-0.4,0.7C127.9,40.7,127.5,40.9,127.1,40.9L127.1,40.9z"/>
</g>
<g>
	<path class="st0" d="M36.5,12.3c-1.8-0.8-3.9-0.1-4.8,1.7L21.6,35.8c-0.2,0.4-0.3,0.9-0.3,1.4s0.1,0.9,0.2,1.4s0.4,0.9,0.7,1.2
		s0.7,0.6,1.1,0.8c0.4,0.2,0.9,0.3,1.4,0.3c0.5,0,0.9-0.1,1.4-0.2c0.9-0.3,1.6-1,2-1.9l10.1-21.7C39.1,15.3,38.3,13.2,36.5,12.3
		L36.5,12.3z"/>
	<path class="st2" d="M40.7,1.2l1.7-0.6c0.2-0.1,0.4-0.1,0.6,0c0.2,0.1,0.3,0.3,0.3,0.5l0.4,1.7c0.2,0.9,0.1,1.8-0.4,2.6l-1,1.9
		l0.1,0.2c0.4,0.6,0.5,1.4,0.1,2l-0.9,1.4c0,0-0.1,0.1-0.1,0.1s-0.1,0-0.2,0s-0.1,0-0.2,0s-0.1-0.1-0.1-0.1
		c-0.3-0.5-0.8-0.9-1.2-1.3l-1.2,2.2c0,0.1-0.1,0.2-0.2,0.2c-0.1,0-0.2,0-0.3,0c-0.1,0-0.2-0.1-0.2-0.2c0-0.1,0-0.2,0.1-0.3l0.9-1.7
		c-0.1-0.1-0.2-0.2-0.3-0.2l-0.6,1.1c0,0,0,0.1-0.1,0.1c-0.1,0.1-0.2,0.1-0.3,0.1c0,0-0.1,0-0.1,0c-0.1-0.1-0.2-0.1-0.2-0.2
		c0-0.1,0-0.2,0.1-0.3l0.6-1.1l-0.4-0.1l-0.9,1.6c0,0.1-0.1,0.2-0.2,0.2c0,0-0.1,0-0.1,0c0,0-0.1,0-0.1,0c-0.1,0-0.2-0.1-0.2-0.2
		c0-0.1,0-0.2,0.1-0.3l1.2-2.2c-0.6-0.2-1.1-0.3-1.7-0.3c-0.1,0-0.1,0-0.2-0.1s-0.1-0.1-0.1-0.1s0-0.1,0-0.2s0-0.1,0-0.2l0.7-1.6
		c0.1-0.3,0.4-0.6,0.7-0.8s0.7-0.3,1-0.3l0.2,0l1-1.9C39.1,2.1,39.8,1.5,40.7,1.2L40.7,1.2z M40.2,5.5c0.2,0.1,0.4,0.1,0.6,0.1
		s0.4-0.1,0.6-0.2c0.3-0.3,0.5-0.7,0.3-1.1c-0.1-0.4-0.5-0.7-0.9-0.7c-0.2,0-0.4,0-0.6,0.1s-0.3,0.2-0.4,0.4
		c-0.1,0.2-0.2,0.5-0.1,0.8C39.8,5.2,40,5.4,40.2,5.5L40.2,5.5z"/>
</g>
<path class="st1" d="M16.3,18.9c1.8-0.8,3.9-0.1,4.8,1.7l7.1,15.2c0.4,0.9,0.4,1.9,0.1,2.8c-0.3,0.9-1,1.6-1.9,2
	c-1.8,0.8-3.9,0.1-4.8-1.7l-7.1-15.2C13.7,21.9,14.5,19.7,16.3,18.9L16.3,18.9z"/>
<path class="st0" d="M19.3,18.9c-0.4-0.2-0.9-0.3-1.4-0.3c-1,0-1.9,0.3-2.6,0.9c-0.3,0.3-0.6,0.7-0.8,1.1L7.4,35.8
	C7,36.7,7,37.7,7.3,38.6C7.5,39,7.7,39.4,8,39.8s0.7,0.6,1.1,0.8c1.8,0.8,3.9,0.1,4.8-1.7L21,23.7C21.9,21.9,21.1,19.7,19.3,18.9
	L19.3,18.9z"/>
<path class="st1" d="M2.1,18.9c0.9-0.4,1.9-0.4,2.8-0.1c0.9,0.3,1.6,1,2,1.9L14,35.8c0.2,0.4,0.3,0.9,0.3,1.4c0,0.5-0.1,0.9-0.2,1.4
	c-0.2,0.4-0.4,0.9-0.7,1.2c-0.3,0.3-0.7,0.6-1.1,0.8c-1.8,0.8-3.9,0.1-4.8-1.7L0.3,23.7c-0.4-0.9-0.4-1.9-0.1-2.8
	C0.5,20,1.2,19.3,2.1,18.9L2.1,18.9z"/>
</svg>
